M48
;DRILL file {KiCad (5.0.2)-1} date 2/27/2020 4:12:19 PM
;FORMAT={-:-/ absolute / inch / decimal}
FMAT,2
INCH,TZ
T1C0.0157
T2C0.0787
%
G90
G05
T1
X0.2756Y0.1575
X0.2756Y-0.1575
X0.4331Y0.1575
X0.4331Y-0.1575
X0.6496Y0.1575
X0.6496Y-0.1575
X0.8268Y0.1575
X0.8268Y-0.1575
X1.0138Y0.1575
X1.0138Y-0.1575
X1.2106Y0.1575
X1.2106Y-0.1575
X1.3976Y0.1575
X1.3976Y-0.1575
X1.565Y-0.1575
X1.5669Y0.1575
X1.6535Y0.0709
X1.6535Y-0.0693
X1.811Y0.0693
X1.811Y-0.0709
X1.9685Y0.0693
X1.9685Y-0.0693
T2
X0.0689Y0.1575
X0.0689Y-0.1575
T0
M30
