M48
; DRILL file {KiCad (5.1.6)-1} date 10/19/20 11:05:42
; FORMAT={-:-/ absolute / metric / decimal}
; #@! TF.CreationDate,2020-10-19T11:05:42-05:00
; #@! TF.GenerationSoftware,Kicad,Pcbnew,(5.1.6)-1
; #@! TF.FileFunction,Plated,1,2,PTH
FMAT,2
METRIC
T1C0.400
T2C2.000
%
G90
G05
T1
X-33.0Y4.0
X-33.0Y-4.0
X-29.0Y4.0
X-29.0Y-4.0
X-25.0Y4.0
X-25.0Y-4.0
X-21.0Y4.0
X-21.0Y-4.0
X-17.0Y4.0
X-17.0Y-4.0
X-13.0Y4.0
X-13.0Y-4.0
X-9.0Y4.0
X-9.0Y-4.0
X-5.0Y4.0
X-5.0Y-4.0
X-1.0Y4.0
X-1.0Y-4.0
X3.0Y4.0
X3.0Y-4.0
X7.0Y4.0
X7.0Y-4.0
X11.0Y4.0
X11.0Y-4.0
X16.5Y4.0
X16.5Y-4.0
X21.0Y4.0
X21.0Y-4.0
X25.75Y4.0
X25.75Y-4.0
X30.75Y4.0
X30.75Y-4.0
X35.5Y4.0
X35.5Y-4.0
X39.75Y-4.0
X39.8Y4.0
X42.0Y1.8
X42.0Y-1.76
X46.0Y1.76
X46.0Y-1.8
X50.0Y1.76
X50.0Y-1.76
T2
X-37.35Y4.0
X-37.35Y-4.0
T0
M30
