G04 #@! TF.GenerationSoftware,KiCad,Pcbnew,(5.1.6)-1*
G04 #@! TF.CreationDate,2020-10-19T10:56:23-05:00*
G04 #@! TF.ProjectId,tri-slot-feedlines,7472692d-736c-46f7-942d-666565646c69,rev?*
G04 #@! TF.SameCoordinates,Original*
G04 #@! TF.FileFunction,Copper,L1,Top*
G04 #@! TF.FilePolarity,Positive*
%FSLAX46Y46*%
G04 Gerber Fmt 4.6, Leading zero omitted, Abs format (unit mm)*
G04 Created by KiCad (PCBNEW (5.1.6)-1) date 2020-10-19 10:56:23*
%MOMM*%
%LPD*%
G01*
G04 APERTURE LIST*
G04 #@! TA.AperFunction,ComponentPad*
%ADD10C,3.600000*%
G04 #@! TD*
G04 #@! TA.AperFunction,ViaPad*
%ADD11C,0.800000*%
G04 #@! TD*
G04 #@! TA.AperFunction,Conductor*
%ADD12C,1.500000*%
G04 #@! TD*
G04 #@! TA.AperFunction,Conductor*
%ADD13C,1.000000*%
G04 #@! TD*
G04 #@! TA.AperFunction,Conductor*
%ADD14C,0.250000*%
G04 #@! TD*
G04 APERTURE END LIST*
G04 #@! TA.AperFunction,SMDPad,CuDef*
G36*
G01*
X13300000Y4450001D02*
X13300000Y3549999D01*
G75*
G02*
X13050001Y3300000I-249999J0D01*
G01*
X12399999Y3300000D01*
G75*
G02*
X12150000Y3549999I0J249999D01*
G01*
X12150000Y4450001D01*
G75*
G02*
X12399999Y4700000I249999J0D01*
G01*
X13050001Y4700000D01*
G75*
G02*
X13300000Y4450001I0J-249999D01*
G01*
G37*
G04 #@! TD.AperFunction*
G04 #@! TA.AperFunction,SMDPad,CuDef*
G36*
G01*
X15350000Y4450001D02*
X15350000Y3549999D01*
G75*
G02*
X15100001Y3300000I-249999J0D01*
G01*
X14449999Y3300000D01*
G75*
G02*
X14200000Y3549999I0J249999D01*
G01*
X14200000Y4450001D01*
G75*
G02*
X14449999Y4700000I249999J0D01*
G01*
X15100001Y4700000D01*
G75*
G02*
X15350000Y4450001I0J-249999D01*
G01*
G37*
G04 #@! TD.AperFunction*
G04 #@! TA.AperFunction,SMDPad,CuDef*
G36*
G01*
X15316000Y-3549999D02*
X15316000Y-4450001D01*
G75*
G02*
X15066001Y-4700000I-249999J0D01*
G01*
X14415999Y-4700000D01*
G75*
G02*
X14166000Y-4450001I0J249999D01*
G01*
X14166000Y-3549999D01*
G75*
G02*
X14415999Y-3300000I249999J0D01*
G01*
X15066001Y-3300000D01*
G75*
G02*
X15316000Y-3549999I0J-249999D01*
G01*
G37*
G04 #@! TD.AperFunction*
G04 #@! TA.AperFunction,SMDPad,CuDef*
G36*
G01*
X13266000Y-3549999D02*
X13266000Y-4450001D01*
G75*
G02*
X13016001Y-4700000I-249999J0D01*
G01*
X12365999Y-4700000D01*
G75*
G02*
X12116000Y-4450001I0J249999D01*
G01*
X12116000Y-3549999D01*
G75*
G02*
X12365999Y-3300000I249999J0D01*
G01*
X13016001Y-3300000D01*
G75*
G02*
X13266000Y-3549999I0J-249999D01*
G01*
G37*
G04 #@! TD.AperFunction*
D10*
X-37350000Y-4000000D03*
X-37350000Y4000000D03*
G04 #@! TA.AperFunction,SMDPad,CuDef*
G36*
G01*
X819999Y1600000D02*
X1720001Y1600000D01*
G75*
G02*
X1970000Y1350001I0J-249999D01*
G01*
X1970000Y699999D01*
G75*
G02*
X1720001Y450000I-249999J0D01*
G01*
X819999Y450000D01*
G75*
G02*
X570000Y699999I0J249999D01*
G01*
X570000Y1350001D01*
G75*
G02*
X819999Y1600000I249999J0D01*
G01*
G37*
G04 #@! TD.AperFunction*
G04 #@! TA.AperFunction,SMDPad,CuDef*
G36*
G01*
X819999Y-450000D02*
X1720001Y-450000D01*
G75*
G02*
X1970000Y-699999I0J-249999D01*
G01*
X1970000Y-1350001D01*
G75*
G02*
X1720001Y-1600000I-249999J0D01*
G01*
X819999Y-1600000D01*
G75*
G02*
X570000Y-1350001I0J249999D01*
G01*
X570000Y-699999D01*
G75*
G02*
X819999Y-450000I249999J0D01*
G01*
G37*
G04 #@! TD.AperFunction*
G04 #@! TA.AperFunction,SMDPad,CuDef*
G36*
G01*
X-8169999Y450000D02*
X-9070001Y450000D01*
G75*
G02*
X-9320000Y699999I0J249999D01*
G01*
X-9320000Y1350001D01*
G75*
G02*
X-9070001Y1600000I249999J0D01*
G01*
X-8169999Y1600000D01*
G75*
G02*
X-7920000Y1350001I0J-249999D01*
G01*
X-7920000Y699999D01*
G75*
G02*
X-8169999Y450000I-249999J0D01*
G01*
G37*
G04 #@! TD.AperFunction*
G04 #@! TA.AperFunction,SMDPad,CuDef*
G36*
G01*
X-8169999Y-1600000D02*
X-9070001Y-1600000D01*
G75*
G02*
X-9320000Y-1350001I0J249999D01*
G01*
X-9320000Y-699999D01*
G75*
G02*
X-9070001Y-450000I249999J0D01*
G01*
X-8169999Y-450000D01*
G75*
G02*
X-7920000Y-699999I0J-249999D01*
G01*
X-7920000Y-1350001D01*
G75*
G02*
X-8169999Y-1600000I-249999J0D01*
G01*
G37*
G04 #@! TD.AperFunction*
D11*
X21000000Y-4000000D03*
X25750000Y-4000000D03*
X30750000Y-4000000D03*
X42000000Y-1760010D03*
X46000000Y-1800000D03*
X50000000Y-1760010D03*
X16500000Y-4000000D03*
X39750000Y-4000000D03*
X35500000Y-4000000D03*
X-29000000Y-4000000D03*
X-25000000Y-4000000D03*
X-21000000Y-4000000D03*
X-17000000Y-4000000D03*
X-13000000Y-4000000D03*
X-9000000Y-4000000D03*
X-5000000Y-4000000D03*
X-1000000Y-4000000D03*
X3000000Y-4000000D03*
X7000000Y-4000000D03*
X11000000Y-4000000D03*
X-33000000Y-4000000D03*
X-29000000Y4000000D03*
X-25000000Y4000000D03*
X-21000000Y4000000D03*
X-17000000Y4000000D03*
X-13000000Y4000000D03*
X-9000000Y4000000D03*
X-5000000Y4000000D03*
X-1000000Y4000000D03*
X3000000Y4000000D03*
X7000000Y4000000D03*
X11000000Y4000000D03*
X-33000000Y4000000D03*
X21000000Y4000000D03*
X25750000Y4000000D03*
X30750000Y4000000D03*
X42000000Y1800000D03*
X46000000Y1760010D03*
X50000000Y1760010D03*
X16500000Y4000000D03*
X39800000Y4000000D03*
X35500000Y4000000D03*
D12*
X19025000Y-4000000D02*
X19700000Y-4000000D01*
X49900000Y-1760010D02*
X50000000Y-1760010D01*
X21000000Y-4000000D02*
X25000000Y-4000000D01*
X42000000Y-1760010D02*
X49900000Y-1760010D01*
X50000000Y-1760010D02*
X51039990Y-1760010D01*
X19025000Y-4000000D02*
X20000000Y-4000000D01*
X20000000Y-4000000D02*
X21000000Y-4000000D01*
X16500000Y-4000000D02*
X20000000Y-4000000D01*
X32760010Y-4000000D02*
X33000000Y-4000000D01*
X41989990Y-1760010D02*
X42000000Y-1760010D01*
X39750000Y-4000000D02*
X41989990Y-1760010D01*
X39750000Y-4000000D02*
X39750000Y-4000000D01*
X33000000Y-4000000D02*
X32760010Y-4000000D01*
X37750000Y-4000000D02*
X36000000Y-4000000D01*
X29000000Y-4000000D02*
X36000000Y-4000000D01*
X36000000Y-4000000D02*
X36750000Y-4000000D01*
X39750000Y-4000000D02*
X36000000Y-4000000D01*
D13*
X14741000Y-4000000D02*
X15366500Y-4000000D01*
D12*
X16500000Y-4000000D02*
X15366500Y-4000000D01*
X28003500Y-4000000D02*
X29000000Y-4000000D01*
X25000000Y-4000000D02*
X28003500Y-4000000D01*
X-31100000Y-4000000D02*
X-35350000Y-4000000D01*
X-28100000Y-4000000D02*
X-31100000Y-4000000D01*
X12475000Y-4000000D02*
X10000000Y-4000000D01*
X-8620000Y-1600000D02*
X-8620000Y-3555000D01*
X-28100000Y-4000000D02*
X-23000000Y-4000000D01*
D14*
X-7720000Y-3555000D02*
X-8165000Y-4000000D01*
X1170000Y-3810000D02*
X1360000Y-4000000D01*
D12*
X-8065000Y-4000000D02*
X-7000000Y-4000000D01*
X1460000Y-4000000D02*
X5000000Y-4000000D01*
X-23000000Y-4000000D02*
X-19000000Y-4000000D01*
X-19000000Y-4000000D02*
X-15000000Y-4000000D01*
X-15000000Y-4000000D02*
X-11000000Y-4000000D01*
X-11000000Y-4000000D02*
X-8065000Y-4000000D01*
X-7000000Y-4000000D02*
X-3000000Y-4000000D01*
X-3000000Y-4000000D02*
X1000000Y-4000000D01*
X1000000Y-4000000D02*
X1460000Y-4000000D01*
X5000000Y-4000000D02*
X9000000Y-4000000D01*
X9000000Y-4000000D02*
X10000000Y-4000000D01*
D14*
X1270000Y-3730000D02*
X1000000Y-4000000D01*
D12*
X1270000Y-1600000D02*
X1270000Y-3730000D01*
X-31100000Y4000000D02*
X-35350000Y4000000D01*
X-28100000Y4000000D02*
X-31100000Y4000000D01*
D13*
X12050000Y4000000D02*
X12049500Y4000500D01*
X12725000Y4000000D02*
X12050000Y4000000D01*
D12*
X7000000Y4000000D02*
X9000000Y4000000D01*
D14*
X-8620000Y3810000D02*
X-8810000Y4000000D01*
D12*
X-8620000Y1600000D02*
X-8620000Y3810000D01*
X-28100000Y4000000D02*
X-23000000Y4000000D01*
X-7810000Y4000000D02*
X-7000000Y4000000D01*
D14*
X1270000Y3810000D02*
X1460000Y4000000D01*
D12*
X1460000Y4000000D02*
X5000000Y4000000D01*
X-23000000Y4000000D02*
X-19000000Y4000000D01*
X-19000000Y4000000D02*
X-15000000Y4000000D01*
X-15000000Y4000000D02*
X-11000000Y4000000D01*
X-11000000Y4000000D02*
X-7810000Y4000000D01*
X-7000000Y4000000D02*
X-3000000Y4000000D01*
X-3000000Y4000000D02*
X1000000Y4000000D01*
X1000000Y4000000D02*
X1460000Y4000000D01*
X5000000Y4000000D02*
X7000000Y4000000D01*
X9000000Y4000000D02*
X12050000Y4000000D01*
D14*
X1270000Y3730000D02*
X1000000Y4000000D01*
D12*
X1270000Y3730000D02*
X1270000Y1600000D01*
X47900000Y1760010D02*
X50000000Y1760010D01*
X47900000Y1760010D02*
X49860010Y1760010D01*
X46000000Y1760010D02*
X47900000Y1760010D01*
X50000000Y1760010D02*
X51039990Y1760010D01*
X16500000Y4000000D02*
X22000000Y4000000D01*
X21000000Y4000000D02*
X22000000Y4000000D01*
X22000000Y4000000D02*
X25000000Y4000000D01*
X42039990Y1760010D02*
X46000000Y1760010D01*
X42000000Y1800000D02*
X42039990Y1760010D01*
X39800000Y4000000D02*
X42000000Y1800000D01*
X37800000Y4000000D02*
X36000000Y4000000D01*
X36000000Y4000000D02*
X36800000Y4000000D01*
X39800000Y4000000D02*
X35250000Y4000000D01*
X29000000Y4000000D02*
X35250000Y4000000D01*
X35250000Y4000000D02*
X36000000Y4000000D01*
D13*
X15450000Y4000000D02*
X15450500Y4000500D01*
X14775000Y4000000D02*
X15450000Y4000000D01*
D12*
X16500000Y4000000D02*
X15450000Y4000000D01*
X28130500Y4000000D02*
X29000000Y4000000D01*
X25000000Y4000000D02*
X28130500Y4000000D01*
M02*
