G04 #@! TF.GenerationSoftware,KiCad,Pcbnew,(5.0.2)-1*
G04 #@! TF.CreationDate,2019-12-13T16:23:56-06:00*
G04 #@! TF.ProjectId,tri-slot-hub,7472692d-736c-46f7-942d-6875622e6b69,rev?*
G04 #@! TF.SameCoordinates,Original*
G04 #@! TF.FileFunction,Copper,L2,Bot*
G04 #@! TF.FilePolarity,Positive*
%FSLAX46Y46*%
G04 Gerber Fmt 4.6, Leading zero omitted, Abs format (unit mm)*
G04 Created by KiCad (PCBNEW (5.0.2)-1) date 12/13/2019 4:23:56 PM*
%MOMM*%
%LPD*%
G01*
G04 APERTURE LIST*
G04 #@! TA.AperFunction,ComponentPad*
%ADD10C,4.000000*%
G04 #@! TD*
G04 #@! TA.AperFunction,ComponentPad*
%ADD11C,2.100000*%
G04 #@! TD*
G04 #@! TA.AperFunction,Conductor*
%ADD12C,1.500000*%
G04 #@! TD*
G04 #@! TA.AperFunction,Conductor*
%ADD13C,0.254000*%
G04 #@! TD*
G04 APERTURE END LIST*
D10*
G04 #@! TO.P,J1,2*
G04 #@! TO.N,/slot_l*
X-6000000Y2300000D03*
X6110000Y2300000D03*
D11*
G04 #@! TO.P,J1,1*
G04 #@! TO.N,/slot_r*
X0Y2300000D03*
G04 #@! TD*
D12*
G04 #@! TO.N,/slot_r*
X-25000Y2600000D02*
X-25000Y7775000D01*
X0Y-200000D02*
X-5900000Y-3800000D01*
X-25000Y2600000D02*
X0Y900000D01*
X0Y900000D02*
X0Y-200000D01*
X2300000Y-1600000D02*
X6100000Y-3900000D01*
X0Y-200000D02*
X2300000Y-1600000D01*
X-5900000Y-3800000D02*
X-5000000Y-3800000D01*
G04 #@! TD*
D13*
G04 #@! TO.N,/slot_r*
G36*
X-1407576Y15748334D02*
X-1265019Y15534981D01*
X-1051666Y15392424D01*
X-863525Y15355000D01*
X-800000Y15342364D01*
X-736475Y15355000D01*
X736475Y15355000D01*
X800000Y15342364D01*
X1051666Y15392424D01*
X1265019Y15534981D01*
X1407576Y15748334D01*
X1432374Y15873000D01*
X1487491Y15873000D01*
X1833130Y15804248D01*
X2115545Y15615545D01*
X2304248Y15333130D01*
X2373000Y14987491D01*
X2373000Y7012509D01*
X2304248Y6666870D01*
X2115545Y6384455D01*
X1833130Y6195752D01*
X1487491Y6127000D01*
X-1487491Y6127000D01*
X-1833130Y6195752D01*
X-2115545Y6384455D01*
X-2304248Y6666870D01*
X-2373000Y7012509D01*
X-2373000Y14987491D01*
X-2304248Y15333130D01*
X-2115545Y15615545D01*
X-1833130Y15804248D01*
X-1487491Y15873000D01*
X-1432374Y15873000D01*
X-1407576Y15748334D01*
X-1407576Y15748334D01*
G37*
X-1407576Y15748334D02*
X-1265019Y15534981D01*
X-1051666Y15392424D01*
X-863525Y15355000D01*
X-800000Y15342364D01*
X-736475Y15355000D01*
X736475Y15355000D01*
X800000Y15342364D01*
X1051666Y15392424D01*
X1265019Y15534981D01*
X1407576Y15748334D01*
X1432374Y15873000D01*
X1487491Y15873000D01*
X1833130Y15804248D01*
X2115545Y15615545D01*
X2304248Y15333130D01*
X2373000Y14987491D01*
X2373000Y7012509D01*
X2304248Y6666870D01*
X2115545Y6384455D01*
X1833130Y6195752D01*
X1487491Y6127000D01*
X-1487491Y6127000D01*
X-1833130Y6195752D01*
X-2115545Y6384455D01*
X-2304248Y6666870D01*
X-2373000Y7012509D01*
X-2373000Y14987491D01*
X-2304248Y15333130D01*
X-2115545Y15615545D01*
X-1833130Y15804248D01*
X-1487491Y15873000D01*
X-1432374Y15873000D01*
X-1407576Y15748334D01*
G36*
X-6586873Y-1360112D02*
X-6282244Y-1510338D01*
X-6049882Y-1775297D01*
X-4562392Y-4351706D01*
X-4449112Y-4685414D01*
X-4471328Y-5024343D01*
X-4621554Y-5328972D01*
X-4886512Y-5561334D01*
X-11793048Y-9548824D01*
X-12126756Y-9662103D01*
X-12465685Y-9639888D01*
X-12770314Y-9489662D01*
X-13002676Y-9224703D01*
X-13030234Y-9176972D01*
X-12934669Y-9093164D01*
X-12821179Y-8863029D01*
X-12804397Y-8606982D01*
X-12804397Y-8606980D01*
X-12866058Y-8425333D01*
X-12886877Y-8364002D01*
X-12929582Y-8315307D01*
X-13666057Y-7039696D01*
X-13686877Y-6978362D01*
X-13856063Y-6785443D01*
X-14086198Y-6671953D01*
X-14342244Y-6655171D01*
X-14342245Y-6655171D01*
X-14445414Y-6690192D01*
X-14462607Y-6696028D01*
X-14490166Y-6648294D01*
X-14603446Y-6314586D01*
X-14581230Y-5975657D01*
X-14431004Y-5671028D01*
X-14166046Y-5438666D01*
X-7259510Y-1451176D01*
X-6925802Y-1337897D01*
X-6586873Y-1360112D01*
X-6586873Y-1360112D01*
G37*
X-6586873Y-1360112D02*
X-6282244Y-1510338D01*
X-6049882Y-1775297D01*
X-4562392Y-4351706D01*
X-4449112Y-4685414D01*
X-4471328Y-5024343D01*
X-4621554Y-5328972D01*
X-4886512Y-5561334D01*
X-11793048Y-9548824D01*
X-12126756Y-9662103D01*
X-12465685Y-9639888D01*
X-12770314Y-9489662D01*
X-13002676Y-9224703D01*
X-13030234Y-9176972D01*
X-12934669Y-9093164D01*
X-12821179Y-8863029D01*
X-12804397Y-8606982D01*
X-12804397Y-8606980D01*
X-12866058Y-8425333D01*
X-12886877Y-8364002D01*
X-12929582Y-8315307D01*
X-13666057Y-7039696D01*
X-13686877Y-6978362D01*
X-13856063Y-6785443D01*
X-14086198Y-6671953D01*
X-14342244Y-6655171D01*
X-14342245Y-6655171D01*
X-14445414Y-6690192D01*
X-14462607Y-6696028D01*
X-14490166Y-6648294D01*
X-14603446Y-6314586D01*
X-14581230Y-5975657D01*
X-14431004Y-5671028D01*
X-14166046Y-5438666D01*
X-7259510Y-1451176D01*
X-6925802Y-1337897D01*
X-6586873Y-1360112D01*
G36*
X7259510Y-1451176D02*
X14166046Y-5438666D01*
X14431004Y-5671028D01*
X14581230Y-5975657D01*
X14603446Y-6314586D01*
X14490166Y-6648294D01*
X14462606Y-6696029D01*
X14342244Y-6655171D01*
X14101947Y-6670921D01*
X14086197Y-6671953D01*
X14079520Y-6675246D01*
X13856063Y-6785443D01*
X13856062Y-6785444D01*
X13729581Y-6929667D01*
X13729580Y-6929669D01*
X13686877Y-6978362D01*
X13666059Y-7039691D01*
X12929585Y-8315303D01*
X12886877Y-8364002D01*
X12809121Y-8593066D01*
X12804397Y-8606982D01*
X12821179Y-8863028D01*
X12934669Y-9093163D01*
X13030234Y-9176971D01*
X13002676Y-9224703D01*
X12770314Y-9489662D01*
X12465685Y-9639888D01*
X12126756Y-9662103D01*
X11793048Y-9548824D01*
X4886512Y-5561334D01*
X4621554Y-5328972D01*
X4471328Y-5024343D01*
X4449112Y-4685414D01*
X4562392Y-4351706D01*
X6049882Y-1775297D01*
X6282244Y-1510338D01*
X6586873Y-1360112D01*
X6925802Y-1337897D01*
X7259510Y-1451176D01*
X7259510Y-1451176D01*
G37*
X7259510Y-1451176D02*
X14166046Y-5438666D01*
X14431004Y-5671028D01*
X14581230Y-5975657D01*
X14603446Y-6314586D01*
X14490166Y-6648294D01*
X14462606Y-6696029D01*
X14342244Y-6655171D01*
X14101947Y-6670921D01*
X14086197Y-6671953D01*
X14079520Y-6675246D01*
X13856063Y-6785443D01*
X13856062Y-6785444D01*
X13729581Y-6929667D01*
X13729580Y-6929669D01*
X13686877Y-6978362D01*
X13666059Y-7039691D01*
X12929585Y-8315303D01*
X12886877Y-8364002D01*
X12809121Y-8593066D01*
X12804397Y-8606982D01*
X12821179Y-8863028D01*
X12934669Y-9093163D01*
X13030234Y-9176971D01*
X13002676Y-9224703D01*
X12770314Y-9489662D01*
X12465685Y-9639888D01*
X12126756Y-9662103D01*
X11793048Y-9548824D01*
X4886512Y-5561334D01*
X4621554Y-5328972D01*
X4471328Y-5024343D01*
X4449112Y-4685414D01*
X4562392Y-4351706D01*
X6049882Y-1775297D01*
X6282244Y-1510338D01*
X6586873Y-1360112D01*
X6925802Y-1337897D01*
X7259510Y-1451176D01*
G04 #@! TD*
M02*
