G04 #@! TF.GenerationSoftware,KiCad,Pcbnew,(5.0.2)-1*
G04 #@! TF.CreationDate,2020-08-06T17:06:31-05:00*
G04 #@! TF.ProjectId,tri-slot-hub,7472692d-736c-46f7-942d-6875622e6b69,rev?*
G04 #@! TF.SameCoordinates,Original*
G04 #@! TF.FileFunction,Profile,NP*
%FSLAX46Y46*%
G04 Gerber Fmt 4.6, Leading zero omitted, Abs format (unit mm)*
G04 Created by KiCad (PCBNEW (5.0.2)-1) date 8/6/2020 5:06:31 PM*
%MOMM*%
%LPD*%
G01*
G04 APERTURE LIST*
%ADD10C,0.020000*%
G04 APERTURE END LIST*
D10*
X-4500000Y100000D02*
X-4500000Y1700000D01*
X4500000Y100000D02*
X4500000Y1700000D01*
X-4500000Y100000D02*
X4500000Y100000D01*
X-4500000Y1700000D02*
X4500000Y1700000D01*
X9499999Y17300000D02*
X9491489Y5489741D01*
X10232240Y-16877241D02*
X8511Y-10964741D01*
X19732239Y-422759D02*
X9491489Y5489741D01*
X-10232239Y-16877241D02*
X8511Y-10964741D01*
X-19732239Y-422759D02*
X-9500000Y5475000D01*
X19732239Y-422759D02*
G75*
G02X22916660Y-12307180I-4350000J-7534421D01*
G01*
X-10232239Y-16877241D02*
G75*
G02X-22116660Y-13692820I-4350000J7534421D01*
G01*
X22116660Y-13692820D02*
G75*
G02X10232239Y-16877241I-7534421J4350000D01*
G01*
X-22916660Y-12307180D02*
G75*
G02X-19732239Y-422759I7534421J4350000D01*
G01*
X800000Y26000000D02*
G75*
G02X9500000Y17300000I0J-8700000D01*
G01*
X-9500000Y17300000D02*
X-9500000Y5475000D01*
X-9500000Y17300000D02*
G75*
G02X-800000Y26000000I8700000J0D01*
G01*
X14256406Y-7307180D02*
X13456406Y-8692820D01*
X22916660Y-12307180D02*
X14256406Y-7307180D01*
X-22116660Y-13692820D02*
X-13456406Y-8692820D01*
X22116660Y-13692820D02*
X13456406Y-8692820D01*
X-22916660Y-12307180D02*
X-14256406Y-7307180D01*
X-13456406Y-8692820D02*
X-14256406Y-7307180D01*
X-800000Y16000000D02*
X800000Y16000000D01*
X800000Y26000000D02*
X800000Y16000000D01*
X-800000Y26000000D02*
X-800000Y16000000D01*
M02*
