G04 #@! TF.GenerationSoftware,KiCad,Pcbnew,(5.1.6)-1*
G04 #@! TF.CreationDate,2020-10-20T16:42:45-05:00*
G04 #@! TF.ProjectId,quad-slot-hub,71756164-2d73-46c6-9f74-2d6875622e6b,rev?*
G04 #@! TF.SameCoordinates,Original*
G04 #@! TF.FileFunction,Copper,L2,Bot*
G04 #@! TF.FilePolarity,Positive*
%FSLAX46Y46*%
G04 Gerber Fmt 4.6, Leading zero omitted, Abs format (unit mm)*
G04 Created by KiCad (PCBNEW (5.1.6)-1) date 2020-10-20 16:42:45*
%MOMM*%
%LPD*%
G01*
G04 APERTURE LIST*
G04 #@! TA.AperFunction,ComponentPad*
%ADD10C,4.000000*%
G04 #@! TD*
G04 #@! TA.AperFunction,ComponentPad*
%ADD11C,2.100000*%
G04 #@! TD*
G04 #@! TA.AperFunction,Conductor*
%ADD12C,4.000000*%
G04 #@! TD*
G04 #@! TA.AperFunction,Conductor*
%ADD13C,1.500000*%
G04 #@! TD*
G04 #@! TA.AperFunction,Conductor*
%ADD14C,2.000000*%
G04 #@! TD*
G04 APERTURE END LIST*
D10*
X-4242641Y-4242641D03*
X4320422Y4320422D03*
D11*
X0Y0D03*
D12*
X7500000Y0D02*
X14000000Y0D01*
X-7500000Y0D02*
X-14000000Y0D01*
X0Y-7500000D02*
X0Y-14000000D01*
D13*
X0Y5289980D02*
X10Y5289990D01*
X2250000Y0D02*
X5280000Y0D01*
X0Y0D02*
X2250000Y0D01*
X0Y-1000000D02*
X1000000Y0D01*
X0Y-2250000D02*
X0Y-5280000D01*
X0Y0D02*
X0Y-2250000D01*
X-2530000Y0D02*
X-2250000Y0D01*
X-2530000Y0D02*
X-5280000Y0D01*
X-1000000Y0D02*
X0Y-1000000D01*
X-1000000Y0D02*
X0Y1000000D01*
X0Y2040000D02*
X0Y5289980D01*
X-1000000Y0D02*
X0Y1000000D01*
X-1840000Y0D02*
X-2530000Y0D01*
X0Y0D02*
X-1840000Y0D01*
X0Y0D02*
X0Y2040000D01*
X0Y1000000D02*
X1000000Y0D01*
X2250000Y0D02*
X2040000Y0D01*
D12*
X0Y7500000D02*
X0Y14000000D01*
D14*
X7500000Y0D02*
X5280000Y0D01*
X0Y7500000D02*
X0Y5289980D01*
X-5280000Y0D02*
X-7500000Y0D01*
X0Y-5280000D02*
X0Y-7500000D01*
M02*
