  0
SECTION
  2
HEADER
  9
$ACADVER
  1
AC1015
  9
$ACADMAINTVER
 70
     6
  9
$DWGCODEPAGE
  3
ANSI_1252
  9
$INSBASE
 10
0.0
 20
0.0
 30
0.0
  9
$EXTMIN
 10
0.0
 20
0.0
 30
0.0
  9
$EXTMAX
 10
27.94
 20
21.59
 30
0.0
  9
$LIMMIN
 10
0.0
 20
0.0
  9
$LIMMAX
 10
27.94
 20
21.59
  9
$ORTHOMODE
 70
     0
  9
$REGENMODE
 70
     1
  9
$FILLMODE
 70
     1
  9
$QTEXTMODE
 70
     0
  9
$MIRRTEXT
 70
     1
  9
$LTSCALE
 40
1.0
  9
$ATTMODE
 70
     1
  9
$TEXTSIZE
 40
0.3175
  9
$TRACEWID
 40
1.0
  9
$TEXTSTYLE
  7
Standard
  9
$CLAYER
  8
0
  9
$CELTYPE
  6
ByLayer
  9
$CECOLOR
 62
   256
  9
$CELTSCALE
 40
1.0
  9
$DISPSILH
 70
     0
  9
$DIMSCALE
 40
1.0
  9
$DIMASZ
 40
0.3302
  9
$DIMEXO
 40
0.127
  9
$DIMDLI
 40
3.75
  9
$DIMRND
 40
0.0
  9
$DIMDLE
 40
0.0
  9
$DIMEXE
 40
0.3175
  9
$DIMTP
 40
0.0
  9
$DIMTM
 40
0.0
  9
$DIMTXT
 40
0.3175
  9
$DIMCEN
 40
2.5
  9
$DIMTSZ
 40
0.0
  9
$DIMTOL
 70
     0
  9
$DIMLIM
 70
     0
  9
$DIMTIH
 70
     1
  9
$DIMTOH
 70
     1
  9
$DIMSE1
 70
     0
  9
$DIMSE2
 70
     0
  9
$DIMTAD
 70
     0
  9
$DIMZIN
 70
     0
  9
$DIMBLK
  1

  9
$DIMASO
 70
     1
  9
$DIMSHO
 70
     1
  9
$DIMPOST
  1

  9
$DIMAPOST
  1

  9
$DIMALT
 70
     0
  9
$DIMALTD
 70
     3
  9
$DIMALTF
 40
0.3937007874
  9
$DIMLFAC
 40
5.0
  9
$DIMTOFL
 70
     1
  9
$DIMTVP
 40
0.0
  9
$DIMTIX
 70
     0
  9
$DIMSOXD
 70
     0
  9
$DIMSAH
 70
     0
  9
$DIMBLK1
  1

  9
$DIMBLK2
  1

  9
$DIMSTYLE
  2
ISO-25
  9
$DIMCLRD
 70
     0
  9
$DIMCLRE
 70
     0
  9
$DIMCLRT
 70
     0
  9
$DIMTFAC
 40
1.0
  9
$DIMGAP
 40
0.1524
  9
$DIMJUST
 70
     0
  9
$DIMSD1
 70
     0
  9
$DIMSD2
 70
     0
  9
$DIMTOLJ
 70
     0
  9
$DIMTZIN
 70
     0
  9
$DIMALTZ
 70
     0
  9
$DIMALTTZ
 70
     0
  9
$DIMUPT
 70
     0
  9
$DIMDEC
 70
     2
  9
$DIMTDEC
 70
     2
  9
$DIMALTU
 70
     2
  9
$DIMALTTD
 70
     3
  9
$DIMTXSTY
  7
Standard
  9
$DIMAUNIT
 70
     0
  9
$DIMADEC
 70
     2
  9
$DIMALTRND
 40
0.0
  9
$DIMAZIN
 70
     0
  9
$DIMDSEP
 70
    44
  9
$DIMATFIT
 70
     3
  9
$DIMFRAC
 70
     0
  9
$DIMLDRBLK
  1

  9
$DIMLUNIT
 70
     2
  9
$DIMLWD
 70
    -2
  9
$DIMLWE
 70
    -2
  9
$DIMTMOVE
 70
     0
  9
$LUNITS
 70
     2
  9
$LUPREC
 70
     2
  9
$SKETCHINC
 40
1.0
  9
$FILLETRAD
 40
10.0
  9
$AUNITS
 70
     0
  9
$AUPREC
 70
     2
  9
$MENU
  1
.
  9
$ELEVATION
 40
0.0
  9
$PELEVATION
 40
0.0
  9
$THICKNESS
 40
0.0
  9
$LIMCHECK
 70
     0
  9
$CHAMFERA
 40
0.0
  9
$CHAMFERB
 40
0.0
  9
$CHAMFERC
 40
0.0
  9
$CHAMFERD
 40
0.0
  9
$SKPOLY
 70
     0
  9
$TDCREATE
 40
2459172.639460984
  9
$TDUCREATE
 40
2459172.889460984
  9
$TDUPDATE
 40
2459172.639464444
  9
$TDUUPDATE
 40
2459172.889464444
  9
$TDINDWG
 40
0.0000000116
  9
$TDUSRTIMER
 40
0.0000000116
  9
$USRTIMER
 70
     1
  9
$ANGBASE
 50
0.0
  9
$ANGDIR
 70
     0
  9
$PDMODE
 70
     0
  9
$PDSIZE
 40
-1.0
  9
$PLINEWID
 40
0.0
  9
$SPLFRAME
 70
     0
  9
$SPLINETYPE
 70
     6
  9
$SPLINESEGS
 70
     8
  9
$HANDSEED
  5
33A
  9
$SURFTAB1
 70
     6
  9
$SURFTAB2
 70
     6
  9
$SURFTYPE
 70
     6
  9
$SURFU
 70
     6
  9
$SURFV
 70
     6
  9
$UCSBASE
  2

  9
$UCSNAME
  2

  9
$UCSORG
 10
0.0
 20
0.0
 30
0.0
  9
$UCSXDIR
 10
1.0
 20
0.0
 30
0.0
  9
$UCSYDIR
 10
0.0
 20
1.0
 30
0.0
  9
$UCSORTHOREF
  2

  9
$UCSORTHOVIEW
 70
     0
  9
$UCSORGTOP
 10
0.0
 20
0.0
 30
0.0
  9
$UCSORGBOTTOM
 10
0.0
 20
0.0
 30
0.0
  9
$UCSORGLEFT
 10
0.0
 20
0.0
 30
0.0
  9
$UCSORGRIGHT
 10
0.0
 20
0.0
 30
0.0
  9
$UCSORGFRONT
 10
0.0
 20
0.0
 30
0.0
  9
$UCSORGBACK
 10
0.0
 20
0.0
 30
0.0
  9
$PUCSBASE
  2

  9
$PUCSNAME
  2

  9
$PUCSORG
 10
0.0
 20
0.0
 30
0.0
  9
$PUCSXDIR
 10
1.0
 20
0.0
 30
0.0
  9
$PUCSYDIR
 10
0.0
 20
1.0
 30
0.0
  9
$PUCSORTHOREF
  2

  9
$PUCSORTHOVIEW
 70
     0
  9
$PUCSORGTOP
 10
0.0
 20
0.0
 30
0.0
  9
$PUCSORGBOTTOM
 10
0.0
 20
0.0
 30
0.0
  9
$PUCSORGLEFT
 10
0.0
 20
0.0
 30
0.0
  9
$PUCSORGRIGHT
 10
0.0
 20
0.0
 30
0.0
  9
$PUCSORGFRONT
 10
0.0
 20
0.0
 30
0.0
  9
$PUCSORGBACK
 10
0.0
 20
0.0
 30
0.0
  9
$USERI1
 70
     0
  9
$USERI2
 70
     0
  9
$USERI3
 70
     0
  9
$USERI4
 70
     0
  9
$USERI5
 70
     0
  9
$USERR1
 40
0.0
  9
$USERR2
 40
0.0
  9
$USERR3
 40
0.0
  9
$USERR4
 40
0.0
  9
$USERR5
 40
0.0
  9
$WORLDVIEW
 70
     1
  9
$SHADEDGE
 70
     3
  9
$SHADEDIF
 70
    70
  9
$TILEMODE
 70
     1
  9
$MAXACTVP
 70
    64
  9
$PINSBASE
 10
0.0
 20
0.0
 30
0.0
  9
$PLIMCHECK
 70
     0
  9
$PEXTMIN
 10
1.0000000000E+20
 20
1.0000000000E+20
 30
1.0000000000E+20
  9
$PEXTMAX
 10
-1.0000000000E+20
 20
-1.0000000000E+20
 30
-1.0000000000E+20
  9
$PLIMMIN
 10
0.0
 20
0.0
  9
$PLIMMAX
 10
420.0
 20
297.0
  9
$UNITMODE
 70
     0
  9
$VISRETAIN
 70
     1
  9
$PLINEGEN
 70
     0
  9
$PSLTSCALE
 70
     1
  9
$TREEDEPTH
 70
  3020
  9
$CMLSTYLE
  2
Standard
  9
$CMLJUST
 70
     0
  9
$CMLSCALE
 40
20.0
  9
$PROXYGRAPHICS
 70
     1
  9
$MEASUREMENT
 70
     1
  9
$CELWEIGHT
370
    -1
  9
$ENDCAPS
280
     0
  9
$JOINSTYLE
280
     0
  9
$LWDISPLAY
290
     1
  9
$INSUNITS
 70
     4
  9
$HYPERLINKBASE
  1

  9
$STYLESHEET
  1

  9
$XEDIT
290
     1
  9
$CEPSNTYPE
380
     0
  9
$PSTYLEMODE
290
     1
  9
$FINGERPRINTGUID
  2
{152A11E7-5B66-4023-AEAD-96D86FA8EA5F}
  9
$VERSIONGUID
  2
{FAEB1C32-E019-11D5-929B-00C0DF256EC4}
  9
$EXTNAMES
290
     1
  9
$PSVPSCALE
 40
0.0
  9
$OLESTARTUP
290
     0
  0
ENDSEC
  0
SECTION
  2
CLASSES
  0
CLASS
  1
ACDBDICTIONARYWDFLT
  2
AcDbDictionaryWithDefault
  3
ObjectDBX Classes
 90
        0
280
     0
281
     0
  0
CLASS
  1
VISUALSTYLE
  2
AcDbVisualStyle
  3
ObjectDBX Classes
 90
     4095
280
     0
281
     0
  0
CLASS
  1
MATERIAL
  2
AcDbMaterial
  3
ObjectDBX Classes
 90
     1153
280
     0
281
     0
  0
CLASS
  1
SCALE
  2
AcDbScale
  3
ObjectDBX Classes
 90
     1153
280
     0
281
     0
  0
CLASS
  1
SUN
  2
AcDbSun
  3
SCENEOE
 90
     1153
280
     0
281
     0
  0
CLASS
  1
ACDBPLACEHOLDER
  2
AcDbPlaceHolder
  3
ObjectDBX Classes
 90
        0
280
     0
281
     0
  0
CLASS
  1
LAYOUT
  2
AcDbLayout
  3
ObjectDBX Classes
 90
        0
280
     0
281
     0
  0
ENDSEC
  0
SECTION
  2
TABLES
  0
TABLE
  2
VPORT
  5
8
330
0
100
AcDbSymbolTable
 70
     1
  0
VPORT
  5
29
330
8
100
AcDbSymbolTableRecord
100
AcDbViewportTableRecord
  2
*Active
 70
     0
 10
0.0
 20
0.0
 11
1.0
 21
1.0
 12
13.97
 22
10.795
 13
0.0
 23
0.0
 14
10.0
 24
10.0
 15
10.0
 25
10.0
 16
0.0
 26
0.0
 36
1.0
 17
0.0
 27
0.0
 37
0.0
 40
21.59
 41
1.2941176471
 42
50.0
 43
0.0
 44
0.0
 50
0.0
 51
0.0
 71
     0
 72
  2000
 73
     1
 74
     3
 75
     0
 76
     0
 77
     0
 78
     0
281
     0
 65
     1
110
0.0
120
0.0
130
0.0
111
1.0
121
0.0
131
0.0
112
0.0
122
1.0
132
0.0
 79
     0
146
0.0
  0
ENDTAB
  0
TABLE
  2
LTYPE
  5
5
330
0
100
AcDbSymbolTable
 70
     6
  0
LTYPE
  5
14
330
5
100
AcDbSymbolTableRecord
100
AcDbLinetypeTableRecord
  2
ByBlock
 70
     0
  3

 72
    65
 73
     0
 40
0.0
  0
LTYPE
  5
15
330
5
100
AcDbSymbolTableRecord
100
AcDbLinetypeTableRecord
  2
ByLayer
 70
     0
  3

 72
    65
 73
     0
 40
0.0
  0
LTYPE
  5
16
330
5
100
AcDbSymbolTableRecord
100
AcDbLinetypeTableRecord
  2
Continuous
 70
     0
  3
Solid line
 72
    65
 73
     0
 40
0.0
  0
LTYPE
  5
6A
330
5
100
AcDbSymbolTableRecord
100
AcDbLinetypeTableRecord
  2
HIDDEN
 70
     0
  3
Hidden __ __ __ __ __ __ __ __ __ __ __ __ __ __
 72
    65
 73
     2
 40
0.1905
 49
0.127
 74
     0
 49
-0.0635
 74
     0
  0
LTYPE
  5
6B
330
5
100
AcDbSymbolTableRecord
100
AcDbLinetypeTableRecord
  2
PHANTOM
 70
     0
  3
Phantom ______  __  __  ______  __  __  ______
 72
    65
 73
     6
 40
1.27
 49
0.635
 74
     0
 49
-0.127
 74
     0
 49
0.127
 74
     0
 49
-0.127
 74
     0
 49
0.127
 74
     0
 49
-0.127
 74
     0
  0
LTYPE
  5
6C
330
5
100
AcDbSymbolTableRecord
100
AcDbLinetypeTableRecord
  2
CENTER
 70
     0
  3
Center ____ _ ____ _ ____ _ ____ _ ____ _ ____
 72
    65
 73
     4
 40
1.016
 49
0.635
 74
     0
 49
-0.127
 74
     0
 49
0.127
 74
     0
 49
-0.127
 74
     0
  0
LTYPE
  5
6D
330
5
100
AcDbSymbolTableRecord
100
AcDbLinetypeTableRecord
  2
CENTERX2
 70
     0
  3
Center (2x) ________  __  ________  __  _____
 72
    65
 73
     4
 40
2.032
 49
1.27
 74
     0
 49
-0.254
 74
     0
 49
0.254
 74
     0
 49
-0.254
 74
     0
  0
LTYPE
  5
6E
330
5
100
AcDbSymbolTableRecord
100
AcDbLinetypeTableRecord
  2
DOT2
 70
     0
  3
Dot (.5x) ........................................
 72
    65
 73
     2
 40
0.0635
 49
0.0
 74
     0
 49
-0.0635
 74
     0
  0
ENDTAB
  0
TABLE
  2
LAYER
  5
2
330
0
100
AcDbSymbolTable
 70
     2
  0
LAYER
  5
10
330
2
100
AcDbSymbolTableRecord
100
AcDbLayerTableRecord
  2
0
 70
     0
 62
     7
  6
Continuous
370
    -3
390
F
  0
LAYER
  5
6F
330
2
100
AcDbSymbolTableRecord
100
AcDbLayerTableRecord
  2
FORMAT
 70
     0
 62
     7
  6
Continuous
370
    -3
390
F
  0
ENDTAB
  0
TABLE
  2
STYLE
  5
3
330
0
100
AcDbSymbolTable
 70
     5
  0
STYLE
  5
11
330
3
100
AcDbSymbolTableRecord
100
AcDbTextStyleTableRecord
  2
Standard
 70
     0
 40
0.0
 41
1.0
 50
0.0
 71
     0
 42
0.3175
  3
txt
  4

  0
STYLE
  5
92
330
3
100
AcDbSymbolTableRecord
100
AcDbTextStyleTableRecord
  2
SLDTEXTSTYLE0
 70
     0
 40
0.0
 41
0.75
 50
0.0
 71
     0
 42
0.3175
  3
TXT
  4

  0
STYLE
  5
97
330
3
100
AcDbSymbolTableRecord
100
AcDbTextStyleTableRecord
  2
SLDTEXTSTYLE1
 70
     0
 40
0.0
 41
0.6875
 50
0.0
 71
     0
 42
0.3175
  3
TXT
  4

  0
STYLE
  5
9F
330
3
100
AcDbSymbolTableRecord
100
AcDbTextStyleTableRecord
  2
SLDTEXTSTYLE2
 70
     0
 40
0.0
 41
0.6944444444
 50
0.0
 71
     0
 42
0.3175
  3
TXT
  4

  0
STYLE
  5
A4
330
3
100
AcDbSymbolTableRecord
100
AcDbTextStyleTableRecord
  2
SLDTEXTSTYLE3
 70
     0
 40
0.0
 41
0.663
 50
0.0
 71
     0
 42
0.3175
  3
TXT
  4

  0
ENDTAB
  0
TABLE
  2
VIEW
  5
6
330
0
100
AcDbSymbolTable
 70
     0
  0
ENDTAB
  0
TABLE
  2
UCS
  5
7
330
0
100
AcDbSymbolTable
 70
     0
  0
ENDTAB
  0
TABLE
  2
APPID
  5
9
330
0
100
AcDbSymbolTable
 70
     1
  0
APPID
  5
12
330
9
100
AcDbSymbolTableRecord
100
AcDbRegAppTableRecord
  2
ACAD
 70
     0
  0
ENDTAB
  0
TABLE
  2
DIMSTYLE
  5
A
330
0
100
AcDbSymbolTable
 70
     6
100
AcDbDimStyleTable
  0
DIMSTYLE
105
27
330
A
100
AcDbSymbolTableRecord
100
AcDbDimStyleTableRecord
  2
ISO-25
 70
     0
 41
2.5
 42
0.625
 43
3.75
 44
1.25
 73
     0
 74
     0
 77
     1
 78
     8
140
2.5
141
2.5
143
0.0393700787
147
0.625
171
     3
172
     1
178
     0
271
     2
272
     2
274
     3
278
    44
283
     0
284
     8
340
11
  0
DIMSTYLE
105
F2
102
{ACAD_REACTORS
330
F1
330
107
330
11C
330
131
330
1D7
102
}
330
A
100
AcDbSymbolTableRecord
100
AcDbDimStyleTableRecord
  2
SLDDIMSTYLE0
 70
     0
 41
0.3302
 44
0.0
 45
0.000000001
 78
    12
 79
     3
140
0.3175
143
0.3937007874
144
5.0
147
0.079375
148
0.000000001
170
     1
173
     1
178
     0
271
     2
272
     2
276
     2
284
    12
340
92
  0
DIMSTYLE
105
1C3
102
{ACAD_REACTORS
330
1C2
102
}
330
A
100
AcDbSymbolTableRecord
100
AcDbDimStyleTableRecord
  2
SLDDIMSTYLE1
 70
     0
 41
0.3302
 44
0.0
 45
0.000000001
 78
     8
 79
     2
140
0.3175
143
0.3937007874
144
5.0
147
0.079375
148
0.000000001
170
     1
172
     1
173
     1
178
     0
271
     2
272
     2
276
     2
284
    12
289
     0
340
92
  0
DIMSTYLE
105
21F
102
{ACAD_REACTORS
330
21E
330
22F
102
}
330
A
100
AcDbSymbolTableRecord
100
AcDbDimStyleTableRecord
  2
SLDDIMSTYLE2
 70
     0
 41
0.3302
 44
0.0
 45
0.000000001
 78
     8
 79
     2
140
0.3175
141
0.0
143
0.3937007874
144
5.0
147
0.079375
148
0.000000001
170
     1
173
     1
178
     0
271
     2
272
     2
276
     2
284
    12
340
92
  0
DIMSTYLE
105
240
102
{ACAD_REACTORS
330
23F
102
}
330
A
100
AcDbSymbolTableRecord
100
AcDbDimStyleTableRecord
  2
SLDDIMSTYLE3
 70
     0
 41
0.3302
 44
0.0
 45
0.000000001
 78
    12
 79
     3
140
0.3175
141
0.0
143
0.3937007874
144
5.0
147
0.079375
148
0.000000001
170
     1
173
     1
178
     0
271
     2
272
     2
276
     2
284
    12
340
92
  0
DIMSTYLE
105
250
102
{ACAD_REACTORS
330
24F
102
}
330
A
100
AcDbSymbolTableRecord
100
AcDbDimStyleTableRecord
  2
SLDDIMSTYLE4
 70
     0
 41
0.3302
 44
0.0
 45
0.000000001
 78
    12
 79
     3
140
0.3175
141
0.0
143
0.3937007874
144
5.0
147
0.079375
148
0.000000001
170
     1
173
     1
178
     0
271
     2
272
     2
276
     2
279
     1
284
    12
340
92
  0
ENDTAB
  0
TABLE
  2
BLOCK_RECORD
  5
1
330
0
100
AcDbSymbolTable
 70
    32
  0
BLOCK_RECORD
  5
1F
330
1
100
AcDbSymbolTableRecord
100
AcDbBlockTableRecord
  2
*Model_Space
340
22
  0
BLOCK_RECORD
  5
1B
330
1
100
AcDbSymbolTableRecord
100
AcDbBlockTableRecord
  2
*Paper_Space
340
1E
  0
BLOCK_RECORD
  5
23
330
1
100
AcDbSymbolTableRecord
100
AcDbBlockTableRecord
  2
*Paper_Space0
340
26
  0
BLOCK_RECORD
  5
B1
330
1
100
AcDbSymbolTableRecord
100
AcDbBlockTableRecord
  2
SW_NOTE_0
340
0
102
{BLKREFS
331
B7
102
}
  0
BLOCK_RECORD
  5
F3
330
1
100
AcDbSymbolTableRecord
100
AcDbBlockTableRecord
  2
_D
340
0
  0
BLOCK_RECORD
  5
108
330
1
100
AcDbSymbolTableRecord
100
AcDbBlockTableRecord
  2
_D_1
340
0
  0
BLOCK_RECORD
  5
11D
330
1
100
AcDbSymbolTableRecord
100
AcDbBlockTableRecord
  2
_D_2
340
0
  0
BLOCK_RECORD
  5
132
330
1
100
AcDbSymbolTableRecord
100
AcDbBlockTableRecord
  2
_D_3
340
0
  0
BLOCK_RECORD
  5
146
330
1
100
AcDbSymbolTableRecord
100
AcDbBlockTableRecord
  2
SW_CENTERMARKSYMBOL_0
340
0
102
{BLKREFS
331
151
102
}
  0
BLOCK_RECORD
  5
152
330
1
100
AcDbSymbolTableRecord
100
AcDbBlockTableRecord
  2
SW_CENTERMARKSYMBOL_1
340
0
102
{BLKREFS
331
15D
102
}
  0
BLOCK_RECORD
  5
15E
330
1
100
AcDbSymbolTableRecord
100
AcDbBlockTableRecord
  2
SW_CENTERMARKSYMBOL_2
340
0
102
{BLKREFS
331
169
102
}
  0
BLOCK_RECORD
  5
16A
330
1
100
AcDbSymbolTableRecord
100
AcDbBlockTableRecord
  2
SW_CENTERMARKSYMBOL_3
340
0
102
{BLKREFS
331
175
102
}
  0
BLOCK_RECORD
  5
176
330
1
100
AcDbSymbolTableRecord
100
AcDbBlockTableRecord
  2
SW_CENTERMARKSYMBOL_4
340
0
102
{BLKREFS
331
181
102
}
  0
BLOCK_RECORD
  5
182
330
1
100
AcDbSymbolTableRecord
100
AcDbBlockTableRecord
  2
SW_CENTERMARKSYMBOL_5
340
0
102
{BLKREFS
331
18D
102
}
  0
BLOCK_RECORD
  5
18E
330
1
100
AcDbSymbolTableRecord
100
AcDbBlockTableRecord
  2
SW_CENTERMARKSYMBOL_6
340
0
102
{BLKREFS
331
199
102
}
  0
BLOCK_RECORD
  5
19A
330
1
100
AcDbSymbolTableRecord
100
AcDbBlockTableRecord
  2
SW_CENTERMARKSYMBOL_7
340
0
102
{BLKREFS
331
1A5
102
}
  0
BLOCK_RECORD
  5
1A6
330
1
100
AcDbSymbolTableRecord
100
AcDbBlockTableRecord
  2
SW_CENTERMARKSYMBOL_8
340
0
102
{BLKREFS
331
1B1
102
}
  0
BLOCK_RECORD
  5
1B2
330
1
100
AcDbSymbolTableRecord
100
AcDbBlockTableRecord
  2
SW_CENTERMARKSYMBOL_9
340
0
102
{BLKREFS
331
1BD
102
}
  0
BLOCK_RECORD
  5
1C4
330
1
100
AcDbSymbolTableRecord
100
AcDbBlockTableRecord
  2
_D_4
340
0
  0
BLOCK_RECORD
  5
1D8
330
1
100
AcDbSymbolTableRecord
100
AcDbBlockTableRecord
  2
_D_5
340
0
  0
BLOCK_RECORD
  5
220
330
1
100
AcDbSymbolTableRecord
100
AcDbBlockTableRecord
  2
_D_6
340
0
  0
BLOCK_RECORD
  5
230
330
1
100
AcDbSymbolTableRecord
100
AcDbBlockTableRecord
  2
_D_7
340
0
  0
BLOCK_RECORD
  5
241
330
1
100
AcDbSymbolTableRecord
100
AcDbBlockTableRecord
  2
_D_8
340
0
  0
BLOCK_RECORD
  5
251
330
1
100
AcDbSymbolTableRecord
100
AcDbBlockTableRecord
  2
_D_9
340
0
  0
BLOCK_RECORD
  5
260
330
1
100
AcDbSymbolTableRecord
100
AcDbBlockTableRecord
  2
SW_CENTERMARKSYMBOL_10
340
0
102
{BLKREFS
331
26B
102
}
  0
BLOCK_RECORD
  5
26C
330
1
100
AcDbSymbolTableRecord
100
AcDbBlockTableRecord
  2
SW_CENTERMARKSYMBOL_11
340
0
102
{BLKREFS
331
277
102
}
  0
BLOCK_RECORD
  5
278
330
1
100
AcDbSymbolTableRecord
100
AcDbBlockTableRecord
  2
SW_CENTERMARKSYMBOL_12
340
0
102
{BLKREFS
331
283
102
}
  0
BLOCK_RECORD
  5
284
330
1
100
AcDbSymbolTableRecord
100
AcDbBlockTableRecord
  2
SW_CENTERMARKSYMBOL_13
340
0
102
{BLKREFS
331
28F
102
}
  0
BLOCK_RECORD
  5
290
330
1
100
AcDbSymbolTableRecord
100
AcDbBlockTableRecord
  2
SW_CENTERMARKSYMBOL_14
340
0
102
{BLKREFS
331
29B
102
}
  0
BLOCK_RECORD
  5
29C
330
1
100
AcDbSymbolTableRecord
100
AcDbBlockTableRecord
  2
SW_CENTERMARKSYMBOL_15
340
0
102
{BLKREFS
331
2A7
102
}
  0
BLOCK_RECORD
  5
2A8
330
1
100
AcDbSymbolTableRecord
100
AcDbBlockTableRecord
  2
SW_CENTERMARKSYMBOL_16
340
0
102
{BLKREFS
331
2B3
102
}
  0
BLOCK_RECORD
  5
2B4
330
1
100
AcDbSymbolTableRecord
100
AcDbBlockTableRecord
  2
SW_CENTERMARKSYMBOL_17
340
0
102
{BLKREFS
331
2BF
102
}
  0
BLOCK_RECORD
  5
2C0
330
1
100
AcDbSymbolTableRecord
100
AcDbBlockTableRecord
  2
SW_CENTERMARKSYMBOL_18
340
0
102
{BLKREFS
331
2CB
102
}
  0
BLOCK_RECORD
  5
2CC
330
1
100
AcDbSymbolTableRecord
100
AcDbBlockTableRecord
  2
SW_CENTERMARKSYMBOL_19
340
0
102
{BLKREFS
331
2D7
102
}
  0
ENDTAB
  0
ENDSEC
  0
SECTION
  2
BLOCKS
  0
BLOCK
  5
20
330
1F
100
AcDbEntity
  8
0
100
AcDbBlockBegin
  2
*Model_Space
 70
     0
 10
0.0
 20
0.0
 30
0.0
  3
*Model_Space
  1
*Model_Space
  0
ENDBLK
  5
21
330
1F
100
AcDbEntity
  8
0
100
AcDbBlockEnd
  0
BLOCK
  5
1C
330
1B
100
AcDbEntity
 67
     1
  8
0
100
AcDbBlockBegin
  2
*Paper_Space
 70
     0
 10
0.0
 20
0.0
 30
0.0
  3
*Paper_Space
  1
*Paper_Space
  0
ENDBLK
  5
1D
330
1B
100
AcDbEntity
 67
     1
  8
0
100
AcDbBlockEnd
  0
BLOCK
  5
24
330
23
100
AcDbEntity
  8
0
100
AcDbBlockBegin
  2
*Paper_Space0
 70
     0
 10
0.0
 20
0.0
 30
0.0
  3
*Paper_Space0
  1
*Paper_Space0
  0
ENDBLK
  5
25
330
23
100
AcDbEntity
  8
0
100
AcDbBlockEnd
  0
BLOCK
  5
B2
330
B1
100
AcDbEntity
  8
0
100
AcDbBlockBegin
  2
SW_NOTE_0
 70
     0
 10
0.0
 20
0.0
 30
0.0
  3
SW_NOTE_0
  1
SW_NOTE_0
  0
MTEXT
  5
B4
330
B1
100
AcDbEntity
  8
0
  6
Continuous
 62
     0
370
     0
100
AcDbMText
 10
0.0
 20
0.2128250838
 30
0.0
 40
0.1651
 41
0.0
 71
     1
 72
     1
  1
DIMENSIONS ARE IN
  7
SLDTEXTSTYLE0
 73
     1
 44
1.0
  0
MTEXT
  5
B5
330
B1
100
AcDbEntity
  8
0
  6
Continuous
 62
     0
370
     0
100
AcDbMText
 10
0.0
 20
-0.0522749091
 30
0.0
 40
0.1651
 41
0.0
 71
     1
 72
     1
  1
CENTIMETERS [INCHES]
  7
SLDTEXTSTYLE0
 73
     1
 44
1.0
  0
MTEXT
  5
B6
330
B1
100
AcDbEntity
  8
0
  6
Continuous
 62
     0
370
     0
100
AcDbMText
 10
0.0
 20
-0.5824748951
 30
0.0
 40
0.1651
 41
0.0
 71
     1
 72
     1
  1
TOLERANCES: 10 MILS
  7
SLDTEXTSTYLE0
 73
     1
 44
1.0
  0
ENDBLK
  5
B3
330
B1
100
AcDbEntity
  8
0
100
AcDbBlockEnd
  0
BLOCK
  5
F4
330
F3
100
AcDbEntity
  8
0
100
AcDbBlockBegin
  2
_D
 70
     0
 10
0.0
 20
0.0
 30
0.0
  3
_D
  1
_D
  0
SOLID
  5
F6
330
F3
100
AcDbEntity
  8
0
  6
Continuous
 62
     7
370
     0
100
AcDbTrace
 10
10.3931524032
 20
12.9862986082
 30
0.0
 11
10.3397585269
 21
12.6565081081
 31
0.0
 12
10.4413553882
 22
12.6557095094
 32
0.0
 13
10.4413553882
 23
12.6557095094
 33
0.0
  0
SOLID
  5
F7
330
F3
100
AcDbEntity
  8
0
  6
Continuous
 62
     7
370
     0
100
AcDbTrace
 10
10.3847199781
 20
11.9135345787
 30
0.0
 11
10.4381138545
 21
12.2433250789
 31
0.0
 12
10.3365169931
 22
12.2441236775
 32
0.0
 13
10.3365169931
 23
12.2441236775
 33
0.0
  0
LINE
  5
F8
330
F3
100
AcDbEntity
  8
0
  6
Continuous
 62
     7
370
     0
100
AcDbLine
 10
11.2416052603
 20
11.3181301572
 30
0.0
 11
11.1771130754
 21
11.3181301572
 31
0.0
  0
LINE
  5
F9
330
F3
100
AcDbEntity
  8
0
  6
Continuous
 62
     7
370
     0
100
AcDbLine
 10
11.1771130754
 20
11.3181301572
 30
0.0
 11
11.1771130754
 21
10.8140988921
 31
0.0
  0
LINE
  5
FA
330
F3
100
AcDbEntity
  8
0
  6
Continuous
 62
     7
370
     0
100
AcDbLine
 10
11.1771130754
 20
10.8140988921
 30
0.0
 11
11.2416052603
 21
10.8140988921
 31
0.0
  0
LINE
  5
FB
330
F3
100
AcDbEntity
  8
0
  6
Continuous
 62
     7
370
     0
100
AcDbLine
 10
12.2239260346
 20
11.3181301572
 30
0.0
 11
12.2884182195
 21
11.3181301572
 31
0.0
  0
LINE
  5
FC
330
F3
100
AcDbEntity
  8
0
  6
Continuous
 62
     7
370
     0
100
AcDbLine
 10
12.2884182195
 20
11.3181301572
 30
0.0
 11
12.2884182195
 21
10.8140988921
 31
0.0
  0
LINE
  5
FD
330
F3
100
AcDbEntity
  8
0
  6
Continuous
 62
     7
370
     0
100
AcDbLine
 10
12.2884182195
 20
10.8140988921
 30
0.0
 11
12.2239260346
 21
10.8140988921
 31
0.0
  0
LINE
  5
FE
330
F3
100
AcDbEntity
  8
0
  6
Continuous
 62
     7
370
     0
100
AcDbLine
 10
7.5297160422
 20
13.0088065521
 30
0.0
 11
10.710642595
 21
12.9838029874
 31
0.0
  0
LINE
  5
FF
330
F3
100
AcDbEntity
  8
0
  6
Continuous
 62
     7
370
     0
100
AcDbLine
 10
7.5212836171
 20
11.9360425226
 30
0.0
 11
10.7022101699
 21
11.9110389579
 31
0.0
  0
LINE
  5
100
330
F3
100
AcDbEntity
  8
0
  6
Continuous
 62
     7
370
     0
100
AcDbLine
 10
10.3931524032
 20
12.9862986082
 30
0.0
 11
10.3847199781
 21
11.9135345787
 31
0.0
  0
LINE
  5
101
330
F3
100
AcDbEntity
  8
0
  6
Continuous
 62
     7
370
     0
100
AcDbLine
 10
10.3847199781
 20
11.9135345787
 30
0.0
 11
10.3764453238
 21
10.8608419721
 31
0.0
  0
LINE
  5
102
330
F3
100
AcDbEntity
  8
0
  6
Continuous
 62
     7
370
     0
100
AcDbLine
 10
10.3764453238
 20
10.8608419721
 30
0.0
 11
11.0114453238
 21
10.8608419721
 31
0.0
  0
MTEXT
  5
103
330
F3
100
AcDbEntity
  8
0
  6
Continuous
 62
     7
370
     0
100
AcDbMText
 10
11.1305078238
 20
10.7531912576
 30
0.0
 40
0.3175
 41
0.0
 71
     1
 72
     1
  1

  7
SLDTEXTSTYLE0
 73
     1
 44
1.0
  0
MTEXT
  5
104
330
F3
100
AcDbEntity
  8
0
  6
Continuous
 62
     7
370
     0
100
AcDbMText
 10
11.3222204958
 20
11.2233779344
 30
0.0
 40
0.3175
 41
0.0
 71
     1
 72
     1
  1
2.11
  7
SLDTEXTSTYLE0
 73
     1
 44
1.0
  0
MTEXT
  5
105
330
F3
100
AcDbEntity
  8
0
  6
Continuous
 62
     7
370
     0
100
AcDbMText
 10
11.3222204725
 20
10.7483405862
 30
0.0
 40
0.3175
 41
0.0
 71
     1
 72
     1
  1
5.36
  7
SLDTEXTSTYLE0
 73
     1
 44
1.0
  0
MTEXT
  5
106
330
F3
100
AcDbEntity
  8
0
  6
Continuous
 62
     7
370
     0
100
AcDbMText
 10
12.4558497898
 20
10.7531912576
 30
0.0
 40
0.3175
 41
0.0
 71
     1
 72
     1
  1

  7
SLDTEXTSTYLE0
 73
     1
 44
1.0
  0
ENDBLK
  5
F5
330
F3
100
AcDbEntity
  8
0
100
AcDbBlockEnd
  0
BLOCK
  5
109
330
108
100
AcDbEntity
  8
0
100
AcDbBlockBegin
  2
_D_1
 70
     0
 10
0.0
 20
0.0
 30
0.0
  3
_D_1
  1
_D_1
  0
SOLID
  5
10B
330
108
100
AcDbEntity
  8
0
  6
Continuous
 62
     7
370
     0
100
AcDbTrace
 10
5.1096962285
 20
11.4290564641
 30
0.0
 11
5.1604962285
 21
11.7592564641
 31
0.0
 12
5.0588962285
 22
11.7592564641
 32
0.0
 13
5.0588962285
 23
11.7592564641
 33
0.0
  0
SOLID
  5
10C
330
108
100
AcDbEntity
  8
0
  6
Continuous
 62
     7
370
     0
100
AcDbTrace
 10
5.1096962285
 20
12.4450250778
 30
0.0
 11
5.0588962285
 21
12.1148250778
 31
0.0
 12
5.1604962285
 22
12.1148250778
 32
0.0
 13
5.1604962285
 23
12.1148250778
 33
0.0
  0
LINE
  5
10D
330
108
100
AcDbEntity
  8
0
  6
Continuous
 62
     7
370
     0
100
AcDbLine
 10
3.0689388253
 20
11.3181301572
 30
0.0
 11
3.0044466404
 21
11.3181301572
 31
0.0
  0
LINE
  5
10E
330
108
100
AcDbEntity
  8
0
  6
Continuous
 62
     7
370
     0
100
AcDbLine
 10
3.0044466404
 20
11.3181301572
 30
0.0
 11
3.0044466404
 21
10.8140988921
 31
0.0
  0
LINE
  5
10F
330
108
100
AcDbEntity
  8
0
  6
Continuous
 62
     7
370
     0
100
AcDbLine
 10
3.0044466404
 20
10.8140988921
 30
0.0
 11
3.0689388253
 21
10.8140988921
 31
0.0
  0
LINE
  5
110
330
108
100
AcDbEntity
  8
0
  6
Continuous
 62
     7
370
     0
100
AcDbLine
 10
4.0512595996
 20
11.3181301572
 30
0.0
 11
4.1157517845
 21
11.3181301572
 31
0.0
  0
LINE
  5
111
330
108
100
AcDbEntity
  8
0
  6
Continuous
 62
     7
370
     0
100
AcDbLine
 10
4.1157517845
 20
11.3181301572
 30
0.0
 11
4.1157517845
 21
10.8140988921
 31
0.0
  0
LINE
  5
112
330
108
100
AcDbEntity
  8
0
  6
Continuous
 62
     7
370
     0
100
AcDbLine
 10
4.1157517845
 20
10.8140988921
 30
0.0
 11
4.0512595996
 21
10.8140988921
 31
0.0
  0
LINE
  5
113
330
108
100
AcDbEntity
  8
0
  6
Continuous
 62
     7
370
     0
100
AcDbLine
 10
7.2632945471
 20
11.4290564641
 30
0.0
 11
4.7921962285
 21
11.4290564641
 31
0.0
  0
LINE
  5
114
330
108
100
AcDbEntity
  8
0
  6
Continuous
 62
     7
370
     0
100
AcDbLine
 10
7.2712805337
 20
12.4450250778
 30
0.0
 11
4.7921962285
 21
12.4450250778
 31
0.0
  0
LINE
  5
115
330
108
100
AcDbEntity
  8
0
  6
Continuous
 62
     7
370
     0
100
AcDbLine
 10
4.4746962285
 20
10.8608419721
 30
0.0
 11
5.1096962285
 21
10.8608419721
 31
0.0
  0
LINE
  5
116
330
108
100
AcDbEntity
  8
0
  6
Continuous
 62
     7
370
     0
100
AcDbLine
 10
5.1096962285
 20
10.8608419721
 30
0.0
 11
5.1096962285
 21
11.4290564641
 31
0.0
  0
LINE
  5
117
330
108
100
AcDbEntity
  8
0
  6
Continuous
 62
     7
370
     0
100
AcDbLine
 10
5.1096962285
 20
11.4290564641
 30
0.0
 11
5.1096962285
 21
12.4450250778
 31
0.0
  0
MTEXT
  5
118
330
108
100
AcDbEntity
  8
0
  6
Continuous
 62
     7
370
     0
100
AcDbMText
 10
2.9578413888
 20
10.7531912576
 30
0.0
 40
0.3175
 41
0.0
 71
     1
 72
     1
  1

  7
SLDTEXTSTYLE0
 73
     1
 44
1.0
  0
MTEXT
  5
119
330
108
100
AcDbEntity
  8
0
  6
Continuous
 62
     7
370
     0
100
AcDbMText
 10
3.1495540608
 20
11.2233779344
 30
0.0
 40
0.3175
 41
0.0
 71
     1
 72
     1
  1
2.00
  7
SLDTEXTSTYLE0
 73
     1
 44
1.0
  0
MTEXT
  5
11A
330
108
100
AcDbEntity
  8
0
  6
Continuous
 62
     7
370
     0
100
AcDbMText
 10
3.1495540375
 20
10.7483405862
 30
0.0
 40
0.3175
 41
0.0
 71
     1
 72
     1
  1
5.08
  7
SLDTEXTSTYLE0
 73
     1
 44
1.0
  0
MTEXT
  5
11B
330
108
100
AcDbEntity
  8
0
  6
Continuous
 62
     7
370
     0
100
AcDbMText
 10
4.2831833548
 20
10.7531912576
 30
0.0
 40
0.3175
 41
0.0
 71
     1
 72
     1
  1

  7
SLDTEXTSTYLE0
 73
     1
 44
1.0
  0
ENDBLK
  5
10A
330
108
100
AcDbEntity
  8
0
100
AcDbBlockEnd
  0
BLOCK
  5
11E
330
11D
100
AcDbEntity
  8
0
100
AcDbBlockBegin
  2
_D_2
 70
     0
 10
0.0
 20
0.0
 30
0.0
  3
_D_2
  1
_D_2
  0
SOLID
  5
120
330
11D
100
AcDbEntity
  8
0
  6
Continuous
 62
     7
370
     0
100
AcDbTrace
 10
9.4532355516
 20
9.8502904613
 30
0.0
 11
9.1409316624
 21
9.7316356645
 31
0.0
 12
9.1910384864
 22
9.6432509023
 32
0.0
 13
9.1910384864
 23
9.6432509023
 33
0.0
  0
SOLID
  5
121
330
11D
100
AcDbEntity
  8
0
  6
Continuous
 62
     7
370
     0
100
AcDbTrace
 10
8.790349835
 20
9.4744892816
 30
0.0
 11
9.1026537242
 21
9.5931440783
 31
0.0
 12
9.0525469002
 22
9.6815288406
 32
0.0
 13
9.0525469002
 23
9.6815288406
 33
0.0
  0
LINE
  5
122
330
11D
100
AcDbEntity
  8
0
  6
Continuous
 62
     7
370
     0
100
AcDbLine
 10
5.6061951273
 20
9.1739942061
 30
0.0
 11
5.5417029424
 21
9.1739942061
 31
0.0
  0
LINE
  5
123
330
11D
100
AcDbEntity
  8
0
  6
Continuous
 62
     7
370
     0
100
AcDbLine
 10
5.5417029424
 20
9.1739942061
 30
0.0
 11
5.5417029424
 21
8.6699629409
 31
0.0
  0
LINE
  5
124
330
11D
100
AcDbEntity
  8
0
  6
Continuous
 62
     7
370
     0
100
AcDbLine
 10
5.5417029424
 20
8.6699629409
 30
0.0
 11
5.6061951273
 21
8.6699629409
 31
0.0
  0
LINE
  5
125
330
11D
100
AcDbEntity
  8
0
  6
Continuous
 62
     7
370
     0
100
AcDbLine
 10
6.5885159016
 20
9.1739942061
 30
0.0
 11
6.6530080865
 21
9.1739942061
 31
0.0
  0
LINE
  5
126
330
11D
100
AcDbEntity
  8
0
  6
Continuous
 62
     7
370
     0
100
AcDbLine
 10
6.6530080865
 20
9.1739942061
 30
0.0
 11
6.6530080865
 21
8.6699629409
 31
0.0
  0
LINE
  5
127
330
11D
100
AcDbEntity
  8
0
  6
Continuous
 62
     7
370
     0
100
AcDbLine
 10
6.6530080865
 20
8.6699629409
 30
0.0
 11
6.5885159016
 21
8.6699629409
 31
0.0
  0
LINE
  5
128
330
11D
100
AcDbEntity
  8
0
  6
Continuous
 62
     7
370
     0
100
AcDbLine
 10
8.119806787
 20
12.2023609978
 30
0.0
 11
9.6098193765
 21
9.5740880793
 31
0.0
  0
LINE
  5
129
330
11D
100
AcDbEntity
  8
0
  6
Continuous
 62
     7
370
     0
100
AcDbLine
 10
7.4569210703
 20
11.8265598182
 30
0.0
 11
8.9469336598
 21
9.1982868997
 31
0.0
  0
LINE
  5
12A
330
11D
100
AcDbEntity
  8
0
  6
Continuous
 62
     7
370
     0
100
AcDbLine
 10
9.4532355516
 20
9.8502904613
 30
0.0
 11
8.790349835
 21
9.4744892816
 31
0.0
  0
LINE
  5
12B
330
11D
100
AcDbEntity
  8
0
  6
Continuous
 62
     7
370
     0
100
AcDbLine
 10
8.790349835
 20
9.4744892816
 30
0.0
 11
7.453675745
 21
8.7167060209
 31
0.0
  0
LINE
  5
12C
330
11D
100
AcDbEntity
  8
0
  6
Continuous
 62
     7
370
     0
100
AcDbLine
 10
7.453675745
 20
8.7167060209
 30
0.0
 11
6.818675745
 21
8.7167060209
 31
0.0
  0
MTEXT
  5
12D
330
11D
100
AcDbEntity
  8
0
  6
Continuous
 62
     7
370
     0
100
AcDbMText
 10
5.4950976908
 20
8.6090553064
 30
0.0
 40
0.3175
 41
0.0
 71
     1
 72
     1
  1

  7
SLDTEXTSTYLE0
 73
     1
 44
1.0
  0
MTEXT
  5
12E
330
11D
100
AcDbEntity
  8
0
  6
Continuous
 62
     7
370
     0
100
AcDbMText
 10
5.6868103628
 20
9.0792419832
 30
0.0
 40
0.3175
 41
0.0
 71
     1
 72
     1
  1
1.50
  7
SLDTEXTSTYLE0
 73
     1
 44
1.0
  0
MTEXT
  5
12F
330
11D
100
AcDbEntity
  8
0
  6
Continuous
 62
     7
370
     0
100
AcDbMText
 10
5.6868103395
 20
8.604204635
 30
0.0
 40
0.3175
 41
0.0
 71
     1
 72
     1
  1
3.81
  7
SLDTEXTSTYLE0
 73
     1
 44
1.0
  0
MTEXT
  5
130
330
11D
100
AcDbEntity
  8
0
  6
Continuous
 62
     7
370
     0
100
AcDbMText
 10
6.8204396568
 20
8.6090553064
 30
0.0
 40
0.3175
 41
0.0
 71
     1
 72
     1
  1

  7
SLDTEXTSTYLE0
 73
     1
 44
1.0
  0
ENDBLK
  5
11F
330
11D
100
AcDbEntity
  8
0
100
AcDbBlockEnd
  0
BLOCK
  5
133
330
132
100
AcDbEntity
  8
0
100
AcDbBlockBegin
  2
_D_3
 70
     0
 10
0.0
 20
0.0
 30
0.0
  3
_D_3
  1
_D_3
  0
SOLID
  5
135
330
132
100
AcDbEntity
  8
0
  6
Continuous
 62
     7
370
     0
100
AcDbTrace
 10
8.0175765971
 20
14.8635193159
 30
0.0
 11
8.27648661
 21
14.6523836125
 31
0.0
 12
8.3279766474
 22
14.7399697761
 32
0.0
 13
8.3279766474
 23
14.7399697761
 33
0.0
  0
SOLID
  5
136
330
132
100
AcDbEntity
  8
0
  6
Continuous
 62
     7
370
     0
100
AcDbTrace
 10
8.8329185819
 20
14.3841971536
 30
0.0
 11
8.5740085691
 21
14.595332857
 31
0.0
 12
8.5225185317
 22
14.5077466934
 32
0.0
 13
8.5225185317
 23
14.5077466934
 33
0.0
  0
LINE
  5
137
330
132
100
AcDbEntity
  8
0
  6
Continuous
 62
     7
370
     0
100
AcDbLine
 10
10.0313396531
 20
14.6455682259
 30
0.0
 11
9.9668474682
 21
14.6455682259
 31
0.0
  0
LINE
  5
138
330
132
100
AcDbEntity
  8
0
  6
Continuous
 62
     7
370
     0
100
AcDbLine
 10
9.9668474682
 20
14.6455682259
 30
0.0
 11
9.9668474682
 21
14.1415369607
 31
0.0
  0
LINE
  5
139
330
132
100
AcDbEntity
  8
0
  6
Continuous
 62
     7
370
     0
100
AcDbLine
 10
9.9668474682
 20
14.1415369607
 30
0.0
 11
10.0313396531
 21
14.1415369607
 31
0.0
  0
LINE
  5
13A
330
132
100
AcDbEntity
  8
0
  6
Continuous
 62
     7
370
     0
100
AcDbLine
 10
11.0136604274
 20
14.6455682259
 30
0.0
 11
11.0781526123
 21
14.6455682259
 31
0.0
  0
LINE
  5
13B
330
132
100
AcDbEntity
  8
0
  6
Continuous
 62
     7
370
     0
100
AcDbLine
 10
11.0781526123
 20
14.6455682259
 30
0.0
 11
11.0781526123
 21
14.1415369607
 31
0.0
  0
LINE
  5
13C
330
132
100
AcDbEntity
  8
0
  6
Continuous
 62
     7
370
     0
100
AcDbLine
 10
11.0781526123
 20
14.1415369607
 30
0.0
 11
11.0136604274
 21
14.1415369607
 31
0.0
  0
LINE
  5
13D
330
132
100
AcDbEntity
  8
0
  6
Continuous
 62
     7
370
     0
100
AcDbLine
 10
6.6433081024
 20
12.5258456377
 30
0.0
 11
8.178482964
 21
15.137226077
 31
0.0
  0
LINE
  5
13E
330
132
100
AcDbEntity
  8
0
  6
Continuous
 62
     7
370
     0
100
AcDbLine
 10
7.4586500872
 20
12.0465234754
 30
0.0
 11
8.9938249489
 21
14.6579039147
 31
0.0
  0
LINE
  5
13F
330
132
100
AcDbEntity
  8
0
  6
Continuous
 62
     7
370
     0
100
AcDbLine
 10
8.0175765971
 20
14.8635193159
 30
0.0
 11
8.8329185819
 21
14.3841971536
 31
0.0
  0
LINE
  5
140
330
132
100
AcDbEntity
  8
0
  6
Continuous
 62
     7
370
     0
100
AcDbLine
 10
8.8329185819
 20
14.3841971536
 30
0.0
 11
9.1661797166
 21
14.1882800407
 31
0.0
  0
LINE
  5
141
330
132
100
AcDbEntity
  8
0
  6
Continuous
 62
     7
370
     0
100
AcDbLine
 10
9.1661797166
 20
14.1882800407
 30
0.0
 11
9.8011797166
 21
14.1882800407
 31
0.0
  0
MTEXT
  5
142
330
132
100
AcDbEntity
  8
0
  6
Continuous
 62
     7
370
     0
100
AcDbMText
 10
9.9202422166
 20
14.0806293262
 30
0.0
 40
0.3175
 41
0.0
 71
     1
 72
     1
  1

  7
SLDTEXTSTYLE0
 73
     1
 44
1.0
  0
MTEXT
  5
143
330
132
100
AcDbEntity
  8
0
  6
Continuous
 62
     7
370
     0
100
AcDbMText
 10
10.1119548886
 20
14.550816003
 30
0.0
 40
0.3175
 41
0.0
 71
     1
 72
     1
  1
1.86
  7
SLDTEXTSTYLE0
 73
     1
 44
1.0
  0
MTEXT
  5
144
330
132
100
AcDbEntity
  8
0
  6
Continuous
 62
     7
370
     0
100
AcDbMText
 10
10.1119548653
 20
14.0757786548
 30
0.0
 40
0.3175
 41
0.0
 71
     1
 72
     1
  1
4.73
  7
SLDTEXTSTYLE0
 73
     1
 44
1.0
  0
MTEXT
  5
145
330
132
100
AcDbEntity
  8
0
  6
Continuous
 62
     7
370
     0
100
AcDbMText
 10
11.2455841826
 20
14.0806293262
 30
0.0
 40
0.3175
 41
0.0
 71
     1
 72
     1
  1

  7
SLDTEXTSTYLE0
 73
     1
 44
1.0
  0
ENDBLK
  5
134
330
132
100
AcDbEntity
  8
0
100
AcDbBlockEnd
  0
BLOCK
  5
147
330
146
100
AcDbEntity
  8
0
100
AcDbBlockBegin
  2
SW_CENTERMARKSYMBOL_0
 70
     0
 10
0.0
 20
0.0
 30
0.0
  3
SW_CENTERMARKSYMBOL_0
  1
SW_CENTERMARKSYMBOL_0
  0
LINE
  5
149
330
146
100
AcDbEntity
  8
0
  6
Continuous
 62
     0
370
     0
100
AcDbLine
 10
0.0
 20
0.0
 30
0.0
 11
0.0017728944
 21
0.050769054
 31
0.0
  0
LINE
  5
14A
330
146
100
AcDbEntity
  8
0
  6
Continuous
 62
     0
370
     0
100
AcDbLine
 10
0.0
 20
0.0
 30
0.0
 11
-0.050769054
 21
0.0017728944
 31
0.0
  0
LINE
  5
14B
330
146
100
AcDbEntity
  8
0
  6
Continuous
 62
     0
370
     0
100
AcDbLine
 10
0.0
 20
0.0
 30
0.0
 11
-0.0017728944
 21
-0.050769054
 31
0.0
  0
LINE
  5
14C
330
146
100
AcDbEntity
  8
0
  6
Continuous
 62
     0
370
     0
100
AcDbLine
 10
0.0
 20
0.0
 30
0.0
 11
0.050769054
 21
-0.0017728944
 31
0.0
  0
LINE
  5
14D
330
146
100
AcDbEntity
  8
0
  6
Continuous
 62
     0
370
     0
100
AcDbLine
 10
0.0035457889
 20
0.101538108
 30
0.0
 11
0.0039890125
 21
0.1142303715
 31
0.0
  0
LINE
  5
14E
330
146
100
AcDbEntity
  8
0
  6
Continuous
 62
     0
370
     0
100
AcDbLine
 10
-0.101538108
 20
0.0035457889
 30
0.0
 11
-0.1142303715
 21
0.0039890125
 31
0.0
  0
LINE
  5
14F
330
146
100
AcDbEntity
  8
0
  6
Continuous
 62
     0
370
     0
100
AcDbLine
 10
-0.0035457889
 20
-0.101538108
 30
0.0
 11
-0.0039890125
 21
-0.1142303715
 31
0.0
  0
LINE
  5
150
330
146
100
AcDbEntity
  8
0
  6
Continuous
 62
     0
370
     0
100
AcDbLine
 10
0.101538108
 20
-0.0035457889
 30
0.0
 11
0.1142303715
 21
-0.0039890125
 31
0.0
  0
ENDBLK
  5
148
330
146
100
AcDbEntity
  8
0
100
AcDbBlockEnd
  0
BLOCK
  5
153
330
152
100
AcDbEntity
  8
0
100
AcDbBlockBegin
  2
SW_CENTERMARKSYMBOL_1
 70
     0
 10
0.0
 20
0.0
 30
0.0
  3
SW_CENTERMARKSYMBOL_1
  1
SW_CENTERMARKSYMBOL_1
  0
LINE
  5
155
330
152
100
AcDbEntity
  8
0
  6
Continuous
 62
     0
370
     0
100
AcDbLine
 10
0.0
 20
0.0
 30
0.0
 11
0.0017728944
 21
0.050769054
 31
0.0
  0
LINE
  5
156
330
152
100
AcDbEntity
  8
0
  6
Continuous
 62
     0
370
     0
100
AcDbLine
 10
0.0
 20
0.0
 30
0.0
 11
-0.050769054
 21
0.0017728944
 31
0.0
  0
LINE
  5
157
330
152
100
AcDbEntity
  8
0
  6
Continuous
 62
     0
370
     0
100
AcDbLine
 10
0.0
 20
0.0
 30
0.0
 11
-0.0017728944
 21
-0.050769054
 31
0.0
  0
LINE
  5
158
330
152
100
AcDbEntity
  8
0
  6
Continuous
 62
     0
370
     0
100
AcDbLine
 10
0.0
 20
0.0
 30
0.0
 11
0.050769054
 21
-0.0017728944
 31
0.0
  0
LINE
  5
159
330
152
100
AcDbEntity
  8
0
  6
Continuous
 62
     0
370
     0
100
AcDbLine
 10
0.0035457889
 20
0.101538108
 30
0.0
 11
0.0039890125
 21
0.1142303715
 31
0.0
  0
LINE
  5
15A
330
152
100
AcDbEntity
  8
0
  6
Continuous
 62
     0
370
     0
100
AcDbLine
 10
-0.101538108
 20
0.0035457889
 30
0.0
 11
-0.1142303715
 21
0.0039890125
 31
0.0
  0
LINE
  5
15B
330
152
100
AcDbEntity
  8
0
  6
Continuous
 62
     0
370
     0
100
AcDbLine
 10
-0.0035457889
 20
-0.101538108
 30
0.0
 11
-0.0039890125
 21
-0.1142303715
 31
0.0
  0
LINE
  5
15C
330
152
100
AcDbEntity
  8
0
  6
Continuous
 62
     0
370
     0
100
AcDbLine
 10
0.101538108
 20
-0.0035457889
 30
0.0
 11
0.1142303715
 21
-0.0039890125
 31
0.0
  0
ENDBLK
  5
154
330
152
100
AcDbEntity
  8
0
100
AcDbBlockEnd
  0
BLOCK
  5
15F
330
15E
100
AcDbEntity
  8
0
100
AcDbBlockBegin
  2
SW_CENTERMARKSYMBOL_2
 70
     0
 10
0.0
 20
0.0
 30
0.0
  3
SW_CENTERMARKSYMBOL_2
  1
SW_CENTERMARKSYMBOL_2
  0
LINE
  5
161
330
15E
100
AcDbEntity
  8
0
  6
Continuous
 62
     0
370
     0
100
AcDbLine
 10
0.0
 20
0.0
 30
0.0
 11
0.0017728944
 21
0.050769054
 31
0.0
  0
LINE
  5
162
330
15E
100
AcDbEntity
  8
0
  6
Continuous
 62
     0
370
     0
100
AcDbLine
 10
0.0
 20
0.0
 30
0.0
 11
-0.050769054
 21
0.0017728944
 31
0.0
  0
LINE
  5
163
330
15E
100
AcDbEntity
  8
0
  6
Continuous
 62
     0
370
     0
100
AcDbLine
 10
0.0
 20
0.0
 30
0.0
 11
-0.0017728944
 21
-0.050769054
 31
0.0
  0
LINE
  5
164
330
15E
100
AcDbEntity
  8
0
  6
Continuous
 62
     0
370
     0
100
AcDbLine
 10
0.0
 20
0.0
 30
0.0
 11
0.050769054
 21
-0.0017728944
 31
0.0
  0
LINE
  5
165
330
15E
100
AcDbEntity
  8
0
  6
Continuous
 62
     0
370
     0
100
AcDbLine
 10
0.0035457889
 20
0.101538108
 30
0.0
 11
0.0039890125
 21
0.1142303715
 31
0.0
  0
LINE
  5
166
330
15E
100
AcDbEntity
  8
0
  6
Continuous
 62
     0
370
     0
100
AcDbLine
 10
-0.101538108
 20
0.0035457889
 30
0.0
 11
-0.1142303715
 21
0.0039890125
 31
0.0
  0
LINE
  5
167
330
15E
100
AcDbEntity
  8
0
  6
Continuous
 62
     0
370
     0
100
AcDbLine
 10
-0.0035457889
 20
-0.101538108
 30
0.0
 11
-0.0039890125
 21
-0.1142303715
 31
0.0
  0
LINE
  5
168
330
15E
100
AcDbEntity
  8
0
  6
Continuous
 62
     0
370
     0
100
AcDbLine
 10
0.101538108
 20
-0.0035457889
 30
0.0
 11
0.1142303715
 21
-0.0039890125
 31
0.0
  0
ENDBLK
  5
160
330
15E
100
AcDbEntity
  8
0
100
AcDbBlockEnd
  0
BLOCK
  5
16B
330
16A
100
AcDbEntity
  8
0
100
AcDbBlockBegin
  2
SW_CENTERMARKSYMBOL_3
 70
     0
 10
0.0
 20
0.0
 30
0.0
  3
SW_CENTERMARKSYMBOL_3
  1
SW_CENTERMARKSYMBOL_3
  0
LINE
  5
16D
330
16A
100
AcDbEntity
  8
0
  6
Continuous
 62
     0
370
     0
100
AcDbLine
 10
0.0
 20
0.0
 30
0.0
 11
0.0017728944
 21
0.050769054
 31
0.0
  0
LINE
  5
16E
330
16A
100
AcDbEntity
  8
0
  6
Continuous
 62
     0
370
     0
100
AcDbLine
 10
0.0
 20
0.0
 30
0.0
 11
-0.050769054
 21
0.0017728944
 31
0.0
  0
LINE
  5
16F
330
16A
100
AcDbEntity
  8
0
  6
Continuous
 62
     0
370
     0
100
AcDbLine
 10
0.0
 20
0.0
 30
0.0
 11
-0.0017728944
 21
-0.050769054
 31
0.0
  0
LINE
  5
170
330
16A
100
AcDbEntity
  8
0
  6
Continuous
 62
     0
370
     0
100
AcDbLine
 10
0.0
 20
0.0
 30
0.0
 11
0.050769054
 21
-0.0017728944
 31
0.0
  0
LINE
  5
171
330
16A
100
AcDbEntity
  8
0
  6
Continuous
 62
     0
370
     0
100
AcDbLine
 10
0.0035457889
 20
0.101538108
 30
0.0
 11
0.0039890125
 21
0.1142303715
 31
0.0
  0
LINE
  5
172
330
16A
100
AcDbEntity
  8
0
  6
Continuous
 62
     0
370
     0
100
AcDbLine
 10
-0.101538108
 20
0.0035457889
 30
0.0
 11
-0.1142303715
 21
0.0039890125
 31
0.0
  0
LINE
  5
173
330
16A
100
AcDbEntity
  8
0
  6
Continuous
 62
     0
370
     0
100
AcDbLine
 10
-0.0035457889
 20
-0.101538108
 30
0.0
 11
-0.0039890125
 21
-0.1142303715
 31
0.0
  0
LINE
  5
174
330
16A
100
AcDbEntity
  8
0
  6
Continuous
 62
     0
370
     0
100
AcDbLine
 10
0.101538108
 20
-0.0035457889
 30
0.0
 11
0.1142303715
 21
-0.0039890125
 31
0.0
  0
ENDBLK
  5
16C
330
16A
100
AcDbEntity
  8
0
100
AcDbBlockEnd
  0
BLOCK
  5
177
330
176
100
AcDbEntity
  8
0
100
AcDbBlockBegin
  2
SW_CENTERMARKSYMBOL_4
 70
     0
 10
0.0
 20
0.0
 30
0.0
  3
SW_CENTERMARKSYMBOL_4
  1
SW_CENTERMARKSYMBOL_4
  0
LINE
  5
179
330
176
100
AcDbEntity
  8
0
  6
Continuous
 62
     0
370
     0
100
AcDbLine
 10
0.0
 20
0.0
 30
0.0
 11
0.0017728944
 21
0.050769054
 31
0.0
  0
LINE
  5
17A
330
176
100
AcDbEntity
  8
0
  6
Continuous
 62
     0
370
     0
100
AcDbLine
 10
0.0
 20
0.0
 30
0.0
 11
-0.050769054
 21
0.0017728944
 31
0.0
  0
LINE
  5
17B
330
176
100
AcDbEntity
  8
0
  6
Continuous
 62
     0
370
     0
100
AcDbLine
 10
0.0
 20
0.0
 30
0.0
 11
-0.0017728944
 21
-0.050769054
 31
0.0
  0
LINE
  5
17C
330
176
100
AcDbEntity
  8
0
  6
Continuous
 62
     0
370
     0
100
AcDbLine
 10
0.0
 20
0.0
 30
0.0
 11
0.050769054
 21
-0.0017728944
 31
0.0
  0
LINE
  5
17D
330
176
100
AcDbEntity
  8
0
  6
Continuous
 62
     0
370
     0
100
AcDbLine
 10
0.0035457889
 20
0.101538108
 30
0.0
 11
0.0039890125
 21
0.1142303715
 31
0.0
  0
LINE
  5
17E
330
176
100
AcDbEntity
  8
0
  6
Continuous
 62
     0
370
     0
100
AcDbLine
 10
-0.101538108
 20
0.0035457889
 30
0.0
 11
-0.1142303715
 21
0.0039890125
 31
0.0
  0
LINE
  5
17F
330
176
100
AcDbEntity
  8
0
  6
Continuous
 62
     0
370
     0
100
AcDbLine
 10
-0.0035457889
 20
-0.101538108
 30
0.0
 11
-0.0039890125
 21
-0.1142303715
 31
0.0
  0
LINE
  5
180
330
176
100
AcDbEntity
  8
0
  6
Continuous
 62
     0
370
     0
100
AcDbLine
 10
0.101538108
 20
-0.0035457889
 30
0.0
 11
0.1142303715
 21
-0.0039890125
 31
0.0
  0
ENDBLK
  5
178
330
176
100
AcDbEntity
  8
0
100
AcDbBlockEnd
  0
BLOCK
  5
183
330
182
100
AcDbEntity
  8
0
100
AcDbBlockBegin
  2
SW_CENTERMARKSYMBOL_5
 70
     0
 10
0.0
 20
0.0
 30
0.0
  3
SW_CENTERMARKSYMBOL_5
  1
SW_CENTERMARKSYMBOL_5
  0
LINE
  5
185
330
182
100
AcDbEntity
  8
0
  6
Continuous
 62
     0
370
     0
100
AcDbLine
 10
0.0
 20
0.0
 30
0.0
 11
0.0017728944
 21
0.050769054
 31
0.0
  0
LINE
  5
186
330
182
100
AcDbEntity
  8
0
  6
Continuous
 62
     0
370
     0
100
AcDbLine
 10
0.0
 20
0.0
 30
0.0
 11
-0.050769054
 21
0.0017728944
 31
0.0
  0
LINE
  5
187
330
182
100
AcDbEntity
  8
0
  6
Continuous
 62
     0
370
     0
100
AcDbLine
 10
0.0
 20
0.0
 30
0.0
 11
-0.0017728944
 21
-0.050769054
 31
0.0
  0
LINE
  5
188
330
182
100
AcDbEntity
  8
0
  6
Continuous
 62
     0
370
     0
100
AcDbLine
 10
0.0
 20
0.0
 30
0.0
 11
0.050769054
 21
-0.0017728944
 31
0.0
  0
LINE
  5
189
330
182
100
AcDbEntity
  8
0
  6
Continuous
 62
     0
370
     0
100
AcDbLine
 10
0.0035457889
 20
0.101538108
 30
0.0
 11
0.0039890125
 21
0.1142303715
 31
0.0
  0
LINE
  5
18A
330
182
100
AcDbEntity
  8
0
  6
Continuous
 62
     0
370
     0
100
AcDbLine
 10
-0.101538108
 20
0.0035457889
 30
0.0
 11
-0.1142303715
 21
0.0039890125
 31
0.0
  0
LINE
  5
18B
330
182
100
AcDbEntity
  8
0
  6
Continuous
 62
     0
370
     0
100
AcDbLine
 10
-0.0035457889
 20
-0.101538108
 30
0.0
 11
-0.0039890125
 21
-0.1142303715
 31
0.0
  0
LINE
  5
18C
330
182
100
AcDbEntity
  8
0
  6
Continuous
 62
     0
370
     0
100
AcDbLine
 10
0.101538108
 20
-0.0035457889
 30
0.0
 11
0.1142303715
 21
-0.0039890125
 31
0.0
  0
ENDBLK
  5
184
330
182
100
AcDbEntity
  8
0
100
AcDbBlockEnd
  0
BLOCK
  5
18F
330
18E
100
AcDbEntity
  8
0
100
AcDbBlockBegin
  2
SW_CENTERMARKSYMBOL_6
 70
     0
 10
0.0
 20
0.0
 30
0.0
  3
SW_CENTERMARKSYMBOL_6
  1
SW_CENTERMARKSYMBOL_6
  0
LINE
  5
191
330
18E
100
AcDbEntity
  8
0
  6
Continuous
 62
     0
370
     0
100
AcDbLine
 10
0.0
 20
0.0
 30
0.0
 11
0.0017728944
 21
0.050769054
 31
0.0
  0
LINE
  5
192
330
18E
100
AcDbEntity
  8
0
  6
Continuous
 62
     0
370
     0
100
AcDbLine
 10
0.0
 20
0.0
 30
0.0
 11
-0.050769054
 21
0.0017728944
 31
0.0
  0
LINE
  5
193
330
18E
100
AcDbEntity
  8
0
  6
Continuous
 62
     0
370
     0
100
AcDbLine
 10
0.0
 20
0.0
 30
0.0
 11
-0.0017728944
 21
-0.050769054
 31
0.0
  0
LINE
  5
194
330
18E
100
AcDbEntity
  8
0
  6
Continuous
 62
     0
370
     0
100
AcDbLine
 10
0.0
 20
0.0
 30
0.0
 11
0.050769054
 21
-0.0017728944
 31
0.0
  0
LINE
  5
195
330
18E
100
AcDbEntity
  8
0
  6
Continuous
 62
     0
370
     0
100
AcDbLine
 10
0.0035457889
 20
0.101538108
 30
0.0
 11
0.0050970715
 21
0.1459610303
 31
0.0
  0
LINE
  5
196
330
18E
100
AcDbEntity
  8
0
  6
Continuous
 62
     0
370
     0
100
AcDbLine
 10
-0.101538108
 20
0.0035457889
 30
0.0
 11
-0.1459610303
 21
0.0050970715
 31
0.0
  0
LINE
  5
197
330
18E
100
AcDbEntity
  8
0
  6
Continuous
 62
     0
370
     0
100
AcDbLine
 10
-0.0035457889
 20
-0.101538108
 30
0.0
 11
-0.0050970715
 21
-0.1459610303
 31
0.0
  0
LINE
  5
198
330
18E
100
AcDbEntity
  8
0
  6
Continuous
 62
     0
370
     0
100
AcDbLine
 10
0.101538108
 20
-0.0035457889
 30
0.0
 11
0.1459610303
 21
-0.0050970715
 31
0.0
  0
ENDBLK
  5
190
330
18E
100
AcDbEntity
  8
0
100
AcDbBlockEnd
  0
BLOCK
  5
19B
330
19A
100
AcDbEntity
  8
0
100
AcDbBlockBegin
  2
SW_CENTERMARKSYMBOL_7
 70
     0
 10
0.0
 20
0.0
 30
0.0
  3
SW_CENTERMARKSYMBOL_7
  1
SW_CENTERMARKSYMBOL_7
  0
LINE
  5
19D
330
19A
100
AcDbEntity
  8
0
  6
Continuous
 62
     0
370
     0
100
AcDbLine
 10
0.0
 20
0.0
 30
0.0
 11
0.0017728944
 21
0.050769054
 31
0.0
  0
LINE
  5
19E
330
19A
100
AcDbEntity
  8
0
  6
Continuous
 62
     0
370
     0
100
AcDbLine
 10
0.0
 20
0.0
 30
0.0
 11
-0.050769054
 21
0.0017728944
 31
0.0
  0
LINE
  5
19F
330
19A
100
AcDbEntity
  8
0
  6
Continuous
 62
     0
370
     0
100
AcDbLine
 10
0.0
 20
0.0
 30
0.0
 11
-0.0017728944
 21
-0.050769054
 31
0.0
  0
LINE
  5
1A0
330
19A
100
AcDbEntity
  8
0
  6
Continuous
 62
     0
370
     0
100
AcDbLine
 10
0.0
 20
0.0
 30
0.0
 11
0.050769054
 21
-0.0017728944
 31
0.0
  0
LINE
  5
1A1
330
19A
100
AcDbEntity
  8
0
  6
Continuous
 62
     0
370
     0
100
AcDbLine
 10
0.0035457889
 20
0.101538108
 30
0.0
 11
0.0050970715
 21
0.1459610303
 31
0.0
  0
LINE
  5
1A2
330
19A
100
AcDbEntity
  8
0
  6
Continuous
 62
     0
370
     0
100
AcDbLine
 10
-0.101538108
 20
0.0035457889
 30
0.0
 11
-0.1459610303
 21
0.0050970715
 31
0.0
  0
LINE
  5
1A3
330
19A
100
AcDbEntity
  8
0
  6
Continuous
 62
     0
370
     0
100
AcDbLine
 10
-0.0035457889
 20
-0.101538108
 30
0.0
 11
-0.0050970715
 21
-0.1459610303
 31
0.0
  0
LINE
  5
1A4
330
19A
100
AcDbEntity
  8
0
  6
Continuous
 62
     0
370
     0
100
AcDbLine
 10
0.101538108
 20
-0.0035457889
 30
0.0
 11
0.1459610303
 21
-0.0050970715
 31
0.0
  0
ENDBLK
  5
19C
330
19A
100
AcDbEntity
  8
0
100
AcDbBlockEnd
  0
BLOCK
  5
1A7
330
1A6
100
AcDbEntity
  8
0
100
AcDbBlockBegin
  2
SW_CENTERMARKSYMBOL_8
 70
     0
 10
0.0
 20
0.0
 30
0.0
  3
SW_CENTERMARKSYMBOL_8
  1
SW_CENTERMARKSYMBOL_8
  0
LINE
  5
1A9
330
1A6
100
AcDbEntity
  8
0
  6
Continuous
 62
     0
370
     0
100
AcDbLine
 10
0.0
 20
0.0
 30
0.0
 11
0.0017728944
 21
0.050769054
 31
0.0
  0
LINE
  5
1AA
330
1A6
100
AcDbEntity
  8
0
  6
Continuous
 62
     0
370
     0
100
AcDbLine
 10
0.0
 20
0.0
 30
0.0
 11
-0.050769054
 21
0.0017728944
 31
0.0
  0
LINE
  5
1AB
330
1A6
100
AcDbEntity
  8
0
  6
Continuous
 62
     0
370
     0
100
AcDbLine
 10
0.0
 20
0.0
 30
0.0
 11
-0.0017728944
 21
-0.050769054
 31
0.0
  0
LINE
  5
1AC
330
1A6
100
AcDbEntity
  8
0
  6
Continuous
 62
     0
370
     0
100
AcDbLine
 10
0.0
 20
0.0
 30
0.0
 11
0.050769054
 21
-0.0017728944
 31
0.0
  0
LINE
  5
1AD
330
1A6
100
AcDbEntity
  8
0
  6
Continuous
 62
     0
370
     0
100
AcDbLine
 10
0.0035457889
 20
0.101538108
 30
0.0
 11
0.0050970715
 21
0.1459610303
 31
0.0
  0
LINE
  5
1AE
330
1A6
100
AcDbEntity
  8
0
  6
Continuous
 62
     0
370
     0
100
AcDbLine
 10
-0.101538108
 20
0.0035457889
 30
0.0
 11
-0.1459610303
 21
0.0050970715
 31
0.0
  0
LINE
  5
1AF
330
1A6
100
AcDbEntity
  8
0
  6
Continuous
 62
     0
370
     0
100
AcDbLine
 10
-0.0035457889
 20
-0.101538108
 30
0.0
 11
-0.0050970715
 21
-0.1459610303
 31
0.0
  0
LINE
  5
1B0
330
1A6
100
AcDbEntity
  8
0
  6
Continuous
 62
     0
370
     0
100
AcDbLine
 10
0.101538108
 20
-0.0035457889
 30
0.0
 11
0.1459610303
 21
-0.0050970715
 31
0.0
  0
ENDBLK
  5
1A8
330
1A6
100
AcDbEntity
  8
0
100
AcDbBlockEnd
  0
BLOCK
  5
1B3
330
1B2
100
AcDbEntity
  8
0
100
AcDbBlockBegin
  2
SW_CENTERMARKSYMBOL_9
 70
     0
 10
0.0
 20
0.0
 30
0.0
  3
SW_CENTERMARKSYMBOL_9
  1
SW_CENTERMARKSYMBOL_9
  0
LINE
  5
1B5
330
1B2
100
AcDbEntity
  8
0
  6
Continuous
 62
     0
370
     0
100
AcDbLine
 10
0.0
 20
0.0
 30
0.0
 11
0.0017728944
 21
0.050769054
 31
0.0
  0
LINE
  5
1B6
330
1B2
100
AcDbEntity
  8
0
  6
Continuous
 62
     0
370
     0
100
AcDbLine
 10
0.0
 20
0.0
 30
0.0
 11
-0.050769054
 21
0.0017728944
 31
0.0
  0
LINE
  5
1B7
330
1B2
100
AcDbEntity
  8
0
  6
Continuous
 62
     0
370
     0
100
AcDbLine
 10
0.0
 20
0.0
 30
0.0
 11
-0.0017728944
 21
-0.050769054
 31
0.0
  0
LINE
  5
1B8
330
1B2
100
AcDbEntity
  8
0
  6
Continuous
 62
     0
370
     0
100
AcDbLine
 10
0.0
 20
0.0
 30
0.0
 11
0.050769054
 21
-0.0017728944
 31
0.0
  0
LINE
  5
1B9
330
1B2
100
AcDbEntity
  8
0
  6
Continuous
 62
     0
370
     0
100
AcDbLine
 10
0.0035457889
 20
0.101538108
 30
0.0
 11
0.0050970715
 21
0.1459610303
 31
0.0
  0
LINE
  5
1BA
330
1B2
100
AcDbEntity
  8
0
  6
Continuous
 62
     0
370
     0
100
AcDbLine
 10
-0.101538108
 20
0.0035457889
 30
0.0
 11
-0.1459610303
 21
0.0050970715
 31
0.0
  0
LINE
  5
1BB
330
1B2
100
AcDbEntity
  8
0
  6
Continuous
 62
     0
370
     0
100
AcDbLine
 10
-0.0035457889
 20
-0.101538108
 30
0.0
 11
-0.0050970715
 21
-0.1459610303
 31
0.0
  0
LINE
  5
1BC
330
1B2
100
AcDbEntity
  8
0
  6
Continuous
 62
     0
370
     0
100
AcDbLine
 10
0.101538108
 20
-0.0035457889
 30
0.0
 11
0.1459610303
 21
-0.0050970715
 31
0.0
  0
ENDBLK
  5
1B4
330
1B2
100
AcDbEntity
  8
0
100
AcDbBlockEnd
  0
BLOCK
  5
1C5
330
1C4
100
AcDbEntity
  8
0
100
AcDbBlockBegin
  2
_D_4
 70
     0
 10
0.0
 20
0.0
 30
0.0
  3
_D_4
  1
_D_4
  0
SOLID
  5
1C7
330
1C4
100
AcDbEntity
  8
0
  6
Continuous
 62
     7
370
     0
100
AcDbTrace
 10
14.4015689903
 20
9.0671773125
 30
0.0
 11
14.0713689903
 21
9.1179773125
 31
0.0
 12
14.0713689903
 22
9.0163773125
 32
0.0
 13
14.0713689903
 23
9.0163773125
 33
0.0
  0
SOLID
  5
1C8
330
1C4
100
AcDbEntity
  8
0
  6
Continuous
 62
     7
370
     0
100
AcDbTrace
 10
14.5920689903
 20
9.0671773125
 30
0.0
 11
14.9222689903
 21
9.0163773125
 31
0.0
 12
14.9222689903
 22
9.1179773125
 32
0.0
 13
14.9222689903
 23
9.1179773125
 33
0.0
  0
LINE
  5
1C9
330
1C4
100
AcDbEntity
  8
0
  6
Continuous
 62
     7
370
     0
100
AcDbLine
 10
15.559792318
 20
9.5244654977
 30
0.0
 11
15.4953001331
 21
9.5244654977
 31
0.0
  0
LINE
  5
1CA
330
1C4
100
AcDbEntity
  8
0
  6
Continuous
 62
     7
370
     0
100
AcDbLine
 10
15.4953001331
 20
9.5244654977
 30
0.0
 11
15.4953001331
 21
9.0204342325
 31
0.0
  0
LINE
  5
1CB
330
1C4
100
AcDbEntity
  8
0
  6
Continuous
 62
     7
370
     0
100
AcDbLine
 10
15.4953001331
 20
9.0204342325
 30
0.0
 11
15.559792318
 21
9.0204342325
 31
0.0
  0
LINE
  5
1CC
330
1C4
100
AcDbEntity
  8
0
  6
Continuous
 62
     7
370
     0
100
AcDbLine
 10
16.3075158229
 20
9.5244654977
 30
0.0
 11
16.3720080078
 21
9.5244654977
 31
0.0
  0
LINE
  5
1CD
330
1C4
100
AcDbEntity
  8
0
  6
Continuous
 62
     7
370
     0
100
AcDbLine
 10
16.3720080078
 20
9.5244654977
 30
0.0
 11
16.3720080078
 21
9.0204342325
 31
0.0
  0
LINE
  5
1CE
330
1C4
100
AcDbEntity
  8
0
  6
Continuous
 62
     7
370
     0
100
AcDbLine
 10
16.3720080078
 20
9.0204342325
 30
0.0
 11
16.3075158229
 21
9.0204342325
 31
0.0
  0
LINE
  5
1CF
330
1C4
100
AcDbEntity
  8
0
  6
Continuous
 62
     7
370
     0
100
AcDbLine
 10
14.4015689903
 20
9.7780407709
 30
0.0
 11
14.4015689903
 21
8.7496773125
 31
0.0
  0
LINE
  5
1D0
330
1C4
100
AcDbEntity
  8
0
  6
Continuous
 62
     7
370
     0
100
AcDbLine
 10
14.5920689903
 20
9.7780407709
 30
0.0
 11
14.5920689903
 21
8.7496773125
 31
0.0
  0
LINE
  5
1D1
330
1C4
100
AcDbEntity
  8
0
  6
Continuous
 62
     7
370
     0
100
AcDbLine
 10
14.4015689903
 20
9.0671773125
 30
0.0
 11
13.7665689903
 21
9.0671773125
 31
0.0
  0
LINE
  5
1D2
330
1C4
100
AcDbEntity
  8
0
  6
Continuous
 62
     7
370
     0
100
AcDbLine
 10
14.5920689903
 20
9.0671773125
 30
0.0
 11
15.2652067864
 21
9.0671773125
 31
0.0
  0
MTEXT
  5
1D3
330
1C4
100
AcDbEntity
  8
0
  6
Continuous
 62
     7
370
     0
100
AcDbMText
 10
15.4486948815
 20
8.959526598
 30
0.0
 40
0.3175
 41
0.0
 71
     1
 72
     1
  1

  7
SLDTEXTSTYLE0
 73
     1
 44
1.0
  0
MTEXT
  5
1D4
330
1C4
100
AcDbEntity
  8
0
  6
Continuous
 62
     7
370
     0
100
AcDbMText
 10
15.6404075535
 20
9.4297132748
 30
0.0
 40
0.3175
 41
0.0
 71
     1
 72
     1
  1
.38
  7
SLDTEXTSTYLE0
 73
     1
 44
1.0
  0
MTEXT
  5
1D5
330
1C4
100
AcDbEntity
  8
0
  6
Continuous
 62
     7
370
     0
100
AcDbMText
 10
15.5231088955
 20
8.9546759266
 30
0.0
 40
0.3175
 41
0.0
 71
     1
 72
     1
  1
0.95
  7
SLDTEXTSTYLE0
 73
     1
 44
1.0
  0
MTEXT
  5
1D6
330
1C4
100
AcDbEntity
  8
0
  6
Continuous
 62
     7
370
     0
100
AcDbMText
 10
16.5394395781
 20
8.959526598
 30
0.0
 40
0.3175
 41
0.0
 71
     1
 72
     1
  1

  7
SLDTEXTSTYLE0
 73
     1
 44
1.0
  0
ENDBLK
  5
1C6
330
1C4
100
AcDbEntity
  8
0
100
AcDbBlockEnd
  0
BLOCK
  5
1D9
330
1D8
100
AcDbEntity
  8
0
100
AcDbBlockBegin
  2
_D_5
 70
     0
 10
0.0
 20
0.0
 30
0.0
  3
_D_5
  1
_D_5
  0
SOLID
  5
1DB
330
1D8
100
AcDbEntity
  8
0
  6
Continuous
 62
     7
370
     0
100
AcDbTrace
 10
15.5920689903
 20
9.9050407709
 30
0.0
 11
15.6428689903
 21
10.2352407709
 31
0.0
 12
15.5412689903
 22
10.2352407709
 32
0.0
 13
15.5412689903
 23
10.2352407709
 33
0.0
  0
SOLID
  5
1DC
330
1D8
100
AcDbEntity
  8
0
  6
Continuous
 62
     7
370
     0
100
AcDbTrace
 10
15.5920689903
 20
13.9690407709
 30
0.0
 11
15.5412689903
 21
13.6388407709
 31
0.0
 12
15.6428689903
 22
13.6388407709
 32
0.0
 13
15.6428689903
 23
13.6388407709
 33
0.0
  0
LINE
  5
1DD
330
1D8
100
AcDbEntity
  8
0
  6
Continuous
 62
     7
370
     0
100
AcDbLine
 10
15.1009086264
 20
12.4975920854
 30
0.0
 11
15.0364164415
 21
12.4975920854
 31
0.0
  0
LINE
  5
1DE
330
1D8
100
AcDbEntity
  8
0
  6
Continuous
 62
     7
370
     0
100
AcDbLine
 10
15.0364164415
 20
12.4975920854
 30
0.0
 11
15.0364164415
 21
11.9935608202
 31
0.0
  0
LINE
  5
1DF
330
1D8
100
AcDbEntity
  8
0
  6
Continuous
 62
     7
370
     0
100
AcDbLine
 10
15.0364164415
 20
11.9935608202
 30
0.0
 11
15.1009086264
 21
11.9935608202
 31
0.0
  0
LINE
  5
1E0
330
1D8
100
AcDbEntity
  8
0
  6
Continuous
 62
     7
370
     0
100
AcDbLine
 10
16.0832294007
 20
12.4975920854
 30
0.0
 11
16.1477215856
 21
12.4975920854
 31
0.0
  0
LINE
  5
1E1
330
1D8
100
AcDbEntity
  8
0
  6
Continuous
 62
     7
370
     0
100
AcDbLine
 10
16.1477215856
 20
12.4975920854
 30
0.0
 11
16.1477215856
 21
11.9935608202
 31
0.0
  0
LINE
  5
1E2
330
1D8
100
AcDbEntity
  8
0
  6
Continuous
 62
     7
370
     0
100
AcDbLine
 10
16.1477215856
 20
11.9935608202
 30
0.0
 11
16.0832294007
 21
11.9935608202
 31
0.0
  0
LINE
  5
1E3
330
1D8
100
AcDbEntity
  8
0
  6
Continuous
 62
     7
370
     0
100
AcDbLine
 10
14.7190689903
 20
9.9050407709
 30
0.0
 11
15.9095689903
 21
9.9050407709
 31
0.0
  0
LINE
  5
1E4
330
1D8
100
AcDbEntity
  8
0
  6
Continuous
 62
     7
370
     0
100
AcDbLine
 10
14.7190689903
 20
13.9690407709
 30
0.0
 11
15.9095689903
 21
13.9690407709
 31
0.0
  0
LINE
  5
1E5
330
1D8
100
AcDbEntity
  8
0
  6
Continuous
 62
     7
370
     0
100
AcDbLine
 10
15.5920689903
 20
9.9050407709
 30
0.0
 11
15.5920689903
 21
11.518523536
 31
0.0
  0
LINE
  5
1E6
330
1D8
100
AcDbEntity
  8
0
  6
Continuous
 62
     7
370
     0
100
AcDbLine
 10
15.5920689903
 20
13.9690407709
 30
0.0
 11
15.5920689903
 21
12.5620842644
 31
0.0
  0
MTEXT
  5
1E7
330
1D8
100
AcDbEntity
  8
0
  6
Continuous
 62
     7
370
     0
100
AcDbMText
 10
15.1815238619
 20
12.4028398625
 30
0.0
 40
0.3175
 41
0.0
 71
     1
 72
     1
  1
8.00
  7
SLDTEXTSTYLE0
 73
     1
 44
1.0
  0
MTEXT
  5
1E8
330
1D8
100
AcDbEntity
  8
0
  6
Continuous
 62
     7
370
     0
100
AcDbMText
 10
14.8248104356
 20
11.9278025143
 30
0.0
 40
0.3175
 41
0.0
 71
     1
 72
     1
  1
%%c
  7
SLDTEXTSTYLE0
 73
     1
 44
1.0
  0
MTEXT
  5
1E9
330
1D8
100
AcDbEntity
  8
0
  6
Continuous
 62
     7
370
     0
100
AcDbMText
 10
15.3036401119
 20
11.9278025143
 30
0.0
 40
0.3175
 41
0.0
 71
     1
 72
     1
  1
20.32
  7
SLDTEXTSTYLE0
 73
     1
 44
1.0
  0
ENDBLK
  5
1DA
330
1D8
100
AcDbEntity
  8
0
100
AcDbBlockEnd
  0
BLOCK
  5
221
330
220
100
AcDbEntity
  8
0
100
AcDbBlockBegin
  2
_D_6
 70
     0
 10
0.0
 20
0.0
 30
0.0
  3
_D_6
  1
_D_6
  0
SOLID
  5
223
330
220
100
AcDbEntity
  8
0
  6
Continuous
 62
     7
370
     0
100
AcDbTrace
 10
20.317145888
 20
11.8779359151
 30
0.0
 11
20.0057842997
 21
11.7568300057
 31
0.0
 12
20.0565842997
 22
11.6688418246
 32
0.0
 13
20.0565842997
 23
11.6688418246
 33
0.0
  0
LINE
  5
224
330
220
100
AcDbEntity
  8
0
  6
Continuous
 62
     7
370
     0
100
AcDbLine
 10
17.5437347212
 20
11.6535439048
 30
0.0
 11
17.4792425363
 21
11.6535439048
 31
0.0
  0
LINE
  5
225
330
220
100
AcDbEntity
  8
0
  6
Continuous
 62
     7
370
     0
100
AcDbLine
 10
17.4792425363
 20
11.6535439048
 30
0.0
 11
17.4792425363
 21
11.1495126396
 31
0.0
  0
LINE
  5
226
330
220
100
AcDbEntity
  8
0
  6
Continuous
 62
     7
370
     0
100
AcDbLine
 10
17.4792425363
 20
11.1495126396
 30
0.0
 11
17.5437347212
 21
11.1495126396
 31
0.0
  0
LINE
  5
227
330
220
100
AcDbEntity
  8
0
  6
Continuous
 62
     7
370
     0
100
AcDbLine
 10
18.2914582261
 20
11.6535439048
 30
0.0
 11
18.355950411
 21
11.6535439048
 31
0.0
  0
LINE
  5
228
330
220
100
AcDbEntity
  8
0
  6
Continuous
 62
     7
370
     0
100
AcDbLine
 10
18.355950411
 20
11.6535439048
 30
0.0
 11
18.355950411
 21
11.1495126396
 31
0.0
  0
LINE
  5
229
330
220
100
AcDbEntity
  8
0
  6
Continuous
 62
     7
370
     0
100
AcDbLine
 10
18.355950411
 20
11.1495126396
 30
0.0
 11
18.2914582261
 21
11.1495126396
 31
0.0
  0
LINE
  5
22A
330
220
100
AcDbEntity
  8
0
  6
Continuous
 62
     7
370
     0
100
AcDbLine
 10
20.317145888
 20
11.8779359151
 30
0.0
 11
19.2025564169
 21
11.234427384
 31
0.0
  0
LINE
  5
22B
330
220
100
AcDbEntity
  8
0
  6
Continuous
 62
     7
370
     0
100
AcDbLine
 10
19.2025564169
 20
11.234427384
 30
0.0
 11
18.5675564169
 21
11.234427384
 31
0.0
  0
MTEXT
  5
22C
330
220
100
AcDbEntity
  8
0
  6
Continuous
 62
     7
370
     0
100
AcDbMText
 10
17.6243499567
 20
11.5587916819
 30
0.0
 40
0.3175
 41
0.0
 71
     1
 72
     1
  1
.38
  7
SLDTEXTSTYLE0
 73
     1
 44
1.0
  0
MTEXT
  5
22D
330
220
100
AcDbEntity
  8
0
  6
Continuous
 62
     7
370
     0
100
AcDbMText
 10
17.2676364838
 20
11.0837543337
 30
0.0
 40
0.3175
 41
0.0
 71
     1
 72
     1
  1
%%c
  7
SLDTEXTSTYLE0
 73
     1
 44
1.0
  0
MTEXT
  5
22E
330
220
100
AcDbEntity
  8
0
  6
Continuous
 62
     7
370
     0
100
AcDbMText
 10
17.7464661601
 20
11.0837543337
 30
0.0
 40
0.3175
 41
0.0
 71
     1
 72
     1
  1
0.95
  7
SLDTEXTSTYLE0
 73
     1
 44
1.0
  0
ENDBLK
  5
222
330
220
100
AcDbEntity
  8
0
100
AcDbBlockEnd
  0
BLOCK
  5
231
330
230
100
AcDbEntity
  8
0
100
AcDbBlockBegin
  2
_D_7
 70
     0
 10
0.0
 20
0.0
 30
0.0
  3
_D_7
  1
_D_7
  0
SOLID
  5
233
330
230
100
AcDbEntity
  8
0
  6
Continuous
 62
     7
370
     0
100
AcDbTrace
 10
20.8903637201
 20
11.3484547813
 30
0.0
 11
20.6209560364
 21
11.1508891466
 31
0.0
 12
20.6927980854
 22
11.0790470976
 32
0.0
 13
20.6927980854
 23
11.0790470976
 33
0.0
  0
LINE
  5
234
330
230
100
AcDbEntity
  8
0
  6
Continuous
 62
     7
370
     0
100
AcDbLine
 10
17.5437347212
 20
10.0797639989
 30
0.0
 11
17.4792425363
 21
10.0797639989
 31
0.0
  0
LINE
  5
235
330
230
100
AcDbEntity
  8
0
  6
Continuous
 62
     7
370
     0
100
AcDbLine
 10
17.4792425363
 20
10.0797639989
 30
0.0
 11
17.4792425363
 21
9.5757327338
 31
0.0
  0
LINE
  5
236
330
230
100
AcDbEntity
  8
0
  6
Continuous
 62
     7
370
     0
100
AcDbLine
 10
17.4792425363
 20
9.5757327338
 30
0.0
 11
17.5437347212
 21
9.5757327338
 31
0.0
  0
LINE
  5
237
330
230
100
AcDbEntity
  8
0
  6
Continuous
 62
     7
370
     0
100
AcDbLine
 10
18.2914582261
 20
10.0797639989
 30
0.0
 11
18.355950411
 21
10.0797639989
 31
0.0
  0
LINE
  5
238
330
230
100
AcDbEntity
  8
0
  6
Continuous
 62
     7
370
     0
100
AcDbLine
 10
18.355950411
 20
10.0797639989
 30
0.0
 11
18.355950411
 21
9.5757327338
 31
0.0
  0
LINE
  5
239
330
230
100
AcDbEntity
  8
0
  6
Continuous
 62
     7
370
     0
100
AcDbLine
 10
18.355950411
 20
9.5757327338
 30
0.0
 11
18.2914582261
 21
9.5757327338
 31
0.0
  0
LINE
  5
23A
330
230
100
AcDbEntity
  8
0
  6
Continuous
 62
     7
370
     0
100
AcDbLine
 10
20.8903637201
 20
11.3484547813
 30
0.0
 11
19.2025564169
 21
9.6606474781
 31
0.0
  0
LINE
  5
23B
330
230
100
AcDbEntity
  8
0
  6
Continuous
 62
     7
370
     0
100
AcDbLine
 10
19.2025564169
 20
9.6606474781
 30
0.0
 11
18.5675564169
 21
9.6606474781
 31
0.0
  0
MTEXT
  5
23C
330
230
100
AcDbEntity
  8
0
  6
Continuous
 62
     7
370
     0
100
AcDbMText
 10
17.6243499567
 20
9.9850117761
 30
0.0
 40
0.3175
 41
0.0
 71
     1
 72
     1
  1
.25
  7
SLDTEXTSTYLE0
 73
     1
 44
1.0
  0
MTEXT
  5
23D
330
230
100
AcDbEntity
  8
0
  6
Continuous
 62
     7
370
     0
100
AcDbMText
 10
17.2676364838
 20
9.5099744278
 30
0.0
 40
0.3175
 41
0.0
 71
     1
 72
     1
  1
%%c
  7
SLDTEXTSTYLE0
 73
     1
 44
1.0
  0
MTEXT
  5
23E
330
230
100
AcDbEntity
  8
0
  6
Continuous
 62
     7
370
     0
100
AcDbMText
 10
17.7464661601
 20
9.5099744278
 30
0.0
 40
0.3175
 41
0.0
 71
     1
 72
     1
  1
0.64
  7
SLDTEXTSTYLE0
 73
     1
 44
1.0
  0
ENDBLK
  5
232
330
230
100
AcDbEntity
  8
0
100
AcDbBlockEnd
  0
BLOCK
  5
242
330
241
100
AcDbEntity
  8
0
100
AcDbBlockBegin
  2
_D_8
 70
     0
 10
0.0
 20
0.0
 30
0.0
  3
_D_8
  1
_D_8
  0
SOLID
  5
244
330
241
100
AcDbEntity
  8
0
  6
Continuous
 62
     7
370
     0
100
AcDbTrace
 10
22.035701819
 20
12.6246302002
 30
0.0
 11
22.3051095026
 21
12.8221958349
 31
0.0
 12
22.2332674537
 22
12.8940378838
 32
0.0
 13
22.2332674537
 23
12.8940378838
 33
0.0
  0
LINE
  5
245
330
241
100
AcDbEntity
  8
0
  6
Continuous
 62
     7
370
     0
100
AcDbLine
 10
24.7031442887
 20
14.9109623913
 30
0.0
 11
24.6386521038
 21
14.9109623913
 31
0.0
  0
LINE
  5
246
330
241
100
AcDbEntity
  8
0
  6
Continuous
 62
     7
370
     0
100
AcDbLine
 10
24.6386521038
 20
14.9109623913
 30
0.0
 11
24.6386521038
 21
14.4069311261
 31
0.0
  0
LINE
  5
247
330
241
100
AcDbEntity
  8
0
  6
Continuous
 62
     7
370
     0
100
AcDbLine
 10
24.6386521038
 20
14.4069311261
 30
0.0
 11
24.7031442887
 21
14.4069311261
 31
0.0
  0
LINE
  5
248
330
241
100
AcDbEntity
  8
0
  6
Continuous
 62
     7
370
     0
100
AcDbLine
 10
25.4508677936
 20
14.9109623913
 30
0.0
 11
25.5153599785
 21
14.9109623913
 31
0.0
  0
LINE
  5
249
330
241
100
AcDbEntity
  8
0
  6
Continuous
 62
     7
370
     0
100
AcDbLine
 10
25.5153599785
 20
14.9109623913
 30
0.0
 11
25.5153599785
 21
14.4069311261
 31
0.0
  0
LINE
  5
24A
330
241
100
AcDbEntity
  8
0
  6
Continuous
 62
     7
370
     0
100
AcDbLine
 10
25.5153599785
 20
14.4069311261
 30
0.0
 11
25.4508677936
 21
14.4069311261
 31
0.0
  0
LINE
  5
24B
330
241
100
AcDbEntity
  8
0
  6
Continuous
 62
     7
370
     0
100
AcDbLine
 10
22.035701819
 20
12.6246302002
 30
0.0
 11
23.9029174893
 21
14.4918458705
 31
0.0
  0
LINE
  5
24C
330
241
100
AcDbEntity
  8
0
  6
Continuous
 62
     7
370
     0
100
AcDbLine
 10
23.9029174893
 20
14.4918458705
 30
0.0
 11
24.5379174893
 21
14.4918458705
 31
0.0
  0
MTEXT
  5
24D
330
241
100
AcDbEntity
  8
0
  6
Continuous
 62
     7
370
     0
100
AcDbMText
 10
24.7837595242
 20
14.8162101684
 30
0.0
 40
0.3175
 41
0.0
 71
     1
 72
     1
  1
.50
  7
SLDTEXTSTYLE0
 73
     1
 44
1.0
  0
MTEXT
  5
24E
330
241
100
AcDbEntity
  8
0
  6
Continuous
 62
     7
370
     0
100
AcDbMText
 10
24.5379174893
 20
14.3411728202
 30
0.0
 40
0.3175
 41
0.0
 71
     1
 72
     1
  1
R1.27
  7
SLDTEXTSTYLE0
 73
     1
 44
1.0
  0
ENDBLK
  5
243
330
241
100
AcDbEntity
  8
0
100
AcDbBlockEnd
  0
BLOCK
  5
252
330
251
100
AcDbEntity
  8
0
100
AcDbBlockBegin
  2
_D_9
 70
     0
 10
0.0
 20
0.0
 30
0.0
  3
_D_9
  1
_D_9
  0
SOLID
  5
254
330
251
100
AcDbEntity
  8
0
  6
Continuous
 62
     7
370
     0
100
AcDbTrace
 10
22.4554612222
 20
12.2893629332
 30
0.0
 11
22.1440996338
 21
12.1682570238
 31
0.0
 12
22.1948996338
 22
12.0802688427
 32
0.0
 13
22.1948996338
 23
12.0802688427
 33
0.0
  0
LINE
  5
255
330
251
100
AcDbEntity
  8
0
  6
Continuous
 62
     7
370
     0
100
AcDbLine
 10
24.7031442887
 20
13.5441687195
 30
0.0
 11
24.6386521038
 21
13.5441687195
 31
0.0
  0
LINE
  5
256
330
251
100
AcDbEntity
  8
0
  6
Continuous
 62
     7
370
     0
100
AcDbLine
 10
24.6386521038
 20
13.5441687195
 30
0.0
 11
24.6386521038
 21
13.0401374543
 31
0.0
  0
LINE
  5
257
330
251
100
AcDbEntity
  8
0
  6
Continuous
 62
     7
370
     0
100
AcDbLine
 10
24.6386521038
 20
13.0401374543
 30
0.0
 11
24.7031442887
 21
13.0401374543
 31
0.0
  0
LINE
  5
258
330
251
100
AcDbEntity
  8
0
  6
Continuous
 62
     7
370
     0
100
AcDbLine
 10
25.4508677936
 20
13.5441687195
 30
0.0
 11
25.5153599785
 21
13.5441687195
 31
0.0
  0
LINE
  5
259
330
251
100
AcDbEntity
  8
0
  6
Continuous
 62
     7
370
     0
100
AcDbLine
 10
25.5153599785
 20
13.5441687195
 30
0.0
 11
25.5153599785
 21
13.0401374543
 31
0.0
  0
LINE
  5
25A
330
251
100
AcDbEntity
  8
0
  6
Continuous
 62
     7
370
     0
100
AcDbLine
 10
25.5153599785
 20
13.0401374543
 30
0.0
 11
25.4508677936
 21
13.0401374543
 31
0.0
  0
LINE
  5
25B
330
251
100
AcDbEntity
  8
0
  6
Continuous
 62
     7
370
     0
100
AcDbLine
 10
22.4554612222
 20
12.2893629332
 30
0.0
 11
23.9029174893
 21
13.1250521987
 31
0.0
  0
LINE
  5
25C
330
251
100
AcDbEntity
  8
0
  6
Continuous
 62
     7
370
     0
100
AcDbLine
 10
22.4554612222
 20
12.2893629332
 30
0.0
 11
21.9055350908
 21
11.9718629332
 31
0.0
  0
LINE
  5
25D
330
251
100
AcDbEntity
  8
0
  6
Continuous
 62
     7
370
     0
100
AcDbLine
 10
23.9029174893
 20
13.1250521987
 30
0.0
 11
24.5379174893
 21
13.1250521987
 31
0.0
  0
MTEXT
  5
25E
330
251
100
AcDbEntity
  8
0
  6
Continuous
 62
     7
370
     0
100
AcDbMText
 10
24.7837595242
 20
13.4494164966
 30
0.0
 40
0.3175
 41
0.0
 71
     1
 72
     1
  1
.50
  7
SLDTEXTSTYLE0
 73
     1
 44
1.0
  0
MTEXT
  5
25F
330
251
100
AcDbEntity
  8
0
  6
Continuous
 62
     7
370
     0
100
AcDbMText
 10
24.5379174893
 20
12.9743791484
 30
0.0
 40
0.3175
 41
0.0
 71
     1
 72
     1
  1
R1.27
  7
SLDTEXTSTYLE0
 73
     1
 44
1.0
  0
ENDBLK
  5
253
330
251
100
AcDbEntity
  8
0
100
AcDbBlockEnd
  0
BLOCK
  5
261
330
260
100
AcDbEntity
  8
0
100
AcDbBlockBegin
  2
SW_CENTERMARKSYMBOL_10
 70
     0
 10
0.0
 20
0.0
 30
0.0
  3
SW_CENTERMARKSYMBOL_10
  1
SW_CENTERMARKSYMBOL_10
  0
LINE
  5
263
330
260
100
AcDbEntity
  8
0
  6
Continuous
 62
     0
370
     0
100
AcDbLine
 10
0.0
 20
0.0
 30
0.0
 11
0.0
 21
0.0508
 31
0.0
  0
LINE
  5
264
330
260
100
AcDbEntity
  8
0
  6
Continuous
 62
     0
370
     0
100
AcDbLine
 10
0.0
 20
0.0
 30
0.0
 11
-0.0508
 21
0.0
 31
0.0
  0
LINE
  5
265
330
260
100
AcDbEntity
  8
0
  6
Continuous
 62
     0
370
     0
100
AcDbLine
 10
0.0
 20
0.0
 30
0.0
 11
0.0
 21
-0.0508
 31
0.0
  0
LINE
  5
266
330
260
100
AcDbEntity
  8
0
  6
Continuous
 62
     0
370
     0
100
AcDbLine
 10
0.0
 20
0.0
 30
0.0
 11
0.0508
 21
0.0
 31
0.0
  0
LINE
  5
267
330
260
100
AcDbEntity
  8
0
  6
Continuous
 62
     0
370
     0
100
AcDbLine
 10
0.0
 20
0.1016
 30
0.0
 11
0.0
 21
0.1143
 31
0.0
  0
LINE
  5
268
330
260
100
AcDbEntity
  8
0
  6
Continuous
 62
     0
370
     0
100
AcDbLine
 10
-0.1016
 20
0.0
 30
0.0
 11
-0.1143
 21
0.0
 31
0.0
  0
LINE
  5
269
330
260
100
AcDbEntity
  8
0
  6
Continuous
 62
     0
370
     0
100
AcDbLine
 10
0.0
 20
-0.1016
 30
0.0
 11
0.0
 21
-0.1143
 31
0.0
  0
LINE
  5
26A
330
260
100
AcDbEntity
  8
0
  6
Continuous
 62
     0
370
     0
100
AcDbLine
 10
0.1016
 20
0.0
 30
0.0
 11
0.1143
 21
0.0
 31
0.0
  0
ENDBLK
  5
262
330
260
100
AcDbEntity
  8
0
100
AcDbBlockEnd
  0
BLOCK
  5
26D
330
26C
100
AcDbEntity
  8
0
100
AcDbBlockBegin
  2
SW_CENTERMARKSYMBOL_11
 70
     0
 10
0.0
 20
0.0
 30
0.0
  3
SW_CENTERMARKSYMBOL_11
  1
SW_CENTERMARKSYMBOL_11
  0
LINE
  5
26F
330
26C
100
AcDbEntity
  8
0
  6
Continuous
 62
     0
370
     0
100
AcDbLine
 10
0.0
 20
0.0
 30
0.0
 11
0.0
 21
0.0508
 31
0.0
  0
LINE
  5
270
330
26C
100
AcDbEntity
  8
0
  6
Continuous
 62
     0
370
     0
100
AcDbLine
 10
0.0
 20
0.0
 30
0.0
 11
-0.0508
 21
0.0
 31
0.0
  0
LINE
  5
271
330
26C
100
AcDbEntity
  8
0
  6
Continuous
 62
     0
370
     0
100
AcDbLine
 10
0.0
 20
0.0
 30
0.0
 11
0.0
 21
-0.0508
 31
0.0
  0
LINE
  5
272
330
26C
100
AcDbEntity
  8
0
  6
Continuous
 62
     0
370
     0
100
AcDbLine
 10
0.0
 20
0.0
 30
0.0
 11
0.0508
 21
0.0
 31
0.0
  0
LINE
  5
273
330
26C
100
AcDbEntity
  8
0
  6
Continuous
 62
     0
370
     0
100
AcDbLine
 10
0.0
 20
0.1016
 30
0.0
 11
0.0
 21
0.1143
 31
0.0
  0
LINE
  5
274
330
26C
100
AcDbEntity
  8
0
  6
Continuous
 62
     0
370
     0
100
AcDbLine
 10
-0.1016
 20
0.0
 30
0.0
 11
-0.1143
 21
0.0
 31
0.0
  0
LINE
  5
275
330
26C
100
AcDbEntity
  8
0
  6
Continuous
 62
     0
370
     0
100
AcDbLine
 10
0.0
 20
-0.1016
 30
0.0
 11
0.0
 21
-0.1143
 31
0.0
  0
LINE
  5
276
330
26C
100
AcDbEntity
  8
0
  6
Continuous
 62
     0
370
     0
100
AcDbLine
 10
0.1016
 20
0.0
 30
0.0
 11
0.1143
 21
0.0
 31
0.0
  0
ENDBLK
  5
26E
330
26C
100
AcDbEntity
  8
0
100
AcDbBlockEnd
  0
BLOCK
  5
279
330
278
100
AcDbEntity
  8
0
100
AcDbBlockBegin
  2
SW_CENTERMARKSYMBOL_12
 70
     0
 10
0.0
 20
0.0
 30
0.0
  3
SW_CENTERMARKSYMBOL_12
  1
SW_CENTERMARKSYMBOL_12
  0
LINE
  5
27B
330
278
100
AcDbEntity
  8
0
  6
Continuous
 62
     0
370
     0
100
AcDbLine
 10
0.0
 20
0.0
 30
0.0
 11
0.0
 21
0.0508
 31
0.0
  0
LINE
  5
27C
330
278
100
AcDbEntity
  8
0
  6
Continuous
 62
     0
370
     0
100
AcDbLine
 10
0.0
 20
0.0
 30
0.0
 11
-0.0508
 21
0.0
 31
0.0
  0
LINE
  5
27D
330
278
100
AcDbEntity
  8
0
  6
Continuous
 62
     0
370
     0
100
AcDbLine
 10
0.0
 20
0.0
 30
0.0
 11
0.0
 21
-0.0508
 31
0.0
  0
LINE
  5
27E
330
278
100
AcDbEntity
  8
0
  6
Continuous
 62
     0
370
     0
100
AcDbLine
 10
0.0
 20
0.0
 30
0.0
 11
0.0508
 21
0.0
 31
0.0
  0
LINE
  5
27F
330
278
100
AcDbEntity
  8
0
  6
Continuous
 62
     0
370
     0
100
AcDbLine
 10
0.0
 20
0.1016
 30
0.0
 11
0.0
 21
0.1143
 31
0.0
  0
LINE
  5
280
330
278
100
AcDbEntity
  8
0
  6
Continuous
 62
     0
370
     0
100
AcDbLine
 10
-0.1016
 20
0.0
 30
0.0
 11
-0.1143
 21
0.0
 31
0.0
  0
LINE
  5
281
330
278
100
AcDbEntity
  8
0
  6
Continuous
 62
     0
370
     0
100
AcDbLine
 10
0.0
 20
-0.1016
 30
0.0
 11
0.0
 21
-0.1143
 31
0.0
  0
LINE
  5
282
330
278
100
AcDbEntity
  8
0
  6
Continuous
 62
     0
370
     0
100
AcDbLine
 10
0.1016
 20
0.0
 30
0.0
 11
0.1143
 21
0.0
 31
0.0
  0
ENDBLK
  5
27A
330
278
100
AcDbEntity
  8
0
100
AcDbBlockEnd
  0
BLOCK
  5
285
330
284
100
AcDbEntity
  8
0
100
AcDbBlockBegin
  2
SW_CENTERMARKSYMBOL_13
 70
     0
 10
0.0
 20
0.0
 30
0.0
  3
SW_CENTERMARKSYMBOL_13
  1
SW_CENTERMARKSYMBOL_13
  0
LINE
  5
287
330
284
100
AcDbEntity
  8
0
  6
Continuous
 62
     0
370
     0
100
AcDbLine
 10
0.0
 20
0.0
 30
0.0
 11
0.0
 21
0.0508
 31
0.0
  0
LINE
  5
288
330
284
100
AcDbEntity
  8
0
  6
Continuous
 62
     0
370
     0
100
AcDbLine
 10
0.0
 20
0.0
 30
0.0
 11
-0.0508
 21
0.0
 31
0.0
  0
LINE
  5
289
330
284
100
AcDbEntity
  8
0
  6
Continuous
 62
     0
370
     0
100
AcDbLine
 10
0.0
 20
0.0
 30
0.0
 11
0.0
 21
-0.0508
 31
0.0
  0
LINE
  5
28A
330
284
100
AcDbEntity
  8
0
  6
Continuous
 62
     0
370
     0
100
AcDbLine
 10
0.0
 20
0.0
 30
0.0
 11
0.0508
 21
0.0
 31
0.0
  0
LINE
  5
28B
330
284
100
AcDbEntity
  8
0
  6
Continuous
 62
     0
370
     0
100
AcDbLine
 10
0.0
 20
0.1016
 30
0.0
 11
0.0
 21
0.1143
 31
0.0
  0
LINE
  5
28C
330
284
100
AcDbEntity
  8
0
  6
Continuous
 62
     0
370
     0
100
AcDbLine
 10
-0.1016
 20
0.0
 30
0.0
 11
-0.1143
 21
0.0
 31
0.0
  0
LINE
  5
28D
330
284
100
AcDbEntity
  8
0
  6
Continuous
 62
     0
370
     0
100
AcDbLine
 10
0.0
 20
-0.1016
 30
0.0
 11
0.0
 21
-0.1143
 31
0.0
  0
LINE
  5
28E
330
284
100
AcDbEntity
  8
0
  6
Continuous
 62
     0
370
     0
100
AcDbLine
 10
0.1016
 20
0.0
 30
0.0
 11
0.1143
 21
0.0
 31
0.0
  0
ENDBLK
  5
286
330
284
100
AcDbEntity
  8
0
100
AcDbBlockEnd
  0
BLOCK
  5
291
330
290
100
AcDbEntity
  8
0
100
AcDbBlockBegin
  2
SW_CENTERMARKSYMBOL_14
 70
     0
 10
0.0
 20
0.0
 30
0.0
  3
SW_CENTERMARKSYMBOL_14
  1
SW_CENTERMARKSYMBOL_14
  0
LINE
  5
293
330
290
100
AcDbEntity
  8
0
  6
Continuous
 62
     0
370
     0
100
AcDbLine
 10
0.0
 20
0.0
 30
0.0
 11
0.0
 21
0.0508
 31
0.0
  0
LINE
  5
294
330
290
100
AcDbEntity
  8
0
  6
Continuous
 62
     0
370
     0
100
AcDbLine
 10
0.0
 20
0.0
 30
0.0
 11
-0.0508
 21
0.0
 31
0.0
  0
LINE
  5
295
330
290
100
AcDbEntity
  8
0
  6
Continuous
 62
     0
370
     0
100
AcDbLine
 10
0.0
 20
0.0
 30
0.0
 11
0.0
 21
-0.0508
 31
0.0
  0
LINE
  5
296
330
290
100
AcDbEntity
  8
0
  6
Continuous
 62
     0
370
     0
100
AcDbLine
 10
0.0
 20
0.0
 30
0.0
 11
0.0508
 21
0.0
 31
0.0
  0
LINE
  5
297
330
290
100
AcDbEntity
  8
0
  6
Continuous
 62
     0
370
     0
100
AcDbLine
 10
0.0
 20
0.1016
 30
0.0
 11
0.0
 21
0.1143
 31
0.0
  0
LINE
  5
298
330
290
100
AcDbEntity
  8
0
  6
Continuous
 62
     0
370
     0
100
AcDbLine
 10
-0.1016
 20
0.0
 30
0.0
 11
-0.1143
 21
0.0
 31
0.0
  0
LINE
  5
299
330
290
100
AcDbEntity
  8
0
  6
Continuous
 62
     0
370
     0
100
AcDbLine
 10
0.0
 20
-0.1016
 30
0.0
 11
0.0
 21
-0.1143
 31
0.0
  0
LINE
  5
29A
330
290
100
AcDbEntity
  8
0
  6
Continuous
 62
     0
370
     0
100
AcDbLine
 10
0.1016
 20
0.0
 30
0.0
 11
0.1143
 21
0.0
 31
0.0
  0
ENDBLK
  5
292
330
290
100
AcDbEntity
  8
0
100
AcDbBlockEnd
  0
BLOCK
  5
29D
330
29C
100
AcDbEntity
  8
0
100
AcDbBlockBegin
  2
SW_CENTERMARKSYMBOL_15
 70
     0
 10
0.0
 20
0.0
 30
0.0
  3
SW_CENTERMARKSYMBOL_15
  1
SW_CENTERMARKSYMBOL_15
  0
LINE
  5
29F
330
29C
100
AcDbEntity
  8
0
  6
Continuous
 62
     0
370
     0
100
AcDbLine
 10
0.0
 20
0.0
 30
0.0
 11
0.0
 21
0.0508
 31
0.0
  0
LINE
  5
2A0
330
29C
100
AcDbEntity
  8
0
  6
Continuous
 62
     0
370
     0
100
AcDbLine
 10
0.0
 20
0.0
 30
0.0
 11
-0.0508
 21
0.0
 31
0.0
  0
LINE
  5
2A1
330
29C
100
AcDbEntity
  8
0
  6
Continuous
 62
     0
370
     0
100
AcDbLine
 10
0.0
 20
0.0
 30
0.0
 11
0.0
 21
-0.0508
 31
0.0
  0
LINE
  5
2A2
330
29C
100
AcDbEntity
  8
0
  6
Continuous
 62
     0
370
     0
100
AcDbLine
 10
0.0
 20
0.0
 30
0.0
 11
0.0508
 21
0.0
 31
0.0
  0
LINE
  5
2A3
330
29C
100
AcDbEntity
  8
0
  6
Continuous
 62
     0
370
     0
100
AcDbLine
 10
0.0
 20
0.1016
 30
0.0
 11
0.0
 21
0.1143
 31
0.0
  0
LINE
  5
2A4
330
29C
100
AcDbEntity
  8
0
  6
Continuous
 62
     0
370
     0
100
AcDbLine
 10
-0.1016
 20
0.0
 30
0.0
 11
-0.1143
 21
0.0
 31
0.0
  0
LINE
  5
2A5
330
29C
100
AcDbEntity
  8
0
  6
Continuous
 62
     0
370
     0
100
AcDbLine
 10
0.0
 20
-0.1016
 30
0.0
 11
0.0
 21
-0.1143
 31
0.0
  0
LINE
  5
2A6
330
29C
100
AcDbEntity
  8
0
  6
Continuous
 62
     0
370
     0
100
AcDbLine
 10
0.1016
 20
0.0
 30
0.0
 11
0.1143
 21
0.0
 31
0.0
  0
ENDBLK
  5
29E
330
29C
100
AcDbEntity
  8
0
100
AcDbBlockEnd
  0
BLOCK
  5
2A9
330
2A8
100
AcDbEntity
  8
0
100
AcDbBlockBegin
  2
SW_CENTERMARKSYMBOL_16
 70
     0
 10
0.0
 20
0.0
 30
0.0
  3
SW_CENTERMARKSYMBOL_16
  1
SW_CENTERMARKSYMBOL_16
  0
LINE
  5
2AB
330
2A8
100
AcDbEntity
  8
0
  6
Continuous
 62
     0
370
     0
100
AcDbLine
 10
0.0
 20
0.0
 30
0.0
 11
0.0
 21
0.0508
 31
0.0
  0
LINE
  5
2AC
330
2A8
100
AcDbEntity
  8
0
  6
Continuous
 62
     0
370
     0
100
AcDbLine
 10
0.0
 20
0.0
 30
0.0
 11
-0.0508
 21
0.0
 31
0.0
  0
LINE
  5
2AD
330
2A8
100
AcDbEntity
  8
0
  6
Continuous
 62
     0
370
     0
100
AcDbLine
 10
0.0
 20
0.0
 30
0.0
 11
0.0
 21
-0.0508
 31
0.0
  0
LINE
  5
2AE
330
2A8
100
AcDbEntity
  8
0
  6
Continuous
 62
     0
370
     0
100
AcDbLine
 10
0.0
 20
0.0
 30
0.0
 11
0.0508
 21
0.0
 31
0.0
  0
LINE
  5
2AF
330
2A8
100
AcDbEntity
  8
0
  6
Continuous
 62
     0
370
     0
100
AcDbLine
 10
0.0
 20
0.1016
 30
0.0
 11
0.0
 21
0.14605
 31
0.0
  0
LINE
  5
2B0
330
2A8
100
AcDbEntity
  8
0
  6
Continuous
 62
     0
370
     0
100
AcDbLine
 10
-0.1016
 20
0.0
 30
0.0
 11
-0.14605
 21
0.0
 31
0.0
  0
LINE
  5
2B1
330
2A8
100
AcDbEntity
  8
0
  6
Continuous
 62
     0
370
     0
100
AcDbLine
 10
0.0
 20
-0.1016
 30
0.0
 11
0.0
 21
-0.14605
 31
0.0
  0
LINE
  5
2B2
330
2A8
100
AcDbEntity
  8
0
  6
Continuous
 62
     0
370
     0
100
AcDbLine
 10
0.1016
 20
0.0
 30
0.0
 11
0.14605
 21
0.0
 31
0.0
  0
ENDBLK
  5
2AA
330
2A8
100
AcDbEntity
  8
0
100
AcDbBlockEnd
  0
BLOCK
  5
2B5
330
2B4
100
AcDbEntity
  8
0
100
AcDbBlockBegin
  2
SW_CENTERMARKSYMBOL_17
 70
     0
 10
0.0
 20
0.0
 30
0.0
  3
SW_CENTERMARKSYMBOL_17
  1
SW_CENTERMARKSYMBOL_17
  0
LINE
  5
2B7
330
2B4
100
AcDbEntity
  8
0
  6
Continuous
 62
     0
370
     0
100
AcDbLine
 10
0.0
 20
0.0
 30
0.0
 11
0.0
 21
0.0508
 31
0.0
  0
LINE
  5
2B8
330
2B4
100
AcDbEntity
  8
0
  6
Continuous
 62
     0
370
     0
100
AcDbLine
 10
0.0
 20
0.0
 30
0.0
 11
-0.0508
 21
0.0
 31
0.0
  0
LINE
  5
2B9
330
2B4
100
AcDbEntity
  8
0
  6
Continuous
 62
     0
370
     0
100
AcDbLine
 10
0.0
 20
0.0
 30
0.0
 11
0.0
 21
-0.0508
 31
0.0
  0
LINE
  5
2BA
330
2B4
100
AcDbEntity
  8
0
  6
Continuous
 62
     0
370
     0
100
AcDbLine
 10
0.0
 20
0.0
 30
0.0
 11
0.0508
 21
0.0
 31
0.0
  0
LINE
  5
2BB
330
2B4
100
AcDbEntity
  8
0
  6
Continuous
 62
     0
370
     0
100
AcDbLine
 10
0.0
 20
0.1016
 30
0.0
 11
0.0
 21
0.14605
 31
0.0
  0
LINE
  5
2BC
330
2B4
100
AcDbEntity
  8
0
  6
Continuous
 62
     0
370
     0
100
AcDbLine
 10
-0.1016
 20
0.0
 30
0.0
 11
-0.14605
 21
0.0
 31
0.0
  0
LINE
  5
2BD
330
2B4
100
AcDbEntity
  8
0
  6
Continuous
 62
     0
370
     0
100
AcDbLine
 10
0.0
 20
-0.1016
 30
0.0
 11
0.0
 21
-0.14605
 31
0.0
  0
LINE
  5
2BE
330
2B4
100
AcDbEntity
  8
0
  6
Continuous
 62
     0
370
     0
100
AcDbLine
 10
0.1016
 20
0.0
 30
0.0
 11
0.14605
 21
0.0
 31
0.0
  0
ENDBLK
  5
2B6
330
2B4
100
AcDbEntity
  8
0
100
AcDbBlockEnd
  0
BLOCK
  5
2C1
330
2C0
100
AcDbEntity
  8
0
100
AcDbBlockBegin
  2
SW_CENTERMARKSYMBOL_18
 70
     0
 10
0.0
 20
0.0
 30
0.0
  3
SW_CENTERMARKSYMBOL_18
  1
SW_CENTERMARKSYMBOL_18
  0
LINE
  5
2C3
330
2C0
100
AcDbEntity
  8
0
  6
Continuous
 62
     0
370
     0
100
AcDbLine
 10
0.0
 20
0.0
 30
0.0
 11
0.0
 21
0.0508
 31
0.0
  0
LINE
  5
2C4
330
2C0
100
AcDbEntity
  8
0
  6
Continuous
 62
     0
370
     0
100
AcDbLine
 10
0.0
 20
0.0
 30
0.0
 11
-0.0508
 21
0.0
 31
0.0
  0
LINE
  5
2C5
330
2C0
100
AcDbEntity
  8
0
  6
Continuous
 62
     0
370
     0
100
AcDbLine
 10
0.0
 20
0.0
 30
0.0
 11
0.0
 21
-0.0508
 31
0.0
  0
LINE
  5
2C6
330
2C0
100
AcDbEntity
  8
0
  6
Continuous
 62
     0
370
     0
100
AcDbLine
 10
0.0
 20
0.0
 30
0.0
 11
0.0508
 21
0.0
 31
0.0
  0
LINE
  5
2C7
330
2C0
100
AcDbEntity
  8
0
  6
Continuous
 62
     0
370
     0
100
AcDbLine
 10
0.0
 20
0.1016
 30
0.0
 11
0.0
 21
0.14605
 31
0.0
  0
LINE
  5
2C8
330
2C0
100
AcDbEntity
  8
0
  6
Continuous
 62
     0
370
     0
100
AcDbLine
 10
-0.1016
 20
0.0
 30
0.0
 11
-0.14605
 21
0.0
 31
0.0
  0
LINE
  5
2C9
330
2C0
100
AcDbEntity
  8
0
  6
Continuous
 62
     0
370
     0
100
AcDbLine
 10
0.0
 20
-0.1016
 30
0.0
 11
0.0
 21
-0.14605
 31
0.0
  0
LINE
  5
2CA
330
2C0
100
AcDbEntity
  8
0
  6
Continuous
 62
     0
370
     0
100
AcDbLine
 10
0.1016
 20
0.0
 30
0.0
 11
0.14605
 21
0.0
 31
0.0
  0
ENDBLK
  5
2C2
330
2C0
100
AcDbEntity
  8
0
100
AcDbBlockEnd
  0
BLOCK
  5
2CD
330
2CC
100
AcDbEntity
  8
0
100
AcDbBlockBegin
  2
SW_CENTERMARKSYMBOL_19
 70
     0
 10
0.0
 20
0.0
 30
0.0
  3
SW_CENTERMARKSYMBOL_19
  1
SW_CENTERMARKSYMBOL_19
  0
LINE
  5
2CF
330
2CC
100
AcDbEntity
  8
0
  6
Continuous
 62
     0
370
     0
100
AcDbLine
 10
0.0
 20
0.0
 30
0.0
 11
0.0
 21
0.0508
 31
0.0
  0
LINE
  5
2D0
330
2CC
100
AcDbEntity
  8
0
  6
Continuous
 62
     0
370
     0
100
AcDbLine
 10
0.0
 20
0.0
 30
0.0
 11
-0.0508
 21
0.0
 31
0.0
  0
LINE
  5
2D1
330
2CC
100
AcDbEntity
  8
0
  6
Continuous
 62
     0
370
     0
100
AcDbLine
 10
0.0
 20
0.0
 30
0.0
 11
0.0
 21
-0.0508
 31
0.0
  0
LINE
  5
2D2
330
2CC
100
AcDbEntity
  8
0
  6
Continuous
 62
     0
370
     0
100
AcDbLine
 10
0.0
 20
0.0
 30
0.0
 11
0.0508
 21
0.0
 31
0.0
  0
LINE
  5
2D3
330
2CC
100
AcDbEntity
  8
0
  6
Continuous
 62
     0
370
     0
100
AcDbLine
 10
0.0
 20
0.1016
 30
0.0
 11
0.0
 21
0.14605
 31
0.0
  0
LINE
  5
2D4
330
2CC
100
AcDbEntity
  8
0
  6
Continuous
 62
     0
370
     0
100
AcDbLine
 10
-0.1016
 20
0.0
 30
0.0
 11
-0.14605
 21
0.0
 31
0.0
  0
LINE
  5
2D5
330
2CC
100
AcDbEntity
  8
0
  6
Continuous
 62
     0
370
     0
100
AcDbLine
 10
0.0
 20
-0.1016
 30
0.0
 11
0.0
 21
-0.14605
 31
0.0
  0
LINE
  5
2D6
330
2CC
100
AcDbEntity
  8
0
  6
Continuous
 62
     0
370
     0
100
AcDbLine
 10
0.1016
 20
0.0
 30
0.0
 11
0.14605
 21
0.0
 31
0.0
  0
ENDBLK
  5
2CE
330
2CC
100
AcDbEntity
  8
0
100
AcDbBlockEnd
  0
ENDSEC
  0
SECTION
  2
ENTITIES
  0
LINE
  5
70
330
1F
100
AcDbEntity
  8
0
  6
Continuous
 62
     7
370
     0
100
AcDbLine
 10
0.83801458
 20
20.8078658537
 30
0.0
 11
27.00001458
 21
20.8078658537
 31
0.0
  0
LINE
  5
71
330
1F
100
AcDbEntity
  8
0
  6
Continuous
 62
     7
370
     0
100
AcDbLine
 10
0.83801458
 20
20.8078658537
 30
0.0
 11
0.83801458
 21
0.9958658537
 31
0.0
  0
LINE
  5
72
330
1F
100
AcDbEntity
  8
0
  6
Continuous
 62
     7
370
     0
100
AcDbLine
 10
27.00001458
 20
0.9958658537
 30
0.0
 11
0.83801458
 21
0.9958658537
 31
0.0
  0
LINE
  5
73
330
1F
100
AcDbEntity
  8
0
  6
Continuous
 62
     7
370
     0
100
AcDbLine
 10
27.00001458
 20
0.9958658537
 30
0.0
 11
27.00001458
 21
20.8078658537
 31
0.0
  0
LINE
  5
74
330
1F
100
AcDbEntity
  8
0
  6
Continuous
 62
     7
370
     0
100
AcDbLine
 10
12.1873876871
 20
0.9958658537
 30
0.0
 11
12.1873876871
 21
5.9816315296
 31
0.0
  0
LINE
  5
75
330
1F
100
AcDbEntity
  8
0
  6
Continuous
 62
     7
370
     0
100
AcDbLine
 10
12.1873876871
 20
5.9816315296
 30
0.0
 11
27.00001458
 21
5.9816315296
 31
0.0
  0
LINE
  5
76
330
1F
100
AcDbEntity
  8
0
  6
Continuous
 62
     7
370
     0
100
AcDbLine
 10
15.6962735384
 20
5.9816315296
 30
0.0
 11
15.6962735384
 21
0.9958658537
 31
0.0
  0
LINE
  5
77
330
1F
100
AcDbEntity
  8
0
  6
Continuous
 62
     7
370
     0
100
AcDbLine
 10
19.9928657912
 20
5.9816315296
 30
0.0
 11
19.9928657912
 21
0.9958658537
 31
0.0
  0
LINE
  5
78
330
1F
100
AcDbEntity
  8
0
  6
Continuous
 62
     7
370
     0
100
AcDbLine
 10
19.9928657912
 20
1.5365958856
 30
0.0
 11
27.00001458
 21
1.5365958856
 31
0.0
  0
LINE
  5
79
330
1F
100
AcDbEntity
  8
0
  6
Continuous
 62
     7
370
     0
100
AcDbLine
 10
19.9928657912
 20
2.824318064
 30
0.0
 11
27.00001458
 21
2.824318064
 31
0.0
  0
LINE
  5
7A
330
1F
100
AcDbEntity
  8
0
  6
Continuous
 62
     7
370
     0
100
AcDbLine
 10
19.9928657912
 20
5.052746742
 30
0.0
 11
27.00001458
 21
5.052746742
 31
0.0
  0
LINE
  5
7B
330
1F
100
AcDbEntity
  8
0
  6
Continuous
 62
     7
370
     0
100
AcDbLine
 10
20.99754945
 20
2.824318064
 30
0.0
 11
20.99754945
 21
1.5365958856
 31
0.0
  0
LINE
  5
7C
330
1F
100
AcDbEntity
  8
0
  6
Continuous
 62
     7
370
     0
100
AcDbLine
 10
22.0836325347
 20
1.5365958856
 30
0.0
 11
22.0836325347
 21
0.9958658537
 31
0.0
  0
LINE
  5
7D
330
1F
100
AcDbEntity
  8
0
  6
Continuous
 62
     7
370
     0
100
AcDbLine
 10
25.5472989295
 20
2.824318064
 30
0.0
 11
25.5472989295
 21
1.5365958856
 31
0.0
  0
LINE
  5
7E
330
1F
100
AcDbEntity
  8
0
  6
Continuous
 62
     7
370
     0
100
AcDbLine
 10
24.5522893843
 20
1.5365958856
 30
0.0
 11
24.5522893843
 21
0.9958658537
 31
0.0
  0
LINE
  5
7F
330
1F
100
AcDbEntity
  8
0
  6
Continuous
 62
     7
370
     0
100
AcDbLine
 10
12.1873876871
 20
1.4973667595
 30
0.0
 11
15.6962735384
 21
1.4973667595
 31
0.0
  0
LINE
  5
80
330
1F
100
AcDbEntity
  8
0
  6
Continuous
 62
     7
370
     0
100
AcDbLine
 10
15.6962735384
 20
4.556559687
 30
0.0
 11
19.9928657912
 21
4.556559687
 31
0.0
  0
LINE
  5
81
330
1F
100
AcDbEntity
  8
0
  6
Continuous
 62
     7
370
     0
100
AcDbLine
 10
15.6962735384
 20
5.032809687
 30
0.0
 11
19.9928657912
 21
5.032809687
 31
0.0
  0
LINE
  5
82
330
1F
100
AcDbEntity
  8
0
  6
Continuous
 62
     7
370
     0
100
AcDbLine
 10
15.6962735384
 20
5.509059687
 30
0.0
 11
19.9928657912
 21
5.509059687
 31
0.0
  0
LINE
  5
83
330
1F
100
AcDbEntity
  8
0
  6
Continuous
 62
     7
370
     0
100
AcDbLine
 10
19.9928657912
 20
3.127809687
 30
0.0
 11
15.6962735384
 21
3.127809687
 31
0.0
  0
LINE
  5
84
330
1F
100
AcDbEntity
  8
0
  6
Continuous
 62
     7
370
     0
100
AcDbLine
 10
18.7760814186
 20
5.9816315296
 30
0.0
 11
18.7760814186
 21
3.127809687
 31
0.0
  0
LINE
  5
85
330
1F
100
AcDbEntity
  8
0
  6
Continuous
 62
     7
370
     0
100
AcDbLine
 10
17.5860223188
 20
5.9816315296
 30
0.0
 11
17.5860223188
 21
3.127809687
 31
0.0
  0
LINE
  5
86
330
1F
100
AcDbEntity
  8
0
  6
Continuous
 62
     7
370
     0
100
AcDbLine
 10
12.1873876871
 20
2.1737231875
 30
0.0
 11
15.6962735384
 21
2.1737231875
 31
0.0
  0
LINE
  5
87
330
1F
100
AcDbEntity
  8
0
  6
Continuous
 62
     7
370
     0
100
AcDbLine
 10
12.1873876871
 20
2.8595231875
 30
0.0
 11
15.6962735384
 21
2.8595231875
 31
0.0
  0
LINE
  5
88
330
1F
100
AcDbEntity
  8
0
  6
Continuous
 62
     7
370
     0
100
AcDbLine
 10
15.6962735384
 20
5.5932866281
 30
0.0
 11
12.1873876871
 21
5.5932866281
 31
0.0
  0
LINE
  5
89
330
1F
100
AcDbEntity
  8
0
  6
Continuous
 62
     7
370
     0
100
AcDbLine
 10
19.9928657912
 20
4.080309687
 30
0.0
 11
15.6962735384
 21
4.080309687
 31
0.0
  0
LINE
  5
8A
330
1F
100
AcDbEntity
  8
0
  6
Continuous
 62
     7
370
     0
100
AcDbLine
 10
19.9928657912
 20
3.604059687
 30
0.0
 11
15.6962735384
 21
3.604059687
 31
0.0
  0
LINE
  5
8B
330
1F
100
AcDbEntity
  8
0
  6
Continuous
 62
     7
370
     0
100
AcDbLine
 10
21.99875458
 20
0.9958658537
 30
0.0
 11
21.99875458
 21
0.7804758709
 31
0.0
  0
LINE
  5
8C
330
1F
100
AcDbEntity
  8
0
  6
Continuous
 62
     7
370
     0
100
AcDbLine
 10
16.99812958
 20
0.9958658537
 30
0.0
 11
16.99812958
 21
0.7804758709
 31
0.0
  0
LINE
  5
8D
330
1F
100
AcDbEntity
  8
0
  6
Continuous
 62
     7
370
     0
100
AcDbLine
 10
11.99750458
 20
0.9958658537
 30
0.0
 11
11.99750458
 21
0.7804758709
 31
0.0
  0
LINE
  5
8E
330
1F
100
AcDbEntity
  8
0
  6
Continuous
 62
     7
370
     0
100
AcDbLine
 10
6.99687958
 20
0.9958658537
 30
0.0
 11
6.99687958
 21
0.7804758709
 31
0.0
  0
LINE
  5
8F
330
1F
100
AcDbEntity
  8
0
  6
Continuous
 62
     7
370
     0
100
AcDbLine
 10
6.99687958
 20
0.9958658537
 30
0.0
 11
7.0287692135
 21
0.90805
 31
0.0
  0
LINE
  5
90
330
1F
100
AcDbEntity
  8
0
  6
Continuous
 62
     7
370
     0
100
AcDbLine
 10
7.0287692135
 20
0.90805
 30
0.0
 11
6.9632217416
 21
0.90805
 31
0.0
  0
LINE
  5
91
330
1F
100
AcDbEntity
  8
0
  6
Continuous
 62
     7
370
     0
100
AcDbLine
 10
6.9632217416
 20
0.90805
 30
0.0
 11
6.99687958
 21
0.9958658537
 31
0.0
  0
MTEXT
  5
93
330
1F
100
AcDbEntity
  8
0
  6
Continuous
 62
     7
370
     0
100
AcDbMText
 10
23.6548251341
 20
4.2349769814
 30
0.0
 40
0.635
 41
0.0
 71
     2
 72
     1
  1
Structural Hub
  7
SLDTEXTSTYLE0
 73
     1
 44
1.0
  0
MTEXT
  5
94
330
1F
100
AcDbEntity
  8
0
  6
Continuous
 62
     7
370
     0
100
AcDbMText
 10
26.303321383
 20
2.4122214029
 30
0.0
 40
0.635
 41
0.0
 71
     2
 72
     1
  1
2
  7
SLDTEXTSTYLE0
 73
     1
 44
1.0
  0
MTEXT
  5
95
330
1F
100
AcDbEntity
  8
0
  6
Continuous
 62
     7
370
     0
100
AcDbMText
 10
13.9353893468
 20
1.3153268975
 30
0.0
 40
0.15875
 41
0.0
 71
     2
 72
     1
  1
DO NOT SCALE DRAWING
  7
SLDTEXTSTYLE0
 73
     1
 44
1.0
  0
MTEXT
  5
96
330
1F
100
AcDbEntity
  8
0
  6
Continuous
 62
     7
370
     0
100
AcDbMText
 10
23.3342208469
 20
2.4131578404
 30
0.0
 40
0.635
 41
0.0
 71
     2
 72
     1
  1
hub_support
  7
SLDTEXTSTYLE0
 73
     1
 44
1.0
  0
MTEXT
  5
98
330
1F
100
AcDbEntity
  8
0
  6
Continuous
 62
     7
370
     0
100
AcDbMText
 10
24.7831047347
 20
1.4031568412
 30
0.0
 40
0.254
 41
0.0
 71
     1
 72
     1
  1
SHEET 1 OF 1
  7
SLDTEXTSTYLE1
 73
     1
 44
1.0
  0
MTEXT
  5
99
330
1F
100
AcDbEntity
  8
0
  6
Continuous
 62
     7
370
     0
100
AcDbMText
 10
19.3927605948
 20
5.3635490015
 30
0.0
 40
0.1905
 41
0.0
 71
     2
 72
     1
  1
11/18/2020
  7
SLDTEXTSTYLE0
 73
     1
 44
1.0
  0
MTEXT
  5
9A
330
1F
100
AcDbEntity
  8
0
  6
Continuous
 62
     7
370
     0
100
AcDbMText
 10
18.1930864843
 20
5.3737012415
 30
0.0
 40
0.1905
 41
0.0
 71
     2
 72
     1
  1
D. SMITH
  7
SLDTEXTSTYLE0
 73
     1
 44
1.0
  0
MTEXT
  5
9B
330
1F
100
AcDbEntity
  8
0
  6
Continuous
 62
     7
370
     0
100
AcDbMText
 10
12.3058117759
 20
5.8757703497
 30
0.0
 40
0.1778
 41
0.0
 71
     1
 72
     1
  1
UNLESS OTHERWISE SPECIFIED:
  7
SLDTEXTSTYLE0
 73
     1
 44
1.0
  0
MTEXT
  5
9C
330
1F
100
AcDbEntity
  8
0
  6
Continuous
 62
     7
370
     0
100
AcDbMText
 10
20.2148794705
 20
1.4023309213
 30
0.0
 40
0.254
 41
0.0
 71
     1
 72
     1
  1
SCALE: 1:5
  7
SLDTEXTSTYLE0
 73
     1
 44
1.0
  0
MTEXT
  5
9D
330
1F
100
AcDbEntity
  8
0
  6
Continuous
 62
     7
370
     0
100
AcDbMText
 10
22.1040176783
 20
1.3936378895
 30
0.0
 40
0.254
 41
0.0
 71
     1
 72
     1
  1
WEIGHT:
  7
SLDTEXTSTYLE0
 73
     1
 44
1.0
  0
MTEXT
  5
9E
330
1F
100
AcDbEntity
  8
0
  6
Continuous
 62
     7
370
     0
100
AcDbMText
 10
25.9785055698
 20
2.7481943993
 30
0.0
 40
0.254
 41
0.0
 71
     1
 72
     1
  1
REV
  7
SLDTEXTSTYLE0
 73
     1
 44
1.0
  0
MTEXT
  5
A0
330
1F
100
AcDbEntity
  8
0
  6
Continuous
 62
     7
370
     0
100
AcDbMText
 10
21.078081008
 20
2.7581162244
 30
0.0
 40
0.254
 41
0.0
 71
     1
 72
     1
  1
DWG.  NO.
  7
SLDTEXTSTYLE2
 73
     1
 44
1.0
  0
MTEXT
  5
A1
330
1F
100
AcDbEntity
  8
0
  6
Continuous
 62
     7
370
     0
100
AcDbMText
 10
20.2180145885
 20
2.3983037668
 30
0.0
 40
0.635
 41
0.0
 71
     1
 72
     1
  1
A
  7
SLDTEXTSTYLE0
 73
     1
 44
1.0
  0
MTEXT
  5
A2
330
1F
100
AcDbEntity
  8
0
  6
Continuous
 62
     7
370
     0
100
AcDbMText
 10
20.1979737827
 20
2.7616692247
 30
0.0
 40
0.254
 41
0.0
 71
     1
 72
     1
  1
SIZE
  7
SLDTEXTSTYLE0
 73
     1
 44
1.0
  0
MTEXT
  5
A3
330
1F
100
AcDbEntity
  8
0
  6
Continuous
 62
     7
370
     0
100
AcDbMText
 10
20.109358861
 20
4.9651618064
 30
0.0
 40
0.254
 41
0.0
 71
     1
 72
     1
  1
TITLE:
  7
SLDTEXTSTYLE0
 73
     1
 44
1.0
  0
MTEXT
  5
A5
330
1F
100
AcDbEntity
  8
0
  6
Continuous
 62
     7
370
     0
100
AcDbMText
 10
23.5612225414
 20
5.7547145333
 30
0.0
 40
0.47625
 41
0.0
 71
     2
 72
     1
  1
UChicago / KICP
  7
SLDTEXTSTYLE3
 73
     1
 44
1.0
  0
MTEXT
  5
A6
330
1F
100
AcDbEntity
  8
0
  6
Continuous
 62
     7
370
     0
100
AcDbMText
 10
17.872398832
 20
5.8181649635
 30
0.0
 40
0.1651
 41
0.0
 71
     1
 72
     1
  1
NAME
  7
SLDTEXTSTYLE0
 73
     1
 44
1.0
  0
MTEXT
  5
A7
330
1F
100
AcDbEntity
  8
0
  6
Continuous
 62
     7
370
     0
100
AcDbMText
 10
19.121503701
 20
5.8137549761
 30
0.0
 40
0.1651
 41
0.0
 71
     1
 72
     1
  1
DATE
  7
SLDTEXTSTYLE0
 73
     1
 44
1.0
  0
MTEXT
  5
A8
330
1F
100
AcDbEntity
  8
0
  6
Continuous
 62
     7
370
     0
100
AcDbMText
 10
15.8183953453
 20
3.0167359387
 30
0.0
 40
0.1651
 41
0.0
 71
     1
 72
     1
  1
COMMENTS:
  7
SLDTEXTSTYLE0
 73
     1
 44
1.0
  0
MTEXT
  5
A9
330
1F
100
AcDbEntity
  8
0
  6
Continuous
 62
     7
370
     0
100
AcDbMText
 10
15.816176511
 20
3.4381698266
 30
0.0
 40
0.1651
 41
0.0
 71
     1
 72
     1
  1
Q.A.
  7
SLDTEXTSTYLE0
 73
     1
 44
1.0
  0
MTEXT
  5
AA
330
1F
100
AcDbEntity
  8
0
  6
Continuous
 62
     7
370
     0
100
AcDbMText
 10
15.8203022453
 20
3.9104134196
 30
0.0
 40
0.1651
 41
0.0
 71
     1
 72
     1
  1
MFG APPR.
  7
SLDTEXTSTYLE0
 73
     1
 44
1.0
  0
MTEXT
  5
AB
330
1F
100
AcDbEntity
  8
0
  6
Continuous
 62
     7
370
     0
100
AcDbMText
 10
15.8077335214
 20
4.3859454535
 30
0.0
 40
0.1651
 41
0.0
 71
     1
 72
     1
  1
ENG APPR.
  7
SLDTEXTSTYLE0
 73
     1
 44
1.0
  0
MTEXT
  5
AC
330
1F
100
AcDbEntity
  8
0
  6
Continuous
 62
     7
370
     0
100
AcDbMText
 10
15.8150824036
 20
4.8495455683
 30
0.0
 40
0.1651
 41
0.0
 71
     1
 72
     1
  1
CHECKED
  7
SLDTEXTSTYLE0
 73
     1
 44
1.0
  0
MTEXT
  5
AD
330
1F
100
AcDbEntity
  8
0
  6
Continuous
 62
     7
370
     0
100
AcDbMText
 10
15.8096697663
 20
5.3381405131
 30
0.0
 40
0.1651
 41
0.0
 71
     1
 72
     1
  1
DRAWN
  7
SLDTEXTSTYLE0
 73
     1
 44
1.0
  0
MTEXT
  5
AE
330
1F
100
AcDbEntity
  8
0
  6
Continuous
 62
     7
370
     0
100
AcDbMText
 10
12.2449846487
 20
2.1196890169
 30
0.0
 40
0.1524
 41
0.0
 71
     1
 72
     1
  1
FINISH
  7
SLDTEXTSTYLE0
 73
     1
 44
1.0
  0
MTEXT
  5
AF
330
1F
100
AcDbEntity
  8
0
  6
Continuous
 62
     7
370
     0
100
AcDbMText
 10
12.2380351246
 20
2.8011672671
 30
0.0
 40
0.1524
 41
0.0
 71
     1
 72
     1
  1
MATERIAL
  7
SLDTEXTSTYLE0
 73
     1
 44
1.0
  0
MTEXT
  5
B0
330
1F
100
AcDbEntity
  8
0
  6
Continuous
 62
     7
370
     0
100
AcDbMText
 10
13.5946376357
 20
2.4985349734
 30
0.0
 40
0.1524
 41
0.0
 71
     1
 72
     1
  1
NYLON
  7
SLDTEXTSTYLE0
 73
     1
 44
1.0
  0
INSERT
  5
B7
330
1F
100
AcDbEntity
  8
0
  6
Continuous
 62
     7
370
     0
100
AcDbBlockReference
  2
SW_NOTE_0
 10
12.2817481957
 20
5.0924888558
 30
0.0
  0
MTEXT
  5
B8
330
1F
100
AcDbEntity
  8
0
  6
Continuous
 62
     7
370
     0
100
AcDbMText
 10
4.4165290153
 20
0.7888895188
 30
0.0
 40
0.238125
 41
0.0
 71
     1
 72
     1
  1
5
  7
SLDTEXTSTYLE0
 73
     1
 44
1.0
  0
MTEXT
  5
B9
330
1F
100
AcDbEntity
  8
0
  6
Continuous
 62
     7
370
     0
100
AcDbMText
 10
9.4584528306
 20
0.7968583297
 30
0.0
 40
0.238125
 41
0.0
 71
     1
 72
     1
  1
4
  7
SLDTEXTSTYLE0
 73
     1
 44
1.0
  0
MTEXT
  5
BA
330
1F
100
AcDbEntity
  8
0
  6
Continuous
 62
     7
370
     0
100
AcDbMText
 10
14.3064121485
 20
0.7915127279
 30
0.0
 40
0.238125
 41
0.0
 71
     1
 72
     1
  1
3
  7
SLDTEXTSTYLE0
 73
     1
 44
1.0
  0
MTEXT
  5
BB
330
1F
100
AcDbEntity
  8
0
  6
Continuous
 62
     7
370
     0
100
AcDbMText
 10
19.3191693178
 20
0.7935954031
 30
0.0
 40
0.238125
 41
0.0
 71
     1
 72
     1
  1
2
  7
SLDTEXTSTYLE0
 73
     1
 44
1.0
  0
MTEXT
  5
BC
330
1F
100
AcDbEntity
  8
0
  6
Continuous
 62
     7
370
     0
100
AcDbMText
 10
24.5414600173
 20
0.7654849105
 30
0.0
 40
0.238125
 41
0.0
 71
     1
 72
     1
  1
1
  7
SLDTEXTSTYLE0
 73
     1
 44
1.0
  0
ARC
  5
BD
330
1F
100
AcDbEntity
  8
0
  6
Continuous
 62
     7
370
    15
100
AcDbCircle
 10
8.8494127745
 20
13.0862440571
 30
0.0
 40
0.0508000000000022
100
AcDbArc
 50
306.7304107614
 51
38.3003545897
  0
ARC
  5
BE
330
1F
100
AcDbEntity
  8
0
  6
Continuous
 62
     7
370
    15
100
AcDbCircle
 10
7.3942875404
 20
11.9370407709
 30
0.0
 40
1.905000000000003
100
AcDbArc
 50
38.3003545897
 51
80.7976055736
  0
ARC
  5
BF
330
1F
100
AcDbEntity
  8
0
  6
Continuous
 62
     7
370
    15
100
AcDbCircle
 10
7.6908157297
 20
13.7673764431
 30
0.0
 40
0.0508000000000013
100
AcDbArc
 50
80.7976055736
 51
172.3675494019
  0
LINE
  5
C0
330
1F
100
AcDbEntity
  8
0
  6
Continuous
 62
     7
370
    15
100
AcDbLine
 10
7.5864626911
 20
13.3711303468
 30
0.0
 11
7.6404657936
 21
13.7741235855
 31
0.0
  0
ARC
  5
C1
330
1F
100
AcDbEntity
  8
0
  6
Continuous
 62
     7
370
    15
100
AcDbCircle
 10
7.6368126272
 20
13.3643832044
 30
0.0
 40
0.0508000000000006
100
AcDbArc
 50
172.3675494019
 51
260.3567584324
  0
ARC
  5
C2
330
1F
100
AcDbEntity
  8
0
  6
Continuous
 62
     7
370
    15
100
AcDbCircle
 10
7.3942875404
 20
11.9370407709
 30
0.0
 40
1.397000000000002
100
AcDbArc
 50
38.7412017309
 51
80.3567584324
  0
ARC
  5
C3
330
1F
100
AcDbEntity
  8
0
  6
Continuous
 62
     7
370
    15
100
AcDbCircle
 10
8.5235434385
 20
12.8430793775
 30
0.0
 40
0.0508000000000023
100
AcDbArc
 50
218.7412017309
 51
306.7304107614
  0
LINE
  5
C4
330
1F
100
AcDbEntity
  8
0
  6
Continuous
 62
     7
370
    15
100
AcDbLine
 10
8.55392441
 20
12.8023652943
 30
0.0
 11
8.879793746
 21
13.0455299739
 31
0.0
  0
ARC
  5
C5
330
1F
100
AcDbEntity
  8
0
  6
Continuous
 62
     7
370
    15
100
AcDbCircle
 10
5.9391623063
 20
10.7878374848
 30
0.0
 40
0.0508000000000011
100
AcDbArc
 50
126.7304107614
 51
218.3003545897
  0
ARC
  5
C6
330
1F
100
AcDbEntity
  8
0
  6
Continuous
 62
     7
370
    15
100
AcDbCircle
 10
7.3942875404
 20
11.9370407709
 30
0.0
 40
1.905000000000003
100
AcDbArc
 50
218.3003545897
 51
260.7976055736
  0
ARC
  5
C7
330
1F
100
AcDbEntity
  8
0
  6
Continuous
 62
     7
370
    15
100
AcDbCircle
 10
7.097759351
 20
10.1067050987
 30
0.0
 40
0.0507999999999999
100
AcDbArc
 50
260.7976055736
 51
352.3675494019
  0
LINE
  5
C8
330
1F
100
AcDbEntity
  8
0
  6
Continuous
 62
     7
370
    15
100
AcDbLine
 10
7.2021123897
 20
10.5029511951
 30
0.0
 11
7.1481092872
 21
10.0999579564
 31
0.0
  0
ARC
  5
C9
330
1F
100
AcDbEntity
  8
0
  6
Continuous
 62
     7
370
    15
100
AcDbCircle
 10
7.1517624536
 20
10.5096983375
 30
0.0
 40
0.0508000000000017
100
AcDbArc
 50
352.3675494019
 51
80.3567584324
  0
ARC
  5
CA
330
1F
100
AcDbEntity
  8
0
  6
Continuous
 62
     7
370
    15
100
AcDbCircle
 10
7.3942875404
 20
11.9370407709
 30
0.0
 40
1.397000000000002
100
AcDbArc
 50
218.7412017309
 51
260.3567584324
  0
ARC
  5
CB
330
1F
100
AcDbEntity
  8
0
  6
Continuous
 62
     7
370
    15
100
AcDbCircle
 10
6.2650316423
 20
11.0310021644
 30
0.0
 40
0.0508000000000004
100
AcDbArc
 50
38.7412017309
 51
126.7304107614
  0
LINE
  5
CC
330
1F
100
AcDbEntity
  8
0
  6
Continuous
 62
     7
370
    15
100
AcDbLine
 10
6.2346506708
 20
11.0717162476
 30
0.0
 11
5.9087813348
 21
10.828551568
 31
0.0
  0
CIRCLE
  5
CD
330
1F
100
AcDbEntity
  8
0
  6
Continuous
 62
     7
370
    15
100
AcDbCircle
 10
8.8547424226
 20
11.9255609151
 30
0.0
 40
0.0952500000000002
  0
CIRCLE
  5
CE
330
1F
100
AcDbEntity
  8
0
  6
Continuous
 62
     7
370
    15
100
AcDbCircle
 10
5.9338326582
 20
11.9485206267
 30
0.0
 40
0.0952499999999985
  0
LINE
  5
CF
330
1F
100
AcDbEntity
  8
0
  6
Continuous
 62
     7
370
    15
100
AcDbLine
 10
7.6442867005
 20
11.4270599674
 30
0.0
 11
7.6522726871
 21
12.4430285811
 31
0.0
  0
ARC
  5
D0
330
1F
100
AcDbEntity
  8
0
  6
Continuous
 62
     7
370
    15
100
AcDbCircle
 10
7.3982805337
 20
12.4450250778
 30
0.0
 40
0.2540000000000008
100
AcDbArc
 50
359.5496377543
 51
179.5496377543
  0
LINE
  5
D1
330
1F
100
AcDbEntity
  8
0
  6
Continuous
 62
     7
370
    15
100
AcDbLine
 10
7.1363023936
 20
11.4310529608
 30
0.0
 11
7.1442883803
 21
12.4470215745
 31
0.0
  0
ARC
  5
D2
330
1F
100
AcDbEntity
  8
0
  6
Continuous
 62
     7
370
    15
100
AcDbCircle
 10
7.3902945471
 20
11.4290564641
 30
0.0
 40
0.2540000000000008
100
AcDbArc
 50
179.5496377543
 51
359.5496377543
  0
CIRCLE
  5
D3
330
1F
100
AcDbEntity
  8
0
  6
Continuous
 62
     7
370
    15
100
AcDbCircle
 10
6.7314018237
 20
11.5612395913
 30
0.0
 40
0.0952500000000003
  0
CIRCLE
  5
D4
330
1F
100
AcDbEntity
  8
0
  6
Continuous
 62
     7
370
    15
100
AcDbCircle
 10
8.0571732571
 20
12.3128419506
 30
0.0
 40
0.0952500000000037
  0
CIRCLE
  5
D5
330
1F
100
AcDbEntity
  8
0
  6
Continuous
 62
     7
370
    15
100
AcDbCircle
 10
7.4027199655
 20
13.0098048004
 30
0.0
 40
0.0635000000000002
  0
CIRCLE
  5
D6
330
1F
100
AcDbEntity
  8
0
  6
Continuous
 62
     7
370
    15
100
AcDbCircle
 10
8.3191122297
 20
11.3933560619
 30
0.0
 40
0.0635000000000626
  0
CIRCLE
  5
D7
330
1F
100
AcDbEntity
  8
0
  6
Continuous
 62
     7
370
    15
100
AcDbCircle
 10
6.4610304261
 20
11.4079614505
 30
0.0
 40
0.0635000000001037
  0
CIRCLE
  5
D8
330
1F
100
AcDbEntity
  8
0
  6
Continuous
 62
     7
370
    15
100
AcDbCircle
 10
7.9379722495
 20
12.8618654602
 30
0.0
 40
0.0634999999999985
  0
CIRCLE
  5
D9
330
1F
100
AcDbEntity
  8
0
  6
Continuous
 62
     7
370
    15
100
AcDbCircle
 10
7.9233668608
 20
11.0037836566
 30
0.0
 40
0.0635000000000341
  0
CIRCLE
  5
DA
330
1F
100
AcDbEntity
  8
0
  6
Continuous
 62
     7
370
    15
100
AcDbCircle
 10
6.3215235109
 20
11.945473196
 30
0.0
 40
0.0635000000000715
  0
ARC
  5
DB
330
1F
100
AcDbEntity
  8
0
  6
Continuous
 62
     7
370
    15
100
AcDbCircle
 10
5.5522204658
 20
12.6663845394
 30
0.0
 40
0.0507999999999994
100
AcDbArc
 50
59.5496377543
 51
158.3995208527
  0
LINE
  5
DC
330
1F
100
AcDbEntity
  8
0
  6
Continuous
 62
     7
370
    15
100
AcDbLine
 10
5.5779654845
 20
12.7101776212
 30
0.0
 11
6.450220462
 21
12.1973975243
 31
0.0
  0
ARC
  5
DD
330
1F
100
AcDbEntity
  8
0
  6
Continuous
 62
     7
370
    15
100
AcDbCircle
 10
6.5789455556
 20
12.4163629332
 30
0.0
 40
0.2540000000000008
100
AcDbArc
 50
239.5496377543
 51
59.5496377543
  0
LINE
  5
DE
330
1F
100
AcDbEntity
  8
0
  6
Continuous
 62
     7
370
    15
100
AcDbLine
 10
5.8354156716
 20
13.148108439
 30
0.0
 11
6.7076706491
 21
12.6353283421
 31
0.0
  0
ARC
  5
DF
330
1F
100
AcDbEntity
  8
0
  6
Continuous
 62
     7
370
    15
100
AcDbCircle
 10
5.8611606903
 20
13.1919015208
 30
0.0
 40
0.0507999999999987
100
AcDbArc
 50
140.6997546559
 51
239.5496377543
  0
ARC
  5
E0
330
1F
100
AcDbEntity
  8
0
  6
Continuous
 62
     7
370
    15
100
AcDbCircle
 10
7.3942875404
 20
11.9370407709
 30
0.0
 40
2.032000000000002
100
AcDbArc
 50
158.3995208527
 51
140.6997546559
  0
ARC
  5
E1
330
1F
100
AcDbEntity
  8
0
  6
Continuous
 62
     7
370
    15
100
AcDbCircle
 10
7.6619641633
 20
10.1022637094
 30
0.0
 40
0.0507999999999996
100
AcDbArc
 50
186.7304107614
 51
278.3003545897
  0
ARC
  5
E2
330
1F
100
AcDbEntity
  8
0
  6
Continuous
 62
     7
370
    15
100
AcDbCircle
 10
7.3942875404
 20
11.9370407709
 30
0.0
 40
1.905000000000004
100
AcDbArc
 50
278.3003545897
 51
320.7976055736
  0
ARC
  5
E3
330
1F
100
AcDbEntity
  8
0
  6
Continuous
 62
     7
370
    15
100
AcDbCircle
 10
8.8311406353
 20
10.7650719899
 30
0.0
 40
0.0508000000000015
100
AcDbArc
 50
320.7976055736
 51
52.3675494019
  0
LINE
  5
E4
330
1F
100
AcDbEntity
  8
0
  6
Continuous
 62
     7
370
    15
100
AcDbLine
 10
8.540157969
 20
11.0535674206
 30
0.0
 11
8.8621588001
 21
10.8053027425
 31
0.0
  0
ARC
  5
E5
330
1F
100
AcDbEntity
  8
0
  6
Continuous
 62
     7
370
    15
100
AcDbCircle
 10
8.5091398042
 20
11.013336668
 30
0.0
 40
0.0508000000000022
100
AcDbArc
 50
52.3675494019
 51
140.3567584324
  0
ARC
  5
E6
330
1F
100
AcDbEntity
  8
0
  6
Continuous
 62
     7
370
    15
100
AcDbCircle
 10
7.3942875404
 20
11.9370407709
 30
0.0
 40
1.397000000000003
100
AcDbArc
 50
278.7412017309
 51
320.3567584324
  0
ARC
  5
E7
330
1F
100
AcDbEntity
  8
0
  6
Continuous
 62
     7
370
    15
100
AcDbCircle
 10
7.6143120414
 20
10.5060571725
 30
0.0
 40
0.0508000000000008
100
AcDbArc
 50
98.7412017309
 51
186.7304107614
  0
LINE
  5
E8
330
1F
100
AcDbEntity
  8
0
  6
Continuous
 62
     7
370
    15
100
AcDbLine
 10
7.5638621253
 20
10.5001035211
 30
0.0
 11
7.6115142472
 21
10.0963100579
 31
0.0
  0
ARC
  5
E9
330
1F
100
AcDbEntity
  8
0
  6
Continuous
 62
     7
370
    15
100
AcDbCircle
 10
6.4417561948
 20
13.0273658948
 30
0.0
 40
0.0508000000000005
100
AcDbArc
 50
239.5496377543
 51
311.1411575837
  0
ARC
  5
EA
330
1F
100
AcDbEntity
  8
0
  6
Continuous
 62
     7
370
    15
100
AcDbCircle
 10
7.3942875404
 20
11.9370407709
 30
0.0
 40
1.397000000000001
100
AcDbArc
 50
98.7412017309
 51
131.1411575837
  0
ARC
  5
EB
330
1F
100
AcDbEntity
  8
0
  6
Continuous
 62
     7
370
    15
100
AcDbCircle
 10
7.1742630393
 20
13.3680243694
 30
0.0
 40
0.0508000000000003
100
AcDbArc
 50
278.7412017309
 51
6.7304107614
  0
LINE
  5
EC
330
1F
100
AcDbEntity
  8
0
  6
Continuous
 62
     7
370
    15
100
AcDbLine
 10
7.2247129554
 20
13.3739780208
 30
0.0
 11
7.1770608336
 21
13.777771484
 31
0.0
  0
ARC
  5
ED
330
1F
100
AcDbEntity
  8
0
  6
Continuous
 62
     7
370
    15
100
AcDbCircle
 10
7.1266109175
 20
13.7718178325
 30
0.0
 40
0.0508000000000011
100
AcDbArc
 50
6.7304107614
 51
98.3003545897
  0
ARC
  5
EE
330
1F
100
AcDbEntity
  8
0
  6
Continuous
 62
     7
370
    15
100
AcDbCircle
 10
7.3942875404
 20
11.9370407709
 30
0.0
 40
1.905000000000003
100
AcDbArc
 50
98.3003545897
 51
135.2746870545
  0
ARC
  5
EF
330
1F
100
AcDbEntity
  8
0
  6
Continuous
 62
     7
370
    15
100
AcDbCircle
 10
6.0768994878
 20
13.2418573707
 30
0.0
 40
0.0508000000000009
100
AcDbArc
 50
135.2746870545
 51
239.5496377543
  0
LINE
  5
F0
330
1F
100
AcDbEntity
  8
0
  6
Continuous
 62
     7
370
    15
100
AcDbLine
 10
6.0511544691
 20
13.1980642889
 30
0.0
 11
6.4160111761
 21
12.983572813
 31
0.0
  0
DIMENSION
  5
F1
330
1F
100
AcDbEntity
  8
0
  6
Continuous
 62
     7
370
     0
100
AcDbDimension
  2
_D
 10
10.3847199781
 20
11.9135345787
 30
0.0
 11
10.3764453238
 21
10.8608419721
 31
0.0
 70
   160
  1
<>
 71
     2
 42
-1.0
  3
SLDDIMSTYLE0
100
AcDbAlignedDimension
 13
7.4027199655
 23
13.0098048004
 33
0.0
 14
7.3942875404
 24
11.9370407709
 34
0.0
 50
89.5496377543
100
AcDbRotatedDimension
  0
DIMENSION
  5
107
330
1F
100
AcDbEntity
  8
0
  6
Continuous
 62
     7
370
     0
100
AcDbDimension
  2
_D_1
 10
5.1096962285
 20
12.4450250778
 30
0.0
 11
5.1096962285
 21
10.8608419721
 31
0.0
 70
   160
  1
<>
 71
     2
 42
-1.0
  3
SLDDIMSTYLE0
100
AcDbAlignedDimension
 13
7.3902945471
 23
11.4290564641
 33
0.0
 14
7.3982805337
 24
12.4450250778
 34
0.0
 50
90.0
100
AcDbRotatedDimension
  0
DIMENSION
  5
11C
330
1F
100
AcDbEntity
  8
0
  6
Continuous
 62
     7
370
     0
100
AcDbDimension
  2
_D_2
 10
8.790349835
 20
9.4744892816
 30
0.0
 11
7.453675745
 21
8.7167060209
 31
0.0
 70
   160
  1
<>
 71
     2
 42
-1.0
  3
SLDDIMSTYLE0
100
AcDbAlignedDimension
 13
8.0571732571
 23
12.3128419506
 33
0.0
 14
7.3942875404
 24
11.9370407709
 34
0.0
 50
29.5496377543
100
AcDbRotatedDimension
  0
DIMENSION
  5
131
330
1F
100
AcDbEntity
  8
0
  6
Continuous
 62
     7
370
     0
100
AcDbDimension
  2
_D_3
 10
8.8329185819
 20
14.3841971536
 30
0.0
 11
9.1661797166
 21
14.1882800407
 31
0.0
 70
   160
  1
<>
 71
     2
 42
-1.0
  3
SLDDIMSTYLE0
100
AcDbAlignedDimension
 13
6.5789455556
 23
12.4163629332
 33
0.0
 14
7.3942875404
 24
11.9370407709
 34
0.0
 50
-30.4503622457
100
AcDbRotatedDimension
  0
INSERT
  5
151
330
1F
100
AcDbEntity
  8
0
  6
Continuous
 62
     7
370
     0
100
AcDbBlockReference
  2
SW_CENTERMARKSYMBOL_0
 10
6.3215235109
 20
11.945473196
 30
0.0
  0
INSERT
  5
15D
330
1F
100
AcDbEntity
  8
0
  6
Continuous
 62
     7
370
     0
100
AcDbBlockReference
  2
SW_CENTERMARKSYMBOL_1
 10
7.9233668608
 20
11.0037836566
 30
0.0
  0
INSERT
  5
169
330
1F
100
AcDbEntity
  8
0
  6
Continuous
 62
     7
370
     0
100
AcDbBlockReference
  2
SW_CENTERMARKSYMBOL_2
 10
7.9379722495
 20
12.8618654602
 30
0.0
  0
INSERT
  5
175
330
1F
100
AcDbEntity
  8
0
  6
Continuous
 62
     7
370
     0
100
AcDbBlockReference
  2
SW_CENTERMARKSYMBOL_3
 10
6.4610304261
 20
11.4079614505
 30
0.0
  0
INSERT
  5
181
330
1F
100
AcDbEntity
  8
0
  6
Continuous
 62
     7
370
     0
100
AcDbBlockReference
  2
SW_CENTERMARKSYMBOL_4
 10
8.3191122297
 20
11.3933560619
 30
0.0
  0
INSERT
  5
18D
330
1F
100
AcDbEntity
  8
0
  6
Continuous
 62
     7
370
     0
100
AcDbBlockReference
  2
SW_CENTERMARKSYMBOL_5
 10
7.4027199655
 20
13.0098048004
 30
0.0
  0
INSERT
  5
199
330
1F
100
AcDbEntity
  8
0
  6
Continuous
 62
     7
370
     0
100
AcDbBlockReference
  2
SW_CENTERMARKSYMBOL_6
 10
8.0571732571
 20
12.3128419506
 30
0.0
  0
INSERT
  5
1A5
330
1F
100
AcDbEntity
  8
0
  6
Continuous
 62
     7
370
     0
100
AcDbBlockReference
  2
SW_CENTERMARKSYMBOL_7
 10
6.7314018237
 20
11.5612395913
 30
0.0
  0
INSERT
  5
1B1
330
1F
100
AcDbEntity
  8
0
  6
Continuous
 62
     7
370
     0
100
AcDbBlockReference
  2
SW_CENTERMARKSYMBOL_8
 10
5.9338326582
 20
11.9485206267
 30
0.0
  0
INSERT
  5
1BD
330
1F
100
AcDbEntity
  8
0
  6
Continuous
 62
     7
370
     0
100
AcDbBlockReference
  2
SW_CENTERMARKSYMBOL_9
 10
8.8547424226
 20
11.9255609151
 30
0.0
  0
LINE
  5
1BE
330
1F
100
AcDbEntity
  8
0
  6
Continuous
 62
     7
370
    15
100
AcDbLine
 10
14.5920689903
 20
13.9690407709
 30
0.0
 11
14.4015689903
 21
13.9690407709
 31
0.0
  0
LINE
  5
1BF
330
1F
100
AcDbEntity
  8
0
  6
Continuous
 62
     7
370
    15
100
AcDbLine
 10
14.4015689903
 20
9.9050407709
 30
0.0
 11
14.5920689903
 21
9.9050407709
 31
0.0
  0
LINE
  5
1C0
330
1F
100
AcDbEntity
  8
0
  6
Continuous
 62
     7
370
    15
100
AcDbLine
 10
14.4015689903
 20
9.9050407709
 30
0.0
 11
14.4015689903
 21
13.9690407709
 31
0.0
  0
LINE
  5
1C1
330
1F
100
AcDbEntity
  8
0
  6
Continuous
 62
     7
370
    15
100
AcDbLine
 10
14.5920689903
 20
9.9050407709
 30
0.0
 11
14.5920689903
 21
13.9690407709
 31
0.0
  0
DIMENSION
  5
1C2
330
1F
100
AcDbEntity
  8
0
  6
Continuous
 62
     7
370
     0
100
AcDbDimension
  2
_D_4
 10
14.5920689903
 20
9.0671773125
 30
0.0
 11
15.9336540239
 21
9.0671773125
 31
0.0
 70
   160
  1
<>
 71
     2
 42
-1.0
  3
SLDDIMSTYLE1
100
AcDbAlignedDimension
 13
14.4015689903
 23
9.9050407709
 33
0.0
 14
14.5920689903
 24
9.9050407709
 34
0.0
100
AcDbRotatedDimension
  0
DIMENSION
  5
1D7
330
1F
100
AcDbEntity
  8
0
  6
Continuous
 62
     7
370
     0
100
AcDbDimension
  2
_D_5
 10
15.5920689903
 20
13.9690407709
 30
0.0
 11
15.5920689903
 21
12.0403039002
 31
0.0
 70
   160
  1
%%c<>
 71
     2
 42
-1.0
  3
SLDDIMSTYLE0
100
AcDbAlignedDimension
 13
14.5920689903
 23
9.9050407709
 33
0.0
 14
14.5920689903
 24
13.9690407709
 34
0.0
 50
90.0
100
AcDbRotatedDimension
  0
ARC
  5
1EA
330
1F
100
AcDbEntity
  8
0
  6
Continuous
 62
     7
370
    15
100
AcDbCircle
 10
21.5635615006
 20
13.7673764431
 30
0.0
 40
0.0508000000000017
100
AcDbArc
 50
7.6324505981
 51
99.2023944264
  0
ARC
  5
1EB
330
1F
100
AcDbEntity
  8
0
  6
Continuous
 62
     7
370
    15
100
AcDbCircle
 10
21.8600896899
 20
11.9370407709
 30
0.0
 40
1.905000000000005
100
AcDbArc
 50
99.2023944264
 51
141.6996454103
  0
ARC
  5
1EC
330
1F
100
AcDbEntity
  8
0
  6
Continuous
 62
     7
370
    15
100
AcDbCircle
 10
20.4049644558
 20
13.0862440571
 30
0.0
 40
0.0508000000000036
100
AcDbArc
 50
141.6996454103
 51
233.2695892386
  0
LINE
  5
1ED
330
1F
100
AcDbEntity
  8
0
  6
Continuous
 62
     7
370
    15
100
AcDbLine
 10
20.7004528203
 20
12.8023652943
 30
0.0
 11
20.3745834843
 21
13.0455299739
 31
0.0
  0
ARC
  5
1EE
330
1F
100
AcDbEntity
  8
0
  6
Continuous
 62
     7
370
    15
100
AcDbCircle
 10
20.7308337918
 20
12.8430793775
 30
0.0
 40
0.0508000000000012
100
AcDbArc
 50
233.2695892386
 51
321.2587982691
  0
ARC
  5
1EF
330
1F
100
AcDbEntity
  8
0
  6
Continuous
 62
     7
370
    15
100
AcDbCircle
 10
21.8600896899
 20
11.9370407709
 30
0.0
 40
1.397000000000002
100
AcDbArc
 50
99.6432415676
 51
141.2587982691
  0
ARC
  5
1F0
330
1F
100
AcDbEntity
  8
0
  6
Continuous
 62
     7
370
    15
100
AcDbCircle
 10
21.6175646031
 20
13.3643832044
 30
0.0
 40
0.0508000000000017
100
AcDbArc
 50
279.6432415676
 51
7.6324505981
  0
LINE
  5
1F1
330
1F
100
AcDbEntity
  8
0
  6
Continuous
 62
     7
370
    15
100
AcDbLine
 10
21.6679145392
 20
13.3711303468
 30
0.0
 11
21.6139114367
 21
13.7741235855
 31
0.0
  0
ARC
  5
1F2
330
1F
100
AcDbEntity
  8
0
  6
Continuous
 62
     7
370
    15
100
AcDbCircle
 10
22.1566178793
 20
10.1067050987
 30
0.0
 40
0.0507999999999999
100
AcDbArc
 50
187.6324505981
 51
279.2023944264
  0
ARC
  5
1F3
330
1F
100
AcDbEntity
  8
0
  6
Continuous
 62
     7
370
    15
100
AcDbCircle
 10
21.8600896899
 20
11.9370407709
 30
0.0
 40
1.905000000000004
100
AcDbArc
 50
279.2023944264
 51
321.6996454103
  0
ARC
  5
1F4
330
1F
100
AcDbEntity
  8
0
  6
Continuous
 62
     7
370
    15
100
AcDbCircle
 10
23.315214924
 20
10.7878374848
 30
0.0
 40
0.0507999999999997
100
AcDbArc
 50
321.6996454103
 51
53.2695892386
  0
LINE
  5
1F5
330
1F
100
AcDbEntity
  8
0
  6
Continuous
 62
     7
370
    15
100
AcDbLine
 10
23.0197265595
 20
11.0717162476
 30
0.0
 11
23.3455958955
 21
10.828551568
 31
0.0
  0
ARC
  5
1F6
330
1F
100
AcDbEntity
  8
0
  6
Continuous
 62
     7
370
    15
100
AcDbCircle
 10
22.989345588
 20
11.0310021644
 30
0.0
 40
0.050800000000001
100
AcDbArc
 50
53.2695892386
 51
141.2587982691
  0
ARC
  5
1F7
330
1F
100
AcDbEntity
  8
0
  6
Continuous
 62
     7
370
    15
100
AcDbCircle
 10
21.8600896899
 20
11.9370407709
 30
0.0
 40
1.397000000000001
100
AcDbArc
 50
279.6432415676
 51
321.2587982691
  0
ARC
  5
1F8
330
1F
100
AcDbEntity
  8
0
  6
Continuous
 62
     7
370
    15
100
AcDbCircle
 10
22.1026147767
 20
10.5096983375
 30
0.0
 40
0.0508000000000054
100
AcDbArc
 50
99.6432415676
 51
187.6324505981
  0
LINE
  5
1F9
330
1F
100
AcDbEntity
  8
0
  6
Continuous
 62
     7
370
    15
100
AcDbLine
 10
22.0522648406
 20
10.5029511951
 30
0.0
 11
22.1062679431
 21
10.0999579564
 31
0.0
  0
CIRCLE
  5
1FA
330
1F
100
AcDbEntity
  8
0
  6
Continuous
 62
     7
370
    15
100
AcDbCircle
 10
20.3996348077
 20
11.9255609151
 30
0.0
 40
0.0952500000000018
  0
CIRCLE
  5
1FB
330
1F
100
AcDbEntity
  8
0
  6
Continuous
 62
     7
370
    15
100
AcDbCircle
 10
23.3205445721
 20
11.9485206267
 30
0.0
 40
0.0952499999999983
  0
ARC
  5
1FC
330
1F
100
AcDbEntity
  8
0
  6
Continuous
 62
     7
370
    15
100
AcDbCircle
 10
21.8560966966
 20
12.4450250778
 30
0.0
 40
0.254
100
AcDbArc
 50
0.4503622457
 51
180.4503622457
  0
LINE
  5
1FD
330
1F
100
AcDbEntity
  8
0
  6
Continuous
 62
     7
370
    15
100
AcDbLine
 10
21.6100905298
 20
11.4270599674
 30
0.0
 11
21.6021045432
 21
12.4430285811
 31
0.0
  0
ARC
  5
1FE
330
1F
100
AcDbEntity
  8
0
  6
Continuous
 62
     7
370
    15
100
AcDbCircle
 10
21.8640826832
 20
11.4290564641
 30
0.0
 40
0.254
100
AcDbArc
 50
180.4503622457
 51
0.4503622457
  0
LINE
  5
1FF
330
1F
100
AcDbEntity
  8
0
  6
Continuous
 62
     7
370
    15
100
AcDbLine
 10
22.1180748367
 20
11.4310529608
 30
0.0
 11
22.11008885
 21
12.4470215745
 31
0.0
  0
CIRCLE
  5
200
330
1F
100
AcDbEntity
  8
0
  6
Continuous
 62
     7
370
    15
100
AcDbCircle
 10
22.5229754066
 20
11.5612395913
 30
0.0
 40
0.0952499999999983
  0
CIRCLE
  5
201
330
1F
100
AcDbEntity
  8
0
  6
Continuous
 62
     7
370
    15
100
AcDbCircle
 10
21.1972039732
 20
12.3128419506
 30
0.0
 40
0.0952500000000039
  0
CIRCLE
  5
202
330
1F
100
AcDbEntity
  8
0
  6
Continuous
 62
     7
370
    15
100
AcDbCircle
 10
21.8516572648
 20
13.0098048004
 30
0.0
 40
0.0634999999999999
  0
CIRCLE
  5
203
330
1F
100
AcDbEntity
  8
0
  6
Continuous
 62
     7
370
    15
100
AcDbCircle
 10
20.9352650007
 20
11.3933560619
 30
0.0
 40
0.0635000000000628
  0
CIRCLE
  5
204
330
1F
100
AcDbEntity
  8
0
  6
Continuous
 62
     7
370
    15
100
AcDbCircle
 10
22.7933468042
 20
11.4079614505
 30
0.0
 40
0.0635000000001035
  0
CIRCLE
  5
205
330
1F
100
AcDbEntity
  8
0
  6
Continuous
 62
     7
370
    15
100
AcDbCircle
 10
21.3164049808
 20
12.8618654602
 30
0.0
 40
0.063500000000002
  0
CIRCLE
  5
206
330
1F
100
AcDbEntity
  8
0
  6
Continuous
 62
     7
370
    15
100
AcDbCircle
 10
21.3310103695
 20
11.0037836566
 30
0.0
 40
0.063500000000036
  0
CIRCLE
  5
207
330
1F
100
AcDbEntity
  8
0
  6
Continuous
 62
     7
370
    15
100
AcDbCircle
 10
22.9328537194
 20
11.945473196
 30
0.0
 40
0.0635000000000713
  0
ARC
  5
208
330
1F
100
AcDbEntity
  8
0
  6
Continuous
 62
     7
370
    15
100
AcDbCircle
 10
22.6754316747
 20
12.4163629332
 30
0.0
 40
0.2539999999999999
100
AcDbArc
 50
120.4503622457
 51
300.4503622457
  0
LINE
  5
209
330
1F
100
AcDbEntity
  8
0
  6
Continuous
 62
     7
370
    15
100
AcDbLine
 10
22.8041567683
 20
12.1973975243
 30
0.0
 11
23.6764117458
 21
12.7101776212
 31
0.0
  0
ARC
  5
20A
330
1F
100
AcDbEntity
  8
0
  6
Continuous
 62
     7
370
    15
100
AcDbCircle
 10
23.7021567645
 20
12.6663845394
 30
0.0
 40
0.0508000000000032
100
AcDbArc
 50
21.6004791473
 51
120.4503622457
  0
ARC
  5
20B
330
1F
100
AcDbEntity
  8
0
  6
Continuous
 62
     7
370
    15
100
AcDbCircle
 10
21.8600896899
 20
11.9370407709
 30
0.0
 40
2.032000000000002
100
AcDbArc
 50
39.3002453441
 51
21.6004791473
  0
ARC
  5
20C
330
1F
100
AcDbEntity
  8
0
  6
Continuous
 62
     7
370
    15
100
AcDbCircle
 10
23.39321654
 20
13.1919015208
 30
0.0
 40
0.0508000000000033
100
AcDbArc
 50
300.4503622457
 51
39.3002453441
  0
LINE
  5
20D
330
1F
100
AcDbEntity
  8
0
  6
Continuous
 62
     7
370
    15
100
AcDbLine
 10
22.5467065812
 20
12.6353283421
 30
0.0
 11
23.4189615588
 21
13.148108439
 31
0.0
  0
ARC
  5
20E
330
1F
100
AcDbEntity
  8
0
  6
Continuous
 62
     7
370
    15
100
AcDbCircle
 10
20.423236595
 20
10.7650719899
 30
0.0
 40
0.0507999999999982
100
AcDbArc
 50
127.6324505981
 51
219.2023944264
  0
ARC
  5
20F
330
1F
100
AcDbEntity
  8
0
  6
Continuous
 62
     7
370
    15
100
AcDbCircle
 10
21.8600896899
 20
11.9370407709
 30
0.0
 40
1.905000000000003
100
AcDbArc
 50
219.2023944264
 51
261.6996454103
  0
ARC
  5
210
330
1F
100
AcDbEntity
  8
0
  6
Continuous
 62
     7
370
    15
100
AcDbCircle
 10
21.592413067
 20
10.1022637094
 30
0.0
 40
0.0508000000000015
100
AcDbArc
 50
261.6996454103
 51
353.2695892386
  0
LINE
  5
211
330
1F
100
AcDbEntity
  8
0
  6
Continuous
 62
     7
370
    15
100
AcDbLine
 10
21.690515105
 20
10.5001035211
 30
0.0
 11
21.6428629831
 21
10.0963100579
 31
0.0
  0
ARC
  5
212
330
1F
100
AcDbEntity
  8
0
  6
Continuous
 62
     7
370
    15
100
AcDbCircle
 10
21.6400651889
 20
10.5060571725
 30
0.0
 40
0.0507999999999984
100
AcDbArc
 50
353.2695892386
 51
81.2587982691
  0
ARC
  5
213
330
1F
100
AcDbEntity
  8
0
  6
Continuous
 62
     7
370
    15
100
AcDbCircle
 10
21.8600896899
 20
11.9370407709
 30
0.0
 40
1.397000000000003
100
AcDbArc
 50
219.6432415676
 51
261.2587982691
  0
ARC
  5
214
330
1F
100
AcDbEntity
  8
0
  6
Continuous
 62
     7
370
    15
100
AcDbCircle
 10
20.7452374261
 20
11.013336668
 30
0.0
 40
0.0508000000000011
100
AcDbArc
 50
39.6432415676
 51
127.6324505981
  0
LINE
  5
215
330
1F
100
AcDbEntity
  8
0
  6
Continuous
 62
     7
370
    15
100
AcDbLine
 10
20.7142192613
 20
11.0535674206
 30
0.0
 11
20.3922184302
 21
10.8053027425
 31
0.0
  0
ARC
  5
216
330
1F
100
AcDbEntity
  8
0
  6
Continuous
 62
     7
370
    15
100
AcDbCircle
 10
22.080114191
 20
13.3680243694
 30
0.0
 40
0.0508000000000017
100
AcDbArc
 50
173.2695892386
 51
261.2587982691
  0
ARC
  5
217
330
1F
100
AcDbEntity
  8
0
  6
Continuous
 62
     7
370
    15
100
AcDbCircle
 10
21.8600896899
 20
11.9370407709
 30
0.0
 40
1.397
100
AcDbArc
 50
48.8588424163
 51
81.2587982691
  0
ARC
  5
218
330
1F
100
AcDbEntity
  8
0
  6
Continuous
 62
     7
370
    15
100
AcDbCircle
 10
22.8126210355
 20
13.0273658948
 30
0.0
 40
0.0507999999999998
100
AcDbArc
 50
228.8588424163
 51
300.4503622457
  0
LINE
  5
219
330
1F
100
AcDbEntity
  8
0
  6
Continuous
 62
     7
370
    15
100
AcDbLine
 10
23.2032227612
 20
13.1980642889
 30
0.0
 11
22.8383660542
 21
12.983572813
 31
0.0
  0
ARC
  5
21A
330
1F
100
AcDbEntity
  8
0
  6
Continuous
 62
     7
370
    15
100
AcDbCircle
 10
23.1774777425
 20
13.2418573707
 30
0.0
 40
0.0507999999999996
100
AcDbArc
 50
300.4503622457
 51
44.7253129455
  0
ARC
  5
21B
330
1F
100
AcDbEntity
  8
0
  6
Continuous
 62
     7
370
    15
100
AcDbCircle
 10
21.8600896899
 20
11.9370407709
 30
0.0
 40
1.905000000000003
100
AcDbArc
 50
44.7253129455
 51
81.6996454103
  0
ARC
  5
21C
330
1F
100
AcDbEntity
  8
0
  6
Continuous
 62
     7
370
    15
100
AcDbCircle
 10
22.1277663128
 20
13.7718178325
 30
0.0
 40
0.0508000000000053
100
AcDbArc
 50
81.6996454103
 51
173.2695892386
  0
LINE
  5
21D
330
1F
100
AcDbEntity
  8
0
  6
Continuous
 62
     7
370
    15
100
AcDbLine
 10
22.0296642749
 20
13.3739780208
 30
0.0
 11
22.0773163967
 21
13.777771484
 31
0.0
  0
DIMENSION
  5
21E
330
1F
100
AcDbEntity
  8
0
  6
Continuous
 62
     7
370
     0
100
AcDbDimension
  2
_D_6
 10
20.4821237274
 20
11.9731859151
 30
0.0
 11
17.9175964504
 21
11.1962557196
 31
0.0
 70
   163
  1
<>
 71
     1
 42
-1.0
  3
SLDDIMSTYLE2
100
AcDbDiametricDimension
 15
20.317145888
 25
11.8779359151
 35
0.0
 40
0.0
  0
DIMENSION
  5
22F
330
1F
100
AcDbEntity
  8
0
  6
Continuous
 62
     7
370
     0
100
AcDbDimension
  2
_D_7
 10
20.9801662813
 20
11.4382573425
 30
0.0
 11
17.9175964504
 21
9.6224758138
 31
0.0
 70
   163
  1
<>
 71
     1
 42
-1.0
  3
SLDDIMSTYLE2
100
AcDbDiametricDimension
 15
20.8903637201
 25
11.3484547813
 35
0.0
 40
0.0
  0
DIMENSION
  5
23F
330
1F
100
AcDbEntity
  8
0
  6
Continuous
 62
     7
370
     0
100
AcDbDimension
  2
_D_8
 10
21.8560966966
 20
12.4450250778
 30
0.0
 11
25.0770060179
 21
14.4536742061
 31
0.0
 70
   164
  1
<>
 71
     1
 42
-1.0
  3
SLDDIMSTYLE3
100
AcDbRadialDimension
 15
22.035701819
 25
12.6246302002
 35
0.0
 40
0.0
  0
DIMENSION
  5
24F
330
1F
100
AcDbEntity
  8
0
  6
Continuous
 62
     7
370
     0
100
AcDbDimension
  2
_D_9
 10
22.6754316747
 20
12.4163629332
 30
0.0
 11
25.0770060179
 21
13.0868805343
 31
0.0
 70
   164
  1
<>
 71
     1
 42
-1.0
  3
SLDDIMSTYLE4
100
AcDbRadialDimension
 15
22.4554612222
 25
12.2893629332
 35
0.0
 40
0.0
  0
INSERT
  5
26B
330
1F
100
AcDbEntity
  8
0
  6
Continuous
 62
     7
370
     0
100
AcDbBlockReference
  2
SW_CENTERMARKSYMBOL_10
 10
22.9328537194
 20
11.945473196
 30
0.0
  0
INSERT
  5
277
330
1F
100
AcDbEntity
  8
0
  6
Continuous
 62
     7
370
     0
100
AcDbBlockReference
  2
SW_CENTERMARKSYMBOL_11
 10
21.3310103695
 20
11.0037836566
 30
0.0
  0
INSERT
  5
283
330
1F
100
AcDbEntity
  8
0
  6
Continuous
 62
     7
370
     0
100
AcDbBlockReference
  2
SW_CENTERMARKSYMBOL_12
 10
21.3164049808
 20
12.8618654602
 30
0.0
  0
INSERT
  5
28F
330
1F
100
AcDbEntity
  8
0
  6
Continuous
 62
     7
370
     0
100
AcDbBlockReference
  2
SW_CENTERMARKSYMBOL_13
 10
22.7933468042
 20
11.4079614505
 30
0.0
  0
INSERT
  5
29B
330
1F
100
AcDbEntity
  8
0
  6
Continuous
 62
     7
370
     0
100
AcDbBlockReference
  2
SW_CENTERMARKSYMBOL_14
 10
20.9352650007
 20
11.3933560619
 30
0.0
  0
INSERT
  5
2A7
330
1F
100
AcDbEntity
  8
0
  6
Continuous
 62
     7
370
     0
100
AcDbBlockReference
  2
SW_CENTERMARKSYMBOL_15
 10
21.8516572648
 20
13.0098048004
 30
0.0
  0
INSERT
  5
2B3
330
1F
100
AcDbEntity
  8
0
  6
Continuous
 62
     7
370
     0
100
AcDbBlockReference
  2
SW_CENTERMARKSYMBOL_16
 10
21.1972039732
 20
12.3128419506
 30
0.0
  0
INSERT
  5
2BF
330
1F
100
AcDbEntity
  8
0
  6
Continuous
 62
     7
370
     0
100
AcDbBlockReference
  2
SW_CENTERMARKSYMBOL_17
 10
22.5229754066
 20
11.5612395913
 30
0.0
  0
INSERT
  5
2CB
330
1F
100
AcDbEntity
  8
0
  6
Continuous
 62
     7
370
     0
100
AcDbBlockReference
  2
SW_CENTERMARKSYMBOL_18
 10
23.3205445721
 20
11.9485206267
 30
0.0
  0
INSERT
  5
2D7
330
1F
100
AcDbEntity
  8
0
  6
Continuous
 62
     7
370
     0
100
AcDbBlockReference
  2
SW_CENTERMARKSYMBOL_19
 10
20.3996348077
 20
11.9255609151
 30
0.0
  0
LINE
  5
2D8
330
1F
100
AcDbEntity
  8
0
  6
Continuous
 62
     7
370
    15
100
AcDbLine
 10
20.7053017752
 20
19.5091500999
 30
0.0
 11
20.5705979334
 21
19.4313872273
 31
0.0
  0
LINE
  5
2D9
330
1F
100
AcDbEntity
  8
0
  6
Continuous
 62
     7
370
    15
100
AcDbLine
 10
22.6024327982
 20
15.9117646506
 30
0.0
 11
22.73713664
 21
15.9895275232
 31
0.0
  0
LINE
  5
2DA
330
1F
100
AcDbEntity
  8
0
  6
Continuous
 62
     7
370
    15
100
AcDbLine
 10
22.2849586005
 20
16.4617056782
 30
0.0
 11
22.364886959
 21
16.5078473374
 31
0.0
  0
LINE
  5
2DB
330
1F
100
AcDbEntity
  8
0
  6
Continuous
 62
     7
370
    15
100
AcDbLine
 10
20.3932831519
 20
19.1408122977
 30
0.0
 11
20.2585793101
 21
19.0630494251
 31
0.0
  0
LWPOLYLINE
  5
2DC
330
1F
100
AcDbEntity
  8
0
  6
Continuous
 62
     7
370
    15
100
AcDbPolyline
 90
        9
 70
   128
 43
0.0
 10
22.6436341198
 20
18.0253944614
 10
22.6474915732
 20
18.0161962782
 10
22.6500742706
 20
18.0069886687
 10
22.6512794792
 20
17.9981378872
 10
22.651059259
 20
17.9899959941
 10
22.6494223697
 20
17.9828868524
 10
22.6464339225
 20
17.9770932449
 10
22.6422127899
 20
17.972845626
 10
22.6369268773
 20
17.9703129545
  0
LWPOLYLINE
  5
2DD
330
1F
100
AcDbEntity
  8
0
  6
Continuous
 62
     7
370
    15
100
AcDbPolyline
 90
       17
 70
   128
 43
0.0
 10
22.6436341198
 20
18.0253944614
 10
22.6038098568
 20
18.1039179087
 10
22.5617998194
 20
18.1815124193
 10
22.5176942708
 20
18.2580112727
 10
22.4715879769
 20
18.3332501021
 10
22.4235800025
 20
18.4070672482
 10
22.3737734981
 20
18.4793041065
 10
22.3222754789
 20
18.5498054676
 10
22.2691965942
 20
18.6184198513
 10
22.2146508902
 20
18.6849998316
 10
22.1587555645
 20
18.7494023539
 10
22.1016307148
 20
18.8114890418
 10
22.0433990804
 20
18.8711264949
 10
21.9841857786
 20
18.9281865754
 10
21.9241180361
 20
18.9825466829
 10
21.8633249152
 20
19.0340900186
 10
21.8019370372
 20
19.0827058357
  0
LWPOLYLINE
  5
2DE
330
1F
100
AcDbEntity
  8
0
  6
Continuous
 62
     7
370
    15
100
AcDbPolyline
 90
        9
 70
   128
 43
0.0
 10
21.760589678
 20
19.0711380704
 10
21.7622445577
 20
19.0782319225
 10
21.7652497948
 20
19.0840069083
 10
21.7694858489
 20
19.0882333143
 10
21.774784221
 20
19.0907430251
 10
21.780934156
 20
19.0914362112
 10
21.7876910259
 20
19.0902852995
 10
21.7947860601
 20
19.0873360702
 10
21.8019370372
 20
19.0827058357
  0
LINE
  5
2DF
330
1F
100
AcDbEntity
  8
0
  6
Continuous
 62
     7
370
    15
100
AcDbLine
 10
21.722403718
 20
18.7641219295
 30
0.0
 11
21.760589678
 21
19.0711380704
 31
0.0
  0
ARC
  5
2E0
330
1F
100
AcDbEntity
  8
0
  6
Continuous
 62
     7
370
    15
100
AcDbCircle
 10
21.7991261337
 20
18.761242202
 30
0.0
 40
0.0767764410336737
100
AcDbArc
 50
177.8504481216
 51
232.1243622667
  0
ARC
  5
2E1
330
1F
100
AcDbEntity
  8
0
  6
Continuous
 62
     7
370
    15
100
AcDbCircle
 10
20.370069452
 20
16.979714385
 30
0.0
 40
2.207098593371678
100
AcDbArc
 50
25.8095165926
 51
51.2351859008
  0
ARC
  5
2E2
330
1F
100
AcDbEntity
  8
0
  6
Continuous
 62
     7
370
    15
100
AcDbCircle
 10
22.4067512822
 20
17.9572172607
 30
0.0
 40
0.0524375967900807
100
AcDbArc
 50
198.4265064088
 51
269.7281240946
  0
LINE
  5
2E3
330
1F
100
AcDbEntity
  8
0
  6
Continuous
 62
     7
370
    15
100
AcDbLine
 10
22.40650246
 20
17.9047802542
 30
0.0
 11
22.6369268773
 21
17.9703129545
 31
0.0
  0
LWPOLYLINE
  5
2E4
330
1F
100
AcDbEntity
  8
0
  6
Continuous
 62
     7
370
    15
100
AcDbPolyline
 90
        9
 70
   128
 43
0.0
 10
20.5293966118
 20
17.3177574164
 10
20.5255391584
 20
17.3269555996
 10
20.522956461
 20
17.3361632091
 10
20.5217512524
 20
17.3450139907
 10
20.5219714726
 20
17.3531558837
 10
20.5236083619
 20
17.3602650254
 10
20.5265968091
 20
17.3660586329
 10
20.5308179417
 20
17.3703062519
 10
20.5361038543
 20
17.3728389234
  0
LWPOLYLINE
  5
2E5
330
1F
100
AcDbEntity
  8
0
  6
Continuous
 62
     7
370
    15
100
AcDbPolyline
 90
       17
 70
   128
 43
0.0
 10
20.5293966118
 20
17.3177574164
 10
20.5692208748
 20
17.2392339692
 10
20.6112309122
 20
17.1616394585
 10
20.6553364608
 20
17.0851406052
 10
20.7014427547
 20
17.0099017758
 10
20.7494507291
 20
16.9360846296
 10
20.7992572334
 20
16.8638477714
 10
20.8507552527
 20
16.7933464103
 10
20.9038341374
 20
16.7247320266
 10
20.9583798414
 20
16.6581520462
 10
21.014275167
 20
16.5937495239
 10
21.0714000168
 20
16.531662836
 10
21.1296316512
 20
16.4720253829
 10
21.188844953
 20
16.4149653025
 10
21.2489126955
 20
16.3606051949
 10
21.3097058163
 20
16.3090618592
 10
21.3710936944
 20
16.2604460421
  0
LWPOLYLINE
  5
2E6
330
1F
100
AcDbEntity
  8
0
  6
Continuous
 62
     7
370
    15
100
AcDbPolyline
 90
        9
 70
   128
 43
0.0
 10
21.4124410536
 20
16.2720138074
 10
21.4107861739
 20
16.2649199553
 10
21.4077809368
 20
16.2591449695
 10
21.4035448827
 20
16.2549185636
 10
21.3982465106
 20
16.2524088527
 10
21.3920965755
 20
16.2517156666
 10
21.3853397057
 20
16.2528665783
 10
21.3782446715
 20
16.2558158077
 10
21.3710936944
 20
16.2604460421
  0
LINE
  5
2E7
330
1F
100
AcDbEntity
  8
0
  6
Continuous
 62
     7
370
    15
100
AcDbLine
 10
21.4506270136
 20
16.5790299483
 30
0.0
 11
21.4124410536
 21
16.2720138074
 31
0.0
  0
ARC
  5
2E8
330
1F
100
AcDbEntity
  8
0
  6
Continuous
 62
     7
370
    15
100
AcDbCircle
 10
21.3739045979
 20
16.5819096758
 30
0.0
 40
0.0767764410336619
100
AcDbArc
 50
357.8504481216
 51
52.1243622667
  0
ARC
  5
2E9
330
1F
100
AcDbEntity
  8
0
  6
Continuous
 62
     7
370
    15
100
AcDbCircle
 10
22.8029612796
 20
18.3634374928
 30
0.0
 40
2.207098593371664
100
AcDbArc
 50
205.8095165926
 51
231.2351859008
  0
ARC
  5
2EA
330
1F
100
AcDbEntity
  8
0
  6
Continuous
 62
     7
370
    15
100
AcDbCircle
 10
20.7662794493
 20
17.3859346172
 30
0.0
 40
0.0524375967900869
100
AcDbArc
 50
18.4265064088
 51
89.7281240946
  0
LINE
  5
2EB
330
1F
100
AcDbEntity
  8
0
  6
Continuous
 62
     7
370
    15
100
AcDbLine
 10
20.7665282716
 20
17.4383716236
 30
0.0
 11
20.5361038543
 21
17.3728389234
 31
0.0
  0
LWPOLYLINE
  5
2EC
330
1F
100
AcDbEntity
  8
0
  6
Continuous
 62
     7
370
    15
100
AcDbPolyline
 90
       31
 70
   128
 43
0.0
 10
22.6257759135
 20
16.98484444
 10
22.6395691076
 20
16.9801489936
 10
22.6524726384
 20
16.9792073335
 10
22.6639225598
 20
16.9820606147
 10
22.6734184553
 20
16.9885841352
 10
22.6805453086
 20
16.9984927858
 10
22.6849916421
 20
17.0113535109
 10
22.6865631296
 20
17.0266042351
 10
22.6851910896
 20
17.0435784287
 10
22.6809354869
 20
17.0615342378
 10
22.6739823117
 20
17.0796869076
 10
22.6646354511
 20
17.0972430791
 10
22.6533034078
 20
17.1134354634
 10
22.6404814464
 20
17.1275563758
 10
22.6267299482
 20
17.1389886644
 10
22.6126499197
 20
17.1472326836
 10
22.5988567256
 20
17.1519281299
 10
22.5859531948
 20
17.1528697901
 10
22.5745032734
 20
17.1500165088
 10
22.5650073779
 20
17.1434929884
 10
22.5578805246
 20
17.1335843378
 10
22.5534341911
 20
17.1207236126
 10
22.5518627036
 20
17.1054728884
 10
22.5532347436
 20
17.0884986948
 10
22.5574903463
 20
17.0705428857
 10
22.5644435215
 20
17.052390216
 10
22.5737903821
 20
17.0348340444
 10
22.5851224254
 20
17.0186416601
 10
22.5979443868
 20
17.0045207477
 10
22.611695885
 20
16.9930884591
 10
22.6257759135
 20
16.98484444
  0
LWPOLYLINE
  5
2ED
330
1F
100
AcDbEntity
  8
0
  6
Continuous
 62
     7
370
    15
100
AcDbPolyline
 90
       31
 70
   128
 43
0.0
 10
20.5603808119
 20
18.1959191943
 10
20.5741740059
 20
18.1912237479
 10
20.5870775368
 20
18.1902820878
 10
20.5985274582
 20
18.193135369
 10
20.6080233537
 20
18.1996588895
 10
20.615150207
 20
18.2095675401
 10
20.6195965404
 20
18.2224282652
 10
20.621168028
 20
18.2376789895
 10
20.619795988
 20
18.254653183
 10
20.6155403853
 20
18.2726089922
 10
20.6085872101
 20
18.2907616619
 10
20.5992403495
 20
18.3083178334
 10
20.5879083062
 20
18.3245102178
 10
20.5750863448
 20
18.3386311301
 10
20.5613348466
 20
18.3500634188
 10
20.5472548181
 20
18.3583074379
 10
20.533461624
 20
18.3630028843
 10
20.5205580932
 20
18.3639445444
 10
20.5091081718
 20
18.3610912632
 10
20.4996122763
 20
18.3545677427
 10
20.492485423
 20
18.3446590921
 10
20.4880390895
 20
18.331798367
 10
20.486467602
 20
18.3165476427
 10
20.4878396419
 20
18.2995734491
 10
20.4920952447
 20
18.28161764
 10
20.4990484199
 20
18.2634649703
 10
20.5083952805
 20
18.2459087988
 10
20.5197273238
 20
18.2297164144
 10
20.5325492852
 20
18.2155955021
 10
20.5463007833
 20
18.2041632134
 10
20.5603808119
 20
18.1959191943
  0
LINE
  5
2EE
330
1F
100
AcDbEntity
  8
0
  6
Continuous
 62
     7
370
    15
100
AcDbLine
 10
21.7632914672
 20
17.1531051284
 30
0.0
 11
21.7689384125
 21
17.979425053
 31
0.0
  0
LWPOLYLINE
  5
2EF
330
1F
100
AcDbEntity
  8
0
  6
Continuous
 62
     7
370
    15
100
AcDbPolyline
 90
       26
 70
   128
 43
0.0
 10
21.7689384125
 20
17.979425053
 10
21.7676991537
 20
18.0061467975
 10
21.7636470462
 20
18.0341079391
 10
21.7568459941
 20
18.062867514
 10
21.7474032541
 20
18.0919719663
 10
21.7354677438
 20
18.1209623016
 10
21.7212276934
 20
18.149381325
 10
21.704907677
 20
18.1767808513
 10
21.686765071
 20
18.2027287738
 10
21.6670859951
 20
18.2268158783
 10
21.6461808
 20
18.2486622966
 10
21.6243791733
 20
18.2679234977
 10
21.6020249396
 20
18.2842957211
 10
21.5794706385
 20
18.2975207668
 10
21.5570719648
 20
18.3073900681
 10
21.5351821589
 20
18.3137479802
 10
21.5141464363
 20
18.316494235
 10
21.4942965427
 20
18.3155855224
 10
21.4759455229
 20
18.3110361734
 10
21.4593827835
 20
18.3029179339
 10
21.4448695286
 20
18.2913588334
 10
21.4326346411
 20
18.2765411659
 10
21.4228710724
 20
18.2586986147
 10
21.4157327998
 20
18.2381125676
 10
21.4113323982
 20
18.2151076789
 10
21.4097392644
 20
18.1900467494
  0
LINE
  5
2F0
330
1F
100
AcDbEntity
  8
0
  6
Continuous
 62
     7
370
    15
100
AcDbLine
 10
21.4040923191
 20
17.3637268249
 30
0.0
 11
21.4097392644
 21
18.1900467494
 31
0.0
  0
LWPOLYLINE
  5
2F1
330
1F
100
AcDbEntity
  8
0
  6
Continuous
 62
     7
370
    15
100
AcDbPolyline
 90
       26
 70
   128
 43
0.0
 10
21.4040923191
 20
17.3637268249
 10
21.4053315779
 20
17.3370050803
 10
21.4093836854
 20
17.3090439387
 10
21.4161847375
 20
17.2802843639
 10
21.4256274775
 20
17.2511799115
 10
21.4375629878
 20
17.2221895762
 10
21.4518030381
 20
17.1937705529
 10
21.4681230546
 20
17.1663710265
 10
21.4862656606
 20
17.140423104
 10
21.5059447365
 20
17.1163359996
 10
21.5268499315
 20
17.0944895812
 10
21.5486515583
 20
17.0752283801
 10
21.571005792
 20
17.0588561568
 10
21.5935600931
 20
17.045631111
 10
21.6159587668
 20
17.0357618097
 10
21.6378485727
 20
17.0294038977
 10
21.6588842953
 20
17.0266576429
 10
21.6787341889
 20
17.0275663555
 10
21.6970852087
 20
17.0321157045
 10
21.7136479481
 20
17.040233944
 10
21.7281612029
 20
17.0517930444
 10
21.7403960905
 20
17.066610712
 10
21.7501596592
 20
17.0844532631
 10
21.7572979318
 20
17.1050393102
 10
21.7616983334
 20
17.1280441989
 10
21.7632914672
 20
17.1531051284
  0
LWPOLYLINE
  5
2F2
330
1F
100
AcDbEntity
  8
0
  6
Continuous
 62
     7
370
    15
100
AcDbPolyline
 90
       31
 70
   128
 43
0.0
 10
21.1243473773
 20
17.5541174549
 10
21.1381405713
 20
17.5494220085
 10
21.1510441022
 20
17.5484803484
 10
21.1624940236
 20
17.5513336296
 10
21.1719899191
 20
17.5578571501
 10
21.1791167724
 20
17.5677658007
 10
21.1835631058
 20
17.5806265258
 10
21.1851345934
 20
17.5958772501
 10
21.1837625534
 20
17.6128514437
 10
21.1795069507
 20
17.6308072528
 10
21.1725537755
 20
17.6489599225
 10
21.1632069149
 20
17.666516094
 10
21.1518748716
 20
17.6827084784
 10
21.1390529102
 20
17.6968293907
 10
21.125301412
 20
17.7082616794
 10
21.1112213835
 20
17.7165056985
 10
21.0974281894
 20
17.7212011449
 10
21.0845246586
 20
17.722142805
 10
21.0730747372
 20
17.7192895238
 10
21.0635788417
 20
17.7127660033
 10
21.0564519884
 20
17.7028573527
 10
21.0520056549
 20
17.6899966276
 10
21.0504341674
 20
17.6747459033
 10
21.0518062073
 20
17.6577717098
 10
21.0560618101
 20
17.6398159006
 10
21.0630149853
 20
17.6216632309
 10
21.0723618459
 20
17.6041070594
 10
21.0836938892
 20
17.587914675
 10
21.0965158506
 20
17.5737937627
 10
21.1102673487
 20
17.562361474
 10
21.1243473773
 20
17.5541174549
  0
LWPOLYLINE
  5
2F3
330
1F
100
AcDbEntity
  8
0
  6
Continuous
 62
     7
370
    15
100
AcDbPolyline
 90
       31
 70
   128
 43
0.0
 10
22.0618093481
 20
17.6266461793
 10
22.0756025422
 20
17.6219507329
 10
22.088506073
 20
17.6210090728
 10
22.0999559944
 20
17.623862354
 10
22.1094518899
 20
17.6303858745
 10
22.1165787432
 20
17.6402945251
 10
22.1210250767
 20
17.6531552502
 10
22.1225965642
 20
17.6684059745
 10
22.1212245242
 20
17.685380168
 10
22.1169689215
 20
17.7033359772
 10
22.1100157463
 20
17.7214886469
 10
22.1006688857
 20
17.7390448184
 10
22.0893368424
 20
17.7552372028
 10
22.076514881
 20
17.7693581151
 10
22.0627633828
 20
17.7807904038
 10
22.0486833543
 20
17.7890344229
 10
22.0348901602
 20
17.7937298693
 10
22.0219866294
 20
17.7946715294
 10
22.010536708
 20
17.7918182482
 10
22.0010408125
 20
17.7852947277
 10
21.9939139592
 20
17.7753860771
 10
21.9894676257
 20
17.762525352
 10
21.9878961382
 20
17.7472746277
 10
21.9892681782
 20
17.7303004342
 10
21.9935237809
 20
17.712344625
 10
22.0004769561
 20
17.6941919553
 10
22.0098238167
 20
17.6766357838
 10
22.02115586
 20
17.6604433994
 10
22.0339778214
 20
17.6463224871
 10
22.0477293196
 20
17.6348901984
 10
22.0618093481
 20
17.6266461793
  0
LWPOLYLINE
  5
2F4
330
1F
100
AcDbEntity
  8
0
  6
Continuous
 62
     7
370
    15
100
AcDbPolyline
 90
       26
 70
   128
 43
0.0
 10
21.596853322
 20
18.4899599859
 10
21.6078292168
 20
18.4865014568
 10
21.6178405376
 20
18.48666139
 10
21.6262582363
 20
18.4904297363
 10
21.632553398
 20
18.4975697166
 10
21.6363304744
 20
18.5076326998
 10
21.637352138
 20
18.5199863916
 10
21.6355541939
 20
18.533854564
 10
21.6310496135
 20
18.5483658288
 10
21.6241214362
 20
18.56260839
 10
21.6152049849
 20
18.5756873348
 10
21.6048605129
 20
18.5867808653
 10
21.5937380015
 20
18.595191934
 10
21.582536319
 20
18.6003920426
 10
21.5719593083
 20
18.6020544491
 10
21.5626715619
 20
18.6000746984
 10
21.5552566631
 20
18.5945771856
 10
21.5501805171
 20
18.5859073395
 10
21.547762077
 20
18.5746099185
 10
21.5481533021
 20
18.5613947811
 10
21.5513296105
 20
18.547092283
 10
21.557091423
 20
18.5326011027
 10
21.5650767036
 20
18.5188317745
 10
21.5747837079
 20
18.5066494757
 10
21.585602509
 20
18.4968196651
 10
21.596853322
 20
18.4899599859
  0
LWPOLYLINE
  5
2F5
330
1F
100
AcDbEntity
  8
0
  6
Continuous
 62
     7
370
    15
100
AcDbPolyline
 90
       26
 70
   128
 43
0.0
 10
22.2448405062
 20
16.7959885815
 10
22.255816401
 20
16.7925300524
 10
22.2658277218
 20
16.7926899856
 10
22.2742454205
 20
16.7964583319
 10
22.2805405822
 20
16.8035983123
 10
22.2843176586
 20
16.8136612954
 10
22.2853393222
 20
16.8260149872
 10
22.2835413781
 20
16.8398831596
 10
22.2790367977
 20
16.8543944244
 10
22.2721086204
 20
16.8686369856
 10
22.2631921691
 20
16.8817159305
 10
22.2528476971
 20
16.8928094609
 10
22.2417251858
 20
16.9012205296
 10
22.2305235033
 20
16.9064206382
 10
22.2199464926
 20
16.9080830447
 10
22.2106587462
 20
16.9061032941
 10
22.2032438473
 20
16.9006057812
 10
22.1981677013
 20
16.8919359351
 10
22.1957492612
 20
16.8806385141
 10
22.1961404864
 20
16.8674233767
 10
22.1993167948
 20
16.8531208786
 10
22.2050786072
 20
16.8386296984
 10
22.2130638878
 20
16.8248603701
 10
22.2227708921
 20
16.8126780713
 10
22.2335896933
 20
16.8028482607
 10
22.2448405062
 20
16.7959885815
  0
LWPOLYLINE
  5
2F6
330
1F
100
AcDbEntity
  8
0
  6
Continuous
 62
     7
370
    15
100
AcDbPolyline
 90
       26
 70
   128
 43
0.0
 10
20.9309782629
 20
17.5663910058
 10
20.9419541577
 20
17.5629324767
 10
20.9519654785
 20
17.5630924099
 10
20.9603831772
 20
17.5668607563
 10
20.9666783389
 20
17.5740007366
 10
20.9704554153
 20
17.5840637198
 10
20.9714770789
 20
17.5964174115
 10
20.9696791348
 20
17.6102855839
 10
20.9651745544
 20
17.6247968488
 10
20.9582463771
 20
17.6390394099
 10
20.9493299258
 20
17.6521183548
 10
20.9389854538
 20
17.6632118853
 10
20.9278629424
 20
17.671622954
 10
20.91666126
 20
17.6768230626
 10
20.9060842493
 20
17.6784854691
 10
20.8967965028
 20
17.6765057184
 10
20.889381604
 20
17.6710082055
 10
20.884305458
 20
17.6623383595
 10
20.8818870179
 20
17.6510409385
 10
20.8822782431
 20
17.6378258011
 10
20.8854545514
 20
17.623523303
 10
20.8912163639
 20
17.6090321227
 10
20.8992016445
 20
17.5952627944
 10
20.9089086488
 20
17.5830804957
 10
20.91972745
 20
17.5732506851
 10
20.9309782629
 20
17.5663910058
  0
LWPOLYLINE
  5
2F7
330
1F
100
AcDbEntity
  8
0
  6
Continuous
 62
     7
370
    15
100
AcDbPolyline
 90
       26
 70
   128
 43
0.0
 10
21.9753338417
 20
18.1506693236
 10
21.9863097365
 20
18.1472107945
 10
21.9963210573
 20
18.1473707277
 10
22.004738756
 20
18.1511390741
 10
22.0110339176
 20
18.1582790544
 10
22.014810994
 20
18.1683420376
 10
22.0158326576
 20
18.1806957293
 10
22.0140347135
 20
18.1945639017
 10
22.0095301332
 20
18.2090751666
 10
22.0026019559
 20
18.2233177277
 10
21.9936855045
 20
18.2363966726
 10
21.9833410326
 20
18.2474902031
 10
21.9722185212
 20
18.2559012718
 10
21.9610168387
 20
18.2611013804
 10
21.950439828
 20
18.2627637869
 10
21.9411520816
 20
18.2607840362
 10
21.9337371827
 20
18.2552865234
 10
21.9286610368
 20
18.2466166773
 10
21.9262425966
 20
18.2353192563
 10
21.9266338218
 20
18.2221041189
 10
21.9298101302
 20
18.2078016208
 10
21.9355719426
 20
18.1933104405
 10
21.9435572233
 20
18.1795411122
 10
21.9532642276
 20
18.1673588135
 10
21.9640830287
 20
18.1575290029
 10
21.9753338417
 20
18.1506693236
  0
LWPOLYLINE
  5
2F8
330
1F
100
AcDbEntity
  8
0
  6
Continuous
 62
     7
370
    15
100
AcDbPolyline
 90
       26
 70
   128
 43
0.0
 10
21.9650062723
 20
16.6394316781
 10
21.9759821671
 20
16.635973149
 10
21.9859934879
 20
16.6361330822
 10
21.9944111866
 20
16.6399014285
 10
22.0007063483
 20
16.6470414088
 10
22.0044834247
 20
16.657104392
 10
22.0055050883
 20
16.6694580838
 10
22.0037071442
 20
16.6833262562
 10
21.9992025638
 20
16.697837521
 10
21.9922743865
 20
16.7120800822
 10
21.9833579352
 20
16.7251590271
 10
21.9730134632
 20
16.7362525575
 10
21.9618909518
 20
16.7446636262
 10
21.9506892693
 20
16.7498637348
 10
21.9401122586
 20
16.7515261413
 10
21.9308245122
 20
16.7495463907
 10
21.9234096134
 20
16.7440488778
 10
21.9183334674
 20
16.7353790317
 10
21.9159150273
 20
16.7240816107
 10
21.9163062524
 20
16.7108664733
 10
21.9194825608
 20
16.6965639752
 10
21.9252443733
 20
16.6820727949
 10
21.9332296539
 20
16.6683034667
 10
21.9429366582
 20
16.6561211679
 10
21.9537554593
 20
16.6462913573
 10
21.9650062723
 20
16.6394316781
  0
LWPOLYLINE
  5
2F9
330
1F
100
AcDbEntity
  8
0
  6
Continuous
 62
     7
370
    15
100
AcDbPolyline
 90
       26
 70
   128
 43
0.0
 10
20.8323319772
 20
18.0622385715
 10
20.843307872
 20
18.0587800424
 10
20.8533191928
 20
18.0589399756
 10
20.8617368915
 20
18.0627083219
 10
20.8680320532
 20
18.0698483022
 10
20.8718091296
 20
18.0799112854
 10
20.8728307932
 20
18.0922649772
 10
20.8710328491
 20
18.1061331496
 10
20.8665282687
 20
18.1206444144
 10
20.8596000914
 20
18.1348869756
 10
20.8506836401
 20
18.1479659205
 10
20.8403391681
 20
18.1590594509
 10
20.8292166567
 20
18.1674705196
 10
20.8180149742
 20
18.1726706282
 10
20.8074379635
 20
18.1743330347
 10
20.7981502171
 20
18.1723532841
 10
20.7907353183
 20
18.1668557712
 10
20.7856591723
 20
18.1581859251
 10
20.7832407322
 20
18.1468885041
 10
20.7836319573
 20
18.1336733667
 10
20.7868082657
 20
18.1193708686
 10
20.7925700782
 20
18.1048796883
 10
20.8005553588
 20
18.0911103601
 10
20.8102623631
 20
18.0789280613
 10
20.8210811642
 20
18.0690982507
 10
20.8323319772
 20
18.0622385715
  0
LWPOLYLINE
  5
2FA
330
1F
100
AcDbEntity
  8
0
  6
Continuous
 62
     7
370
    15
100
AcDbPolyline
 90
        9
 70
   128
 43
0.0
 10
20.3021817232
 20
19.0443037604
 10
20.2951335616
 20
19.052042712
 10
20.2875685505
 20
19.0582533702
 10
20.2798371616
 20
19.0626480079
 10
20.2722975744
 20
19.0650230304
 10
20.2652990826
 20
19.0652684078
 10
20.2591659122
 20
19.0633727722
 10
20.2541822004
 20
19.0594239446
 10
20.2505788326
 20
19.0536048661
  0
LINE
  5
2FB
330
1F
100
AcDbEntity
  8
0
  6
Continuous
 62
     7
370
    15
100
AcDbLine
 10
20.3021817232
 20
19.0443037604
 30
0.0
 11
20.9189591328
 21
18.2695398642
 31
0.0
  0
LWPOLYLINE
  5
2FC
330
1F
100
AcDbEntity
  8
0
  6
Continuous
 62
     7
370
    15
100
AcDbPolyline
 90
       26
 70
   128
 43
0.0
 10
20.9189591328
 20
18.2695398642
 10
20.9390824574
 20
18.2461590743
 10
20.9603239025
 20
18.2251380212
 10
20.982348478
 20
18.2068082194
 10
21.0048088429
 20
18.1914587409
 10
21.0273507841
 20
18.1793316561
 10
21.0496188017
 20
18.1706182164
 10
21.0712617155
 20
18.165455838
 10
21.0919382041
 20
18.1639259345
 10
21.1113221868
 20
18.1660526336
 10
21.1291079667
 20
18.1718023959
 10
21.1450150513
 20
18.1810845442
 10
21.1587925764
 20
18.1937526935
 10
21.1702232623
 20
18.2096070595
 10
21.1791268402
 20
18.2283976094
 10
21.1853628953
 20
18.249828005
 10
21.1888330814
 20
18.2735602761
 10
21.1894826714
 20
18.2992201507
 10
21.1873014211
 20
18.3264029572
 10
21.18232373
 20
18.3546800065
 10
21.1746280993
 20
18.3836053527
 10
21.1643358937
 20
18.4127228257
 10
21.1516094274
 20
18.4415732256
 10
21.1366494043
 20
18.4697015645
 10
21.1196917531
 20
18.4966642415
 10
21.1010039059
 20
18.5220360391
  0
LINE
  5
2FD
330
1F
100
AcDbEntity
  8
0
  6
Continuous
 62
     7
370
    15
100
AcDbLine
 10
20.4842264963
 20
19.2967999353
 30
0.0
 11
21.1010039059
 21
18.5220360391
 31
0.0
  0
ARC
  5
2FE
330
1F
100
AcDbEntity
  8
0
  6
Continuous
 62
     7
370
    15
100
AcDbCircle
 10
20.5211847982
 20
19.3365123889
 30
0.0
 40
0.0542493783242268
100
AcDbArc
 50
149.1028229529
 51
227.0572830807
  0
LWPOLYLINE
  5
2FF
330
1F
100
AcDbEntity
  8
0
  6
Continuous
 62
     7
370
    15
100
AcDbPolyline
 90
      136
 70
   128
 43
0.0
 10
20.2505788326
 20
19.0536048661
 10
20.2284864542
 20
18.9975128597
 10
20.2090532068
 20
18.938824561
 10
20.1923171422
 20
18.8776548866
 10
20.1783110311
 20
18.8141236116
 10
20.1670622984
 20
18.7483551354
 10
20.1585929702
 20
18.680478238
 10
20.1529196302
 20
18.610625828
 10
20.150053387
 20
18.5389346819
 10
20.1499998532
 20
18.465545177
 10
20.1527591334
 20
18.3906010157
 10
20.1583258249
 20
18.3142489449
 10
20.1666890275
 20
18.2366384682
 10
20.1778323655
 20
18.1579215531
 10
20.1917340193
 20
18.0782523338
 10
20.2083667683
 20
17.997786809
 10
20.2276980443
 20
17.9166825369
 10
20.249689995
 20
17.8350983261
 10
20.2742995584
 20
17.7531939252
 10
20.301478547
 20
17.6711297096
 10
20.3311737421
 20
17.5890663678
 10
20.3633269981
 20
17.5071645864
 10
20.3978753563
 20
17.4255847358
 10
20.4347511683
 20
17.344486556
 10
20.4738822282
 20
17.2640288438
 10
20.5151919142
 20
17.1843691419
 10
20.5585993385
 20
17.1056634306
 10
20.604019506
 20
17.0280658218
 10
20.6513634802
 20
16.9517282582
 10
20.7005385577
 20
16.8768002149
 10
20.7514484499
 20
16.803428407
 10
20.803993471
 20
16.7317565025
 10
20.8580707335
 20
16.6619248409
 10
20.9135743498
 20
16.5940701581
 10
20.9703956392
 20
16.5283253193
 10
21.0284233412
 20
16.464819058
 10
21.0875438328
 20
16.4036757248
 10
21.1476413511
 20
16.3450150432
 10
21.2085982204
 20
16.2889518757
 10
21.2702950822
 20
16.2355959984
 10
21.332611129
 20
16.1850518866
 10
21.3954243409
 20
16.1374185097
 10
21.4586117246
 20
16.0927891376
 10
21.522049554
 20
16.0512511585
 10
21.5856136128
 20
16.0128859069
 10
21.6491794372
 20
15.9777685052
 10
21.7126225602
 20
15.9459677161
 10
21.7758187552
 20
15.9175458081
 10
21.8386442787
 20
15.8925584336
 10
21.9009761133
 20
15.87105452
 10
21.9626922082
 20
15.8530761737
 10
22.0236717183
 20
15.8386585977
 10
22.0837952408
 20
15.8278300227
 10
22.1429450488
 20
15.8206116521
 10
22.2010053223
 20
15.81701762
 10
22.2578623745
 20
15.8170549638
 10
22.3134048747
 20
15.8207236104
 10
22.3675240662
 20
15.8280163762
 10
22.4201139792
 20
15.8389189815
 10
22.4710716384
 20
15.853410078
 10
22.5202972645
 20
15.871461291
 10
22.5676944697
 20
15.8930372748
 10
22.6131704466
 20
15.9180957818
 10
22.6566361493
 20
15.9465877455
 10
22.6980064687
 20
15.9784573762
 10
22.7372003981
 20
16.0136422707
 10
22.7741411927
 20
16.052073534
 10
22.8087565194
 20
16.0936759146
 10
22.8409785986
 20
16.1383679517
 10
22.8707443369
 20
16.1860621346
 10
22.8979954505
 20
16.2366650743
 10
22.9226785795
 20
16.2900776861
 10
22.9447453923
 20
16.3461953837
 10
22.9641526804
 20
16.4049082841
 10
22.9808624427
 20
16.4661014227
 10
22.9948419601
 20
16.5296549784
 10
23.0060638595
 20
16.5954445082
 10
23.0145061677
 20
16.6633411907
 10
23.0201523538
 20
16.7332120788
 10
23.0229913622
 20
16.8049203596
 10
23.0230176339
 20
16.8783256224
 10
23.0202311174
 20
16.9532841338
 10
23.0146372689
 20
17.029649119
 10
23.0062470417
 20
17.107271049
 10
22.9950768645
 20
17.1859979338
 10
22.9811486095
 20
17.2656756199
 10
22.9644895492
 20
17.3461480917
 10
22.9451323035
 20
17.4272577778
 10
22.9231147754
 20
17.5088458586
 10
22.898480077
 20
17.5907525782
 10
22.8712764451
 20
17.6728175564
 10
22.8415571467
 20
17.7548801035
 10
22.8093803744
 20
17.8367795343
 10
22.7748091331
 20
17.918355483
 10
22.737911116
 20
17.9994482173
 10
22.6987585725
 20
18.079898951
 10
22.6574281664
 20
18.1595501551
 10
22.614000826
 20
18.238245866
 10
22.5685615855
 20
18.3158319912
 10
22.5211994188
 20
18.3921566106
 10
22.4720070647
 20
18.4670702745
 10
22.421080846
 20
18.5404262959
 10
22.3685204802
 20
18.6120810377
 10
22.3144288848
 20
18.6818941941
 10
22.2589119756
 20
18.7497290652
 10
22.2020784592
 20
18.8154528249
 10
22.1440396203
 20
18.8789367807
 10
22.0849091035
 20
18.9400566258
 10
22.0248026914
 20
18.9986926827
 10
21.963838077
 20
19.0547301371
 10
21.9021346341
 20
19.1080592633
 10
21.839813183
 20
19.1585756383
 10
21.7769957542
 20
19.2061803471
 10
21.7138053493
 20
19.2507801758
 10
21.6503657003
 20
19.2922877942
 10
21.5868010271
 20
19.3306219271
 10
21.5232357946
 20
19.3657075132
 10
21.4597944687
 20
19.3974758519
 10
21.3966012725
 20
19.4258647384
 10
21.3337799436
 20
19.4508185848
 10
21.2714534912
 20
19.4722885296
 10
21.2097439555
 20
19.4902325328
 10
21.1487721689
 20
19.5046154585
 10
21.088657519
 20
19.515409144
 10
21.0295177152
 20
19.5225924542
 10
20.9714685582
 20
19.5261513236
 10
20.9146237127
 20
19.5260787837
 10
20.8590944857
 20
19.5223749766
 10
20.8049896079
 20
19.5150471545
 10
20.752415021
 20
19.504109666
 10
20.7014736704
 20
19.4895839275
 10
20.6522653033
 20
19.4714983816
 10
20.6048862738
 20
19.4498884414
 10
20.5594293539
 20
19.4247964207
 10
20.5159835518
 20
19.3962714519
 10
20.4746339379
 20
19.3643693891
  0
ARC
  5
300
330
1F
100
AcDbEntity
  8
0
  6
Continuous
 62
     7
370
    15
100
AcDbCircle
 10
21.8161492451
 20
16.0879940276
 30
0.0
 40
0.0764640550917069
100
AcDbArc
 50
186.0979506771
 51
242.6138915183
  0
LWPOLYLINE
  5
301
330
1F
100
AcDbEntity
  8
0
  6
Continuous
 62
     7
370
    15
100
AcDbPolyline
 90
       17
 70
   128
 43
0.0
 10
21.7809769636
 20
16.0200995335
 10
21.8425368812
 20
15.996621475
 10
21.903546707
 20
15.9767422494
 10
21.9638753544
 20
15.9605045693
 10
22.0233932003
 20
15.9479433235
 10
22.0819723639
 20
15.9390855011
 10
22.1394869809
 20
15.9339501342
 10
22.1958134746
 20
15.9325482567
 10
22.2508308211
 20
15.9348828808
 10
22.3044208093
 20
15.9409489902
 10
22.3564682948
 20
15.9507335512
 10
22.4068614476
 20
15.9642155405
 10
22.4554919923
 20
15.9813659905
 10
22.5022554404
 20
16.0021480515
 10
22.5470513154
 20
16.0265170709
 10
22.5897833682
 20
16.0544206889
 10
22.6303597839
 20
16.0857989515
  0
ARC
  5
302
330
1F
100
AcDbEntity
  8
0
  6
Continuous
 62
     7
370
    15
100
AcDbCircle
 10
22.5868806893
 20
16.1132077434
 30
0.0
 40
0.0513972133312129
100
AcDbArc
 50
327.7730736498
 51
43.0214804318
  0
LINE
  5
303
330
1F
100
AcDbEntity
  8
0
  6
Continuous
 62
     7
370
    15
100
AcDbLine
 10
22.3967681162
 20
16.4824349356
 30
0.0
 11
22.6244570874
 21
16.1482746486
 31
0.0
  0
LWPOLYLINE
  5
304
330
1F
100
AcDbEntity
  8
0
  6
Continuous
 62
     7
370
    15
100
AcDbPolyline
 90
        9
 70
   128
 43
0.0
 10
22.3471746249
 20
16.5046792324
 10
22.3520550926
 20
16.5074696053
 10
22.3577724164
 20
16.5085986373
 10
22.3641165609
 20
16.5080248518
 10
22.3708544636
 20
16.5057693275
 10
22.3777385964
 20
16.501914925
 10
22.3845160594
 20
16.496603242
 10
22.3909378713
 20
16.4900294121
 10
22.3967681162
 20
16.4824349356
  0
LWPOLYLINE
  5
305
330
1F
100
AcDbEntity
  8
0
  6
Continuous
 62
     7
370
    15
100
AcDbPolyline
 90
       14
 70
   128
 43
0.0
 10
21.7366372065
 20
16.4574544097
 10
21.7909248888
 20
16.4375546465
 10
21.844574649
 20
16.4215060216
 10
21.8974190569
 20
16.4093586197
 10
21.9492931954
 20
16.4011503505
 10
22.0000351754
 20
16.3969068303
 10
22.0494866412
 20
16.3966413023
 10
22.0974932644
 20
16.4003545952
 10
22.1439052259
 20
16.4080351206
 10
22.188577683
 20
16.4196589089
 10
22.2313712217
 20
16.4351896848
 10
22.2721522918
 20
16.4545789796
 10
22.3107936235
 20
16.4777662831
 10
22.3471746249
 20
16.5046792324
  0
LWPOLYLINE
  5
306
330
1F
100
AcDbEntity
  8
0
  6
Continuous
 62
     7
370
    15
100
AcDbPolyline
 90
        9
 70
   128
 43
0.0
 10
21.7064227047
 20
16.4290369969
 10
21.7062747835
 20
16.4370709988
 10
21.7074428204
 20
16.4442319005
 10
21.7098839058
 20
16.4502566345
 10
21.7135083623
 20
16.4549238721
 10
21.7181830395
 20
16.4580621548
 10
21.7237362054
 20
16.4595561925
 10
21.7299638554
 20
16.4593510994
 10
21.7366372065
 20
16.4574544097
  0
LINE
  5
307
330
1F
100
AcDbEntity
  8
0
  6
Continuous
 62
     7
370
    15
100
AcDbLine
 10
21.7064227047
 20
16.4290369969
 30
0.0
 11
21.7401178432
 21
16.0798713653
 31
0.0
  0
ARC
  5
308
330
1F
100
AcDbEntity
  8
0
  6
Continuous
 62
     7
370
    15
100
AcDbCircle
 10
20.9296651485
 20
18.9454186761
 30
0.0
 40
0.0402059139275446
100
AcDbArc
 50
209.7818418589
 51
279.942398993
  0
LWPOLYLINE
  5
309
330
1F
100
AcDbEntity
  8
0
  6
Continuous
 62
     7
370
    15
100
AcDbPolyline
 90
       11
 70
   128
 43
0.0
 10
21.4363935251
 20
18.8856974681
 10
21.3814514414
 20
18.9058149113
 10
21.3271649248
 20
18.921986627
 10
21.2737075233
 20
18.9341609159
 10
21.2212501343
 20
18.9422988582
 10
21.1699604586
 20
18.9463744377
 10
21.1200024635
 20
18.9463746252
 10
21.0715358593
 20
18.9422994203
 10
21.0247155885
 20
18.9341618507
 10
20.9796913304
 20
18.9219879316
 10
20.9366070227
 20
18.9058165815
  0
LWPOLYLINE
  5
30A
330
1F
100
AcDbEntity
  8
0
  6
Continuous
 62
     7
370
    15
100
AcDbPolyline
 90
        9
 70
   128
 43
0.0
 10
21.4666080269
 20
18.9141148809
 10
21.4667559481
 20
18.906080879
 10
21.4655879112
 20
18.8989199773
 10
21.4631468258
 20
18.8928952434
 10
21.4595223693
 20
18.8882280057
 10
21.4548476921
 20
18.885089723
 10
21.4492945262
 20
18.8835956853
 10
21.4430668762
 20
18.8838007785
 10
21.4363935251
 20
18.8856974681
  0
LINE
  5
30B
330
1F
100
AcDbEntity
  8
0
  6
Continuous
 62
     7
370
    15
100
AcDbLine
 10
21.4666080269
 20
18.9141148809
 30
0.0
 11
21.4329128884
 21
19.2632805126
 31
0.0
  0
ARC
  5
30C
330
1F
100
AcDbEntity
  8
0
  6
Continuous
 62
     7
370
    15
100
AcDbCircle
 10
21.3568814864
 20
19.2551578502
 30
0.0
 40
0.0764640550917117
100
AcDbArc
 50
6.0979506771
 51
62.6138915183
  0
LWPOLYLINE
  5
30D
330
1F
100
AcDbEntity
  8
0
  6
Continuous
 62
     7
370
    15
100
AcDbPolyline
 90
       15
 70
   128
 43
0.0
 10
21.392053768
 20
19.3230523443
 10
21.3308413415
 20
19.3464074282
 10
21.2701720515
 20
19.3662046134
 10
21.2101747799
 20
19.3824018442
 10
21.1509769807
 20
19.3949647123
 10
21.0927044098
 20
19.40386653
 10
21.0354808575
 20
19.4090883868
 10
20.9794278856
 20
19.4106191899
 10
20.9246645692
 20
19.4084556872
 10
20.8713072438
 20
19.4026024748
 10
20.8194692581
 20
19.3930719868
 10
20.7692607332
 20
19.3798844691
 10
20.7207883288
 20
19.3630679365
 10
20.6741550162
 20
19.3426581128
 10
20.6294598602
 20
19.3186983553
  0
LWPOLYLINE
  5
30E
330
1F
100
AcDbEntity
  8
0
  6
Continuous
 62
     7
370
    15
100
AcDbPolyline
 90
        9
 70
   128
 43
0.0
 10
20.6367768631
 20
19.2495254734
 10
20.6302618835
 20
19.2589489944
 10
20.6250206998
 20
19.2691880356
 10
20.6213233908
 20
19.2797149783
 10
20.6193604791
 20
19.2899873681
 10
20.6192331138
 20
19.2994758679
 10
20.620947858
 20
19.3076915342
 10
20.6244163507
 20
19.3142110132
 10
20.6294598602
 20
19.3186983553
  0
LINE
  5
30F
330
1F
100
AcDbEntity
  8
0
  6
Continuous
 62
     7
370
    15
100
AcDbLine
 10
20.6367768631
 20
19.2495254734
 30
0.0
 11
20.8947695147
 21
18.9254484419
 31
0.0
  0
LWPOLYLINE
  5
310
330
1F
100
AcDbEntity
  8
0
  6
Continuous
 62
     7
370
    15
100
AcDbPolyline
 90
       73
 70
   128
 43
0.0
 10
22.73713664
 20
15.9895275232
 10
22.7478742884
 20
15.9958586545
 10
22.7913399912
 20
16.0243506182
 10
22.8327103105
 20
16.0562202489
 10
22.8719042399
 20
16.0914051433
 10
22.9088450345
 20
16.1298364066
 10
22.9434603612
 20
16.1714387873
 10
22.9756824404
 20
16.2161308244
 10
23.0054481787
 20
16.2638250073
 10
23.0326992923
 20
16.314427947
 10
23.0573824213
 20
16.3678405587
 10
23.0794492341
 20
16.4239582563
 10
23.0988565222
 20
16.4826711568
 10
23.1155662845
 20
16.5438642954
 10
23.1295458019
 20
16.6074178511
 10
23.1407677013
 20
16.6732073808
 10
23.1492100095
 20
16.7411040633
 10
23.1548561956
 20
16.8109749514
 10
23.157695204
 20
16.8826832322
 10
23.1577214757
 20
16.9560884951
 10
23.1549349592
 20
17.0310470065
 10
23.1493411107
 20
17.1074119916
 10
23.1409508835
 20
17.1850339216
 10
23.1297807064
 20
17.2637608065
 10
23.1158524513
 20
17.3434384925
 10
23.099193391
 20
17.4239109644
 10
23.0798361453
 20
17.5050206504
 10
23.0578186172
 20
17.5866087313
 10
23.0331839188
 20
17.6685154508
 10
23.005980287
 20
17.7505804291
 10
22.9762609885
 20
17.8326429762
 10
22.9440842162
 20
17.9145424069
 10
22.9095129749
 20
17.9961183556
 10
22.8726149578
 20
18.0772110899
 10
22.8334624143
 20
18.1576618236
 10
22.7921320082
 20
18.2373130277
 10
22.7487046678
 20
18.3160087387
 10
22.7032654273
 20
18.3935948638
 10
22.6559032606
 20
18.4699194833
 10
22.6067109065
 20
18.5448331472
 10
22.5557846878
 20
18.6181891686
 10
22.503224322
 20
18.6898439103
 10
22.4491327266
 20
18.7596570667
 10
22.3936158174
 20
18.8274919378
 10
22.336782301
 20
18.8932156975
 10
22.2787434621
 20
18.9566996533
 10
22.2196129454
 20
19.0178194984
 10
22.1595065332
 20
19.0764555553
 10
22.0985419188
 20
19.1324930098
 10
22.0368384759
 20
19.1858221359
 10
21.9745170248
 20
19.236338511
 10
21.911699596
 20
19.2839432197
 10
21.8485091911
 20
19.3285430484
 10
21.7850695421
 20
19.3700506668
 10
21.7215048689
 20
19.4083847998
 10
21.6579396364
 20
19.4434703858
 10
21.5944983105
 20
19.4752387246
 10
21.5313051143
 20
19.503627611
 10
21.4684837854
 20
19.5285814575
 10
21.406157333
 20
19.5500514022
 10
21.3444477973
 20
19.5679954054
 10
21.2834760107
 20
19.5823783312
 10
21.2233613608
 20
19.5931720166
 10
21.1642215571
 20
19.6003553268
 10
21.1061724
 20
19.6039141962
 10
21.0493275545
 20
19.6038416564
 10
20.9937983275
 20
19.6001378492
 10
20.9396934497
 20
19.5928100271
 10
20.8871188628
 20
19.5818725386
 10
20.8361775122
 20
19.5673468001
 10
20.7869691452
 20
19.5492612543
 10
20.7395901157
 20
19.527651314
 10
20.7053017752
 20
19.5091500999
  0
LINE
  5
311
330
1F
100
AcDbEntity
  8
0
  6
Continuous
 62
     7
370
    15
100
AcDbLine
 10
22.5412063018
 20
17.9825431269
 30
0.0
 11
22.40650246
 21
17.9047802542
 31
0.0
  0
LINE
  5
312
330
1F
100
AcDbEntity
  8
0
  6
Continuous
 62
     7
370
    15
100
AcDbLine
 10
22.5412063018
 20
17.9825431269
 30
0.0
 11
22.6485149015
 21
18.0130616908
 31
0.0
  0
LINE
  5
313
330
1F
100
AcDbEntity
  8
0
  6
Continuous
 62
     7
370
    15
100
AcDbLine
 10
22.3570021672
 20
17.9406423668
 30
0.0
 11
22.491706009
 21
18.0184052395
 31
0.0
  0
LINE
  5
314
330
1F
100
AcDbEntity
  8
0
  6
Continuous
 62
     7
370
    15
100
AcDbLine
 10
21.8866931084
 20
18.7784019588
 30
0.0
 11
21.7519892665
 21
18.7006390862
 31
0.0
  0
ARC
  5
315
330
1F
100
AcDbEntity
  8
0
  6
Continuous
 62
     7
370
    15
100
AcDbCircle
 10
20.5047732938
 20
17.0574772577
 30
0.0
 40
2.207098593371515
100
AcDbArc
 50
25.8095165926
 51
51.2351859008
  0
LINE
  5
316
330
1F
100
AcDbEntity
  8
0
  6
Continuous
 62
     7
370
    15
100
AcDbLine
 10
21.722403718
 20
18.7641219295
 30
0.0
 11
21.8571075598
 21
18.8418848022
 31
0.0
  0
LINE
  5
317
330
1F
100
AcDbEntity
  8
0
  6
Continuous
 62
     7
370
    15
100
AcDbLine
 10
21.8571075598
 20
18.8418848022
 30
0.0
 11
21.879363627
 21
19.020824178
 31
0.0
  0
ARC
  5
318
330
1F
100
AcDbEntity
  8
0
  6
Continuous
 62
     7
370
    15
100
AcDbCircle
 10
22.5414551241
 20
18.0349801333
 30
0.0
 40
0.0524375967900986
100
AcDbArc
 50
198.4265064088
 51
269.7281240946
  0
ARC
  5
319
330
1F
100
AcDbEntity
  8
0
  6
Continuous
 62
     7
370
    15
100
AcDbCircle
 10
21.9338299755
 20
18.8390050747
 30
0.0
 40
0.0767764410336515
100
AcDbArc
 50
177.8504481216
 51
232.1243622667
  0
LINE
  5
31A
330
1F
100
AcDbEntity
  8
0
  6
Continuous
 62
     7
370
    15
100
AcDbLine
 10
21.0713108645
 20
18.9835794541
 30
0.0
 11
20.9366070227
 21
18.9058165815
 31
0.0
  0
ARC
  5
31B
330
1F
100
AcDbEntity
  8
0
  6
Continuous
 62
     7
370
    15
100
AcDbCircle
 10
21.2896529056
 20
18.4297714738
 30
0.0
 40
0.5952953267214278
100
AcDbArc
 50
73.5474505408
 51
111.5171288824
  0
LINE
  5
31C
330
1F
100
AcDbEntity
  8
0
  6
Continuous
 62
     7
370
    15
100
AcDbLine
 10
21.5444431062
 20
18.267809622
 30
0.0
 11
21.4097392644
 21
18.1900467494
 31
0.0
  0
LWPOLYLINE
  5
31D
330
1F
100
AcDbEntity
  8
0
  6
Continuous
 62
     7
370
    15
100
AcDbPolyline
 90
        3
 70
   128
 43
0.0
 10
21.549026598
 20
18.3101173428
 10
21.54603624
 20
18.2928705516
 10
21.5444431062
 20
18.267809622
  0
LINE
  5
31E
330
1F
100
AcDbEntity
  8
0
  6
Continuous
 62
     7
370
    15
100
AcDbLine
 10
20.7714807049
 20
19.3272883461
 30
0.0
 11
20.6367768631
 21
19.2495254734
 31
0.0
  0
LINE
  5
31F
330
1F
100
AcDbEntity
  8
0
  6
Continuous
 62
     7
370
    15
100
AcDbLine
 10
20.8947695147
 20
18.9254484419
 30
0.0
 11
21.0294733565
 21
19.0032113146
 31
0.0
  0
LINE
  5
320
330
1F
100
AcDbEntity
  8
0
  6
Continuous
 62
     7
370
    15
100
AcDbLine
 10
20.7714807049
 20
19.3272883461
 30
0.0
 11
21.0294733565
 21
19.0032113146
 31
0.0
  0
LINE
  5
321
330
1F
100
AcDbEntity
  8
0
  6
Continuous
 62
     7
370
    15
100
AcDbLine
 10
21.9156808054
 20
16.0978624062
 30
0.0
 11
21.7809769636
 21
16.0200995335
 31
0.0
  0
LWPOLYLINE
  5
322
330
1F
100
AcDbEntity
  8
0
  6
Continuous
 62
     7
370
    15
100
AcDbPolyline
 90
       14
 70
   128
 43
0.0
 10
21.9156808054
 20
16.0978624062
 10
21.977240723
 20
16.0743843477
 10
22.0382505488
 20
16.054505122
 10
22.0985791962
 20
16.038267442
 10
22.1580970421
 20
16.0257061961
 10
22.2166762057
 20
16.0168483737
 10
22.2741908227
 20
16.0117130068
 10
22.3305173165
 20
16.0103111294
 10
22.385534663
 20
16.0126457535
 10
22.4391246511
 20
16.0187118628
 10
22.4911721366
 20
16.0284964238
 10
22.5415652894
 20
16.0419784131
 10
22.5901958341
 20
16.0591288631
 10
22.6039062272
 20
16.0647633468
  0
LINE
  5
323
330
1F
100
AcDbEntity
  8
0
  6
Continuous
 62
     7
370
    15
100
AcDbLine
 10
21.5387961609
 20
17.4414896975
 30
0.0
 11
21.4040923191
 21
17.3637268249
 31
0.0
  0
LINE
  5
324
330
1F
100
AcDbEntity
  8
0
  6
Continuous
 62
     7
370
    15
100
AcDbLine
 10
21.5387961609
 20
17.4414896975
 30
0.0
 11
21.5444431062
 21
18.267809622
 31
0.0
  0
ARC
  5
325
330
1F
100
AcDbEntity
  8
0
  6
Continuous
 62
     7
370
    15
100
AcDbCircle
 10
21.0643689903
 20
19.0231815488
 30
0.0
 40
0.0402059139275347
100
AcDbArc
 50
209.7818418589
 51
279.942398993
  0
LINE
  5
326
330
1F
100
AcDbEntity
  8
0
  6
Continuous
 62
     7
370
    15
100
AcDbLine
 10
21.0536629746
 20
18.3473027368
 30
0.0
 11
20.9189591328
 21
18.2695398642
 31
0.0
  0
ARC
  5
327
330
1F
100
AcDbEntity
  8
0
  6
Continuous
 62
     7
370
    15
100
AcDbCircle
 10
21.2767211701
 20
18.5062518813
 30
0.0
 40
0.2738974061881805
100
AcDbArc
 50
215.4733101896
 51
250.4345802837
  0
ARC
  5
328
330
1F
100
AcDbEntity
  8
0
  6
Continuous
 62
     7
370
    15
100
AcDbCircle
 10
20.8302687165
 20
19.3762141202
 30
0.0
 40
0.0764837348164178
100
AcDbArc
 50
180.9277659239
 51
219.7686040277
  0
LINE
  5
329
330
1F
100
AcDbEntity
  8
0
  6
Continuous
 62
     7
370
    15
100
AcDbLine
 10
20.4368855651
 20
19.122066633
 30
0.0
 11
20.3021817232
 21
19.0443037604
 31
0.0
  0
LINE
  5
32A
330
1F
100
AcDbEntity
  8
0
  6
Continuous
 62
     7
370
    15
100
AcDbLine
 10
21.0536629746
 20
18.3473027368
 30
0.0
 11
20.4368855651
 21
19.122066633
 31
0.0
  0
LWPOLYLINE
  5
32B
330
1F
100
AcDbEntity
  8
0
  6
Continuous
 62
     7
370
    15
100
AcDbPolyline
 90
       16
 70
   128
 43
0.0
 10
21.5387961609
 20
17.4414896975
 10
21.5400354197
 20
17.414767953
 10
21.5440875272
 20
17.3868068114
 10
21.5508885793
 20
17.3580472365
 10
21.5603313193
 20
17.3289427842
 10
21.5722668296
 20
17.2999524489
 10
21.58650688
 20
17.2715334255
 10
21.6028268964
 20
17.2441338992
 10
21.6209695024
 20
17.2181859766
 10
21.6406485783
 20
17.1940988722
 10
21.6615537734
 20
17.1722524539
 10
21.6833554001
 20
17.1529912528
 10
21.7057096338
 20
17.1366190294
 10
21.7282639349
 20
17.1233939837
 10
21.7506626086
 20
17.1135246824
 10
21.7587079754
 20
17.1107974077
  0
ARC
  5
32C
330
1F
100
AcDbEntity
  8
0
  6
Continuous
 62
     7
370
    15
100
AcDbCircle
 10
20.403087954
 20
19.1035358306
 30
0.0
 40
0.0385443789661135
100
AcDbArc
 50
28.7354012192
 51
104.7366705039
  0
LINE
  5
32D
330
1F
100
AcDbEntity
  8
0
  6
Continuous
 62
     7
370
    15
100
AcDbLine
 10
21.7401178432
 20
16.0798713653
 30
0.0
 11
21.874821685
 21
16.1576342379
 31
0.0
  0
LINE
  5
32E
330
1F
100
AcDbEntity
  8
0
  6
Continuous
 62
     7
370
    15
100
AcDbLine
 10
21.8494814209
 20
16.4202225442
 30
0.0
 11
21.874821685
 21
16.1576342379
 31
0.0
  0
LINE
  5
32F
330
1F
100
AcDbEntity
  8
0
  6
Continuous
 62
     7
370
    15
100
AcDbLine
 10
20.6641004536
 20
17.3955202891
 30
0.0
 11
20.5293966118
 21
17.3177574164
 31
0.0
  0
ARC
  5
330
330
1F
100
AcDbEntity
  8
0
  6
Continuous
 62
     7
370
    15
100
AcDbCircle
 10
23.415298283
 20
18.7167230273
 30
0.0
 40
3.051993802682012
100
AcDbArc
 50
205.6516306892
 51
229.3809969128
  0
ARC
  5
331
330
1F
100
AcDbEntity
  8
0
  6
Continuous
 62
     7
370
    15
100
AcDbCircle
 10
21.950853087
 20
16.1657569003
 30
0.0
 40
0.07646405509167
100
AcDbArc
 50
186.0979506771
 51
242.6138915183
  0
LWPOLYLINE
  5
332
330
1F
100
AcDbEntity
  8
0
  6
Continuous
 62
     7
370
    15
100
AcDbPolyline
 90
        3
 70
   128
 43
0.0
 10
20.6592196719
 20
17.4078530597
 10
20.6602430002
 20
17.4047184722
 10
20.6641004536
 20
17.3955202891
  0
LINE
  5
333
330
1F
100
AcDbEntity
  8
0
  6
Continuous
 62
     8
370
    15
100
AcDbLine
 10
22.6369268773
 20
17.9703129545
 30
0.0
 11
22.6442299987
 21
17.9745289568
 31
0.0
  0
LINE
  5
334
330
1F
100
AcDbEntity
  8
0
  6
Continuous
 62
     8
370
    15
100
AcDbLine
 10
21.7914272957
 20
19.0889402482
 30
0.0
 11
21.760589678
 21
19.0711380704
 31
0.0
  0
LINE
  5
335
330
1F
100
AcDbEntity
  8
0
  6
Continuous
 62
     8
370
    15
100
AcDbLine
 10
20.6294598602
 20
19.3186983553
 30
0.0
 11
20.6387483248
 21
19.3240604718
 31
0.0
  0
LINE
  5
336
330
1F
100
AcDbEntity
  8
0
  6
Continuous
 62
     8
370
    15
100
AcDbLine
 10
21.4363935251
 20
18.8856974681
 30
0.0
 11
21.4664374581
 21
18.9030414614
 31
0.0
  0
LINE
  5
337
330
1F
100
AcDbEntity
  8
0
  6
Continuous
 62
     8
370
    15
100
AcDbLine
 10
22.3519216527
 20
16.5074196333
 30
0.0
 11
22.3471746249
 21
16.5046792324
 31
0.0
  0
LINE
  5
338
330
1F
100
AcDbEntity
  8
0
  6
Continuous
 62
     8
370
    15
100
AcDbLine
 10
21.747949707
 20
16.453010025
 30
0.0
 11
21.7064227047
 21
16.4290369969
 31
0.0
  0
LINE
  5
339
330
1F
100
AcDbEntity
  8
0
  6
Continuous
 62
     8
370
    15
100
AcDbLine
 10
21.3710936944
 20
16.2604460421
 30
0.0
 11
21.4140894506
 21
16.2852669639
 31
0.0
  0
ENDSEC
  0
SECTION
  2
OBJECTS
  0
DICTIONARY
  5
C
330
0
100
AcDbDictionary
281
     1
  3
ACAD_GROUP
350
D
  3
ACAD_LAYOUT
350
1A
  3
ACAD_MLINESTYLE
350
17
  3
ACAD_PLOTSETTINGS
350
19
  3
ACAD_PLOTSTYLENAME
350
E
  3
ACAD_SCALELIST
350
47
  0
DICTIONARY
  5
D
102
{ACAD_REACTORS
330
C
102
}
330
C
100
AcDbDictionary
281
     1
  0
DICTIONARY
  5
1A
102
{ACAD_REACTORS
330
C
102
}
330
C
100
AcDbDictionary
281
     1
  3
Layout1
350
1E
  3
Layout2
350
26
  3
Model
350
22
  0
DICTIONARY
  5
17
102
{ACAD_REACTORS
330
C
102
}
330
C
100
AcDbDictionary
281
     1
  3
Standard
350
18
  0
DICTIONARY
  5
19
102
{ACAD_REACTORS
330
C
102
}
330
C
100
AcDbDictionary
281
     1
  0
ACDBDICTIONARYWDFLT
  5
E
102
{ACAD_REACTORS
330
C
102
}
330
C
100
AcDbDictionary
281
     1
  3
Normal
350
F
100
AcDbDictionaryWithDefault
340
F
  0
DICTIONARY
  5
47
102
{ACAD_REACTORS
330
C
102
}
330
C
100
AcDbDictionary
281
     1
  3
A0
350
48
  3
A1
350
49
  3
A2
350
4A
  3
A3
350
4B
  3
A4
350
4C
  3
A5
350
4D
  3
A6
350
4E
  3
A7
350
4F
  3
A8
350
50
  3
A9
350
51
  3
B0
350
52
  3
B1
350
53
  3
B2
350
54
  3
B3
350
55
  3
B4
350
56
  3
B5
350
57
  3
B6
350
58
  3
B7
350
59
  3
B8
350
5A
  3
B9
350
5B
  3
C0
350
5C
  3
C1
350
5D
  3
C2
350
5E
  3
C3
350
5F
  3
C4
350
60
  3
C5
350
61
  3
C6
350
62
  3
C7
350
63
  3
C8
350
64
  3
C9
350
65
  3
D0
350
66
  3
D1
350
67
  3
D2
350
68
  0
LAYOUT
  5
1E
102
{ACAD_REACTORS
330
1A
102
}
330
1A
100
AcDbPlotSettings
  1

  2
none_device
  4

  6

 40
0.0
 41
0.0
 42
0.0
 43
0.0
 44
0.0
 45
0.0
 46
0.0
 47
0.0
 48
0.0
 49
0.0
140
0.0
141
0.0
142
1.0
143
1.0
 70
   688
 72
     1
 73
     0
 74
     5
  7

 75
    16
147
1.0
148
0.0
149
0.0
100
AcDbLayout
  1
Layout1
 70
     1
 71
     1
 10
0.0
 20
0.0
 11
420.0
 21
297.0
 12
0.0
 22
0.0
 32
0.0
 14
1.0000000000E+20
 24
1.0000000000E+20
 34
1.0000000000E+20
 15
-1.0000000000E+20
 25
-1.0000000000E+20
 35
-1.0000000000E+20
146
0.0
 13
0.0
 23
0.0
 33
0.0
 16
1.0
 26
0.0
 36
0.0
 17
0.0
 27
1.0
 37
0.0
 76
     0
330
1B
  0
LAYOUT
  5
26
102
{ACAD_REACTORS
330
1A
102
}
330
1A
100
AcDbPlotSettings
  1

  2
none_device
  4

  6

 40
0.0
 41
0.0
 42
0.0
 43
0.0
 44
0.0
 45
0.0
 46
0.0
 47
0.0
 48
0.0
 49
0.0
140
0.0
141
0.0
142
1.0
143
1.0
 70
   688
 72
     1
 73
     0
 74
     5
  7

 75
    16
147
1.0
148
0.0
149
0.0
100
AcDbLayout
  1
Layout2
 70
     1
 71
     2
 10
0.0
 20
0.0
 11
0.0
 21
0.0
 12
0.0
 22
0.0
 32
0.0
 14
0.0
 24
0.0
 34
0.0
 15
0.0
 25
0.0
 35
0.0
146
0.0
 13
0.0
 23
0.0
 33
0.0
 16
1.0
 26
0.0
 36
0.0
 17
0.0
 27
1.0
 37
0.0
 76
     0
330
23
  0
LAYOUT
  5
22
102
{ACAD_REACTORS
330
1A
102
}
330
1A
100
AcDbPlotSettings
  1

  2
none_device
  4
Letter_(8.50_x_11.00_Inches)
  6

 40
6.35
 41
6.35
 42
6.35000508
 43
6.35000508
 44
215.9
 45
279.4
 46
0.0
 47
0.0
 48
0.0
 49
0.0
140
0.0
141
0.0
142
1.0
143
1.0
 70
  1712
 72
     1
 73
     0
 74
     0
  7

 75
     0
147
1.0
148
0.0
149
0.0
100
AcDbLayout
  1
Model
 70
     1
 71
     0
 10
0.0
 20
0.0
 11
27.94
 21
21.59
 12
0.0
 22
0.0
 32
0.0
 14
0.0
 24
0.0
 34
0.0
 15
27.94
 25
21.59
 35
0.0
146
0.0
 13
0.0
 23
0.0
 33
0.0
 16
1.0
 26
0.0
 36
0.0
 17
0.0
 27
1.0
 37
0.0
 76
     0
330
1F
331
29
  0
MLINESTYLE
  5
18
102
{ACAD_REACTORS
330
17
102
}
330
17
100
AcDbMlineStyle
  2
Standard
 70
     0
  3

 62
   256
 51
90.0
 52
90.0
 71
     2
 49
0.5
 62
   256
  6
BYLAYER
 49
-0.5
 62
   256
  6
BYLAYER
  0
ACDBPLACEHOLDER
  5
F
102
{ACAD_REACTORS
330
E
102
}
330
E
  0
SCALE
  5
48
102
{ACAD_REACTORS
330
47
102
}
330
47
100
AcDbScale
 70
     0
300
1:1
140
1.0
141
1.0
290
     1
  0
SCALE
  5
49
102
{ACAD_REACTORS
330
47
102
}
330
47
100
AcDbScale
 70
     0
300
1:2
140
1.0
141
2.0
290
     0
  0
SCALE
  5
4A
102
{ACAD_REACTORS
330
47
102
}
330
47
100
AcDbScale
 70
     0
300
1:4
140
1.0
141
4.0
290
     0
  0
SCALE
  5
4B
102
{ACAD_REACTORS
330
47
102
}
330
47
100
AcDbScale
 70
     0
300
1:5
140
1.0
141
5.0
290
     0
  0
SCALE
  5
4C
102
{ACAD_REACTORS
330
47
102
}
330
47
100
AcDbScale
 70
     0
300
1:8
140
1.0
141
8.0
290
     0
  0
SCALE
  5
4D
102
{ACAD_REACTORS
330
47
102
}
330
47
100
AcDbScale
 70
     0
300
1:10
140
1.0
141
10.0
290
     0
  0
SCALE
  5
4E
102
{ACAD_REACTORS
330
47
102
}
330
47
100
AcDbScale
 70
     0
300
1:16
140
1.0
141
16.0
290
     0
  0
SCALE
  5
4F
102
{ACAD_REACTORS
330
47
102
}
330
47
100
AcDbScale
 70
     0
300
1:20
140
1.0
141
20.0
290
     0
  0
SCALE
  5
50
102
{ACAD_REACTORS
330
47
102
}
330
47
100
AcDbScale
 70
     0
300
1:30
140
1.0
141
30.0
290
     0
  0
SCALE
  5
51
102
{ACAD_REACTORS
330
47
102
}
330
47
100
AcDbScale
 70
     0
300
1:40
140
1.0
141
40.0
290
     0
  0
SCALE
  5
52
102
{ACAD_REACTORS
330
47
102
}
330
47
100
AcDbScale
 70
     0
300
1:50
140
1.0
141
50.0
290
     0
  0
SCALE
  5
53
102
{ACAD_REACTORS
330
47
102
}
330
47
100
AcDbScale
 70
     0
300
1:100
140
1.0
141
100.0
290
     0
  0
SCALE
  5
54
102
{ACAD_REACTORS
330
47
102
}
330
47
100
AcDbScale
 70
     0
300
2:1
140
2.0
141
1.0
290
     0
  0
SCALE
  5
55
102
{ACAD_REACTORS
330
47
102
}
330
47
100
AcDbScale
 70
     0
300
4:1
140
4.0
141
1.0
290
     0
  0
SCALE
  5
56
102
{ACAD_REACTORS
330
47
102
}
330
47
100
AcDbScale
 70
     0
300
8:1
140
8.0
141
1.0
290
     0
  0
SCALE
  5
57
102
{ACAD_REACTORS
330
47
102
}
330
47
100
AcDbScale
 70
     0
300
10:1
140
10.0
141
1.0
290
     0
  0
SCALE
  5
58
102
{ACAD_REACTORS
330
47
102
}
330
47
100
AcDbScale
 70
     0
300
100:1
140
100.0
141
1.0
290
     0
  0
SCALE
  5
59
102
{ACAD_REACTORS
330
47
102
}
330
47
100
AcDbScale
 70
     0
300
1/128" = 1'-0"
140
0.0078125
141
12.0
290
     0
  0
SCALE
  5
5A
102
{ACAD_REACTORS
330
47
102
}
330
47
100
AcDbScale
 70
     0
300
1/64" = 1'-0"
140
0.015625
141
12.0
290
     0
  0
SCALE
  5
5B
102
{ACAD_REACTORS
330
47
102
}
330
47
100
AcDbScale
 70
     0
300
1/32" = 1'-0"
140
0.03125
141
12.0
290
     0
  0
SCALE
  5
5C
102
{ACAD_REACTORS
330
47
102
}
330
47
100
AcDbScale
 70
     0
300
1/16" = 1'-0"
140
0.0625
141
12.0
290
     0
  0
SCALE
  5
5D
102
{ACAD_REACTORS
330
47
102
}
330
47
100
AcDbScale
 70
     0
300
3/32" = 1'-0"
140
0.09375
141
12.0
290
     0
  0
SCALE
  5
5E
102
{ACAD_REACTORS
330
47
102
}
330
47
100
AcDbScale
 70
     0
300
1/8" = 1'-0"
140
0.125
141
12.0
290
     0
  0
SCALE
  5
5F
102
{ACAD_REACTORS
330
47
102
}
330
47
100
AcDbScale
 70
     0
300
3/16" = 1'-0"
140
0.1875
141
12.0
290
     0
  0
SCALE
  5
60
102
{ACAD_REACTORS
330
47
102
}
330
47
100
AcDbScale
 70
     0
300
1/4" = 1'-0"
140
0.25
141
12.0
290
     0
  0
SCALE
  5
61
102
{ACAD_REACTORS
330
47
102
}
330
47
100
AcDbScale
 70
     0
300
3/8" = 1'-0"
140
0.375
141
12.0
290
     0
  0
SCALE
  5
62
102
{ACAD_REACTORS
330
47
102
}
330
47
100
AcDbScale
 70
     0
300
1/2" = 1'-0"
140
0.5
141
12.0
290
     0
  0
SCALE
  5
63
102
{ACAD_REACTORS
330
47
102
}
330
47
100
AcDbScale
 70
     0
300
3/4" = 1'-0"
140
0.75
141
12.0
290
     0
  0
SCALE
  5
64
102
{ACAD_REACTORS
330
47
102
}
330
47
100
AcDbScale
 70
     0
300
1" = 1'-0"
140
1.0
141
12.0
290
     0
  0
SCALE
  5
65
102
{ACAD_REACTORS
330
47
102
}
330
47
100
AcDbScale
 70
     0
300
1-1/2" = 1'-0"
140
1.5
141
12.0
290
     0
  0
SCALE
  5
66
102
{ACAD_REACTORS
330
47
102
}
330
47
100
AcDbScale
 70
     0
300
3" = 1'-0"
140
3.0
141
12.0
290
     0
  0
SCALE
  5
67
102
{ACAD_REACTORS
330
47
102
}
330
47
100
AcDbScale
 70
     0
300
6" = 1'-0"
140
6.0
141
12.0
290
     0
  0
SCALE
  5
68
102
{ACAD_REACTORS
330
47
102
}
330
47
100
AcDbScale
 70
     0
300
1'-0" = 1'-0"
140
12.0
141
12.0
290
     0
  0
ENDSEC
  0
EOF
