G04 #@! TF.GenerationSoftware,KiCad,Pcbnew,(5.0.2)-1*
G04 #@! TF.CreationDate,2020-02-27T16:12:16-06:00*
G04 #@! TF.ProjectId,tri-slot-feedlines,7472692d-736c-46f7-942d-666565646c69,rev?*
G04 #@! TF.SameCoordinates,Original*
G04 #@! TF.FileFunction,Copper,L2,Bot*
G04 #@! TF.FilePolarity,Positive*
%FSLAX46Y46*%
G04 Gerber Fmt 4.6, Leading zero omitted, Abs format (unit mm)*
G04 Created by KiCad (PCBNEW (5.0.2)-1) date 2/27/2020 4:12:16 PM*
%MOMM*%
%LPD*%
G01*
G04 APERTURE LIST*
G04 #@! TA.AperFunction,ComponentPad*
%ADD10C,3.600000*%
G04 #@! TD*
G04 #@! TA.AperFunction,ViaPad*
%ADD11C,0.800000*%
G04 #@! TD*
G04 #@! TA.AperFunction,Conductor*
%ADD12C,1.500000*%
G04 #@! TD*
G04 APERTURE END LIST*
D10*
G04 #@! TO.P,slot_l1,1*
G04 #@! TO.N,Net-(C1-Pad2)*
X1750000Y-4000000D03*
G04 #@! TD*
G04 #@! TO.P,slot_r1,1*
G04 #@! TO.N,Net-(C2-Pad2)*
X1750000Y4000000D03*
G04 #@! TD*
D11*
G04 #@! TO.N,/feed_l*
X21000000Y-4000000D03*
X25750000Y-4000000D03*
X30750000Y-4000000D03*
X42000000Y-1760010D03*
X46000000Y-1800000D03*
X50000000Y-1760010D03*
X16500000Y-4000000D03*
X39750000Y-4000000D03*
X35500000Y-4000000D03*
G04 #@! TO.N,Net-(C1-Pad2)*
X7000000Y-4000000D03*
X11000000Y-4000000D03*
G04 #@! TO.N,Net-(C2-Pad2)*
X7000000Y4000000D03*
X11000000Y4000000D03*
G04 #@! TO.N,/feed_r*
X21000000Y4000000D03*
X25750000Y4000000D03*
X30750000Y4000000D03*
X42000000Y1800000D03*
X46000000Y1760010D03*
X50000000Y1760010D03*
X16500000Y4000000D03*
X39800000Y4000000D03*
X35500000Y4000000D03*
G04 #@! TD*
D12*
G04 #@! TO.N,/feed_l*
X21000000Y-4000000D02*
X29000000Y-4000000D01*
X21000000Y-4000000D02*
X16500000Y-4000000D01*
X46039990Y-1760010D02*
X51000000Y-1760010D01*
X41989990Y-1760010D02*
X45960010Y-1760010D01*
X39750000Y-4000000D02*
X41989990Y-1760010D01*
X29000000Y-4000000D02*
X37750000Y-4000000D01*
X33500000Y-4000000D02*
X39750000Y-4000000D01*
G04 #@! TO.N,Net-(C1-Pad2)*
X11000000Y-4000000D02*
X2750000Y-4000000D01*
G04 #@! TO.N,Net-(C2-Pad2)*
X11000000Y4000000D02*
X2750000Y4000000D01*
G04 #@! TO.N,/feed_r*
X21000000Y4000000D02*
X29000000Y4000000D01*
X21000000Y4000000D02*
X16500000Y4000000D01*
X42039990Y1760010D02*
X51000000Y1760010D01*
X39800000Y4000000D02*
X41960010Y1839990D01*
X36250000Y4000000D02*
X39800000Y4000000D01*
X36250000Y4000000D02*
X37800000Y4000000D01*
X29000000Y4000000D02*
X36250000Y4000000D01*
G04 #@! TD*
M02*
