G04 #@! TF.GenerationSoftware,KiCad,Pcbnew,(5.0.2)-1*
G04 #@! TF.CreationDate,2020-08-06T16:14:57-05:00*
G04 #@! TF.ProjectId,xform-plug,78666f72-6d2d-4706-9c75-672e6b696361,rev?*
G04 #@! TF.SameCoordinates,Original*
G04 #@! TF.FileFunction,Copper,L2,Bot*
G04 #@! TF.FilePolarity,Positive*
%FSLAX46Y46*%
G04 Gerber Fmt 4.6, Leading zero omitted, Abs format (unit mm)*
G04 Created by KiCad (PCBNEW (5.0.2)-1) date 8/6/2020 4:14:57 PM*
%MOMM*%
%LPD*%
G01*
G04 APERTURE LIST*
G04 #@! TA.AperFunction,ComponentPad*
%ADD10C,2.600000*%
G04 #@! TD*
G04 #@! TA.AperFunction,ComponentPad*
%ADD11C,2.500000*%
G04 #@! TD*
G04 #@! TA.AperFunction,Conductor*
%ADD12C,0.100000*%
G04 #@! TD*
G04 #@! TA.AperFunction,SMDPad,CuDef*
%ADD13C,0.875000*%
G04 #@! TD*
G04 #@! TA.AperFunction,ViaPad*
%ADD14C,0.800000*%
G04 #@! TD*
G04 #@! TA.AperFunction,Conductor*
%ADD15C,1.500000*%
G04 #@! TD*
G04 #@! TA.AperFunction,Conductor*
%ADD16C,1.650000*%
G04 #@! TD*
G04 #@! TA.AperFunction,Conductor*
%ADD17C,1.800000*%
G04 #@! TD*
G04 #@! TA.AperFunction,Conductor*
%ADD18C,1.900000*%
G04 #@! TD*
G04 #@! TA.AperFunction,Conductor*
%ADD19C,0.600000*%
G04 #@! TD*
G04 #@! TA.AperFunction,Conductor*
%ADD20C,0.254000*%
G04 #@! TD*
G04 APERTURE END LIST*
D10*
G04 #@! TO.P,J1,1*
G04 #@! TO.N,GND*
X20960000Y4990000D03*
X26040000Y4990000D03*
X20960000Y-90000D03*
X26040000Y-90000D03*
D11*
G04 #@! TO.P,J1,2*
G04 #@! TO.N,Net-(J1-Pad2)*
X23500000Y2450000D03*
G04 #@! TD*
D12*
G04 #@! TO.N,Net-(R1-Pad2)*
G04 #@! TO.C,R1*
G36*
X11552691Y423947D02*
X11573926Y420797D01*
X11594750Y415581D01*
X11614962Y408349D01*
X11634368Y399170D01*
X11652781Y388134D01*
X11670024Y375346D01*
X11685930Y360930D01*
X11700346Y345024D01*
X11713134Y327781D01*
X11724170Y309368D01*
X11733349Y289962D01*
X11740581Y269750D01*
X11745797Y248926D01*
X11748947Y227691D01*
X11750000Y206250D01*
X11750000Y-306250D01*
X11748947Y-327691D01*
X11745797Y-348926D01*
X11740581Y-369750D01*
X11733349Y-389962D01*
X11724170Y-409368D01*
X11713134Y-427781D01*
X11700346Y-445024D01*
X11685930Y-460930D01*
X11670024Y-475346D01*
X11652781Y-488134D01*
X11634368Y-499170D01*
X11614962Y-508349D01*
X11594750Y-515581D01*
X11573926Y-520797D01*
X11552691Y-523947D01*
X11531250Y-525000D01*
X11093750Y-525000D01*
X11072309Y-523947D01*
X11051074Y-520797D01*
X11030250Y-515581D01*
X11010038Y-508349D01*
X10990632Y-499170D01*
X10972219Y-488134D01*
X10954976Y-475346D01*
X10939070Y-460930D01*
X10924654Y-445024D01*
X10911866Y-427781D01*
X10900830Y-409368D01*
X10891651Y-389962D01*
X10884419Y-369750D01*
X10879203Y-348926D01*
X10876053Y-327691D01*
X10875000Y-306250D01*
X10875000Y206250D01*
X10876053Y227691D01*
X10879203Y248926D01*
X10884419Y269750D01*
X10891651Y289962D01*
X10900830Y309368D01*
X10911866Y327781D01*
X10924654Y345024D01*
X10939070Y360930D01*
X10954976Y375346D01*
X10972219Y388134D01*
X10990632Y399170D01*
X11010038Y408349D01*
X11030250Y415581D01*
X11051074Y420797D01*
X11072309Y423947D01*
X11093750Y425000D01*
X11531250Y425000D01*
X11552691Y423947D01*
X11552691Y423947D01*
G37*
D13*
G04 #@! TD*
G04 #@! TO.P,R1,2*
G04 #@! TO.N,Net-(R1-Pad2)*
X11312500Y-50000D03*
D12*
G04 #@! TO.N,GND*
G04 #@! TO.C,R1*
G36*
X13127691Y423947D02*
X13148926Y420797D01*
X13169750Y415581D01*
X13189962Y408349D01*
X13209368Y399170D01*
X13227781Y388134D01*
X13245024Y375346D01*
X13260930Y360930D01*
X13275346Y345024D01*
X13288134Y327781D01*
X13299170Y309368D01*
X13308349Y289962D01*
X13315581Y269750D01*
X13320797Y248926D01*
X13323947Y227691D01*
X13325000Y206250D01*
X13325000Y-306250D01*
X13323947Y-327691D01*
X13320797Y-348926D01*
X13315581Y-369750D01*
X13308349Y-389962D01*
X13299170Y-409368D01*
X13288134Y-427781D01*
X13275346Y-445024D01*
X13260930Y-460930D01*
X13245024Y-475346D01*
X13227781Y-488134D01*
X13209368Y-499170D01*
X13189962Y-508349D01*
X13169750Y-515581D01*
X13148926Y-520797D01*
X13127691Y-523947D01*
X13106250Y-525000D01*
X12668750Y-525000D01*
X12647309Y-523947D01*
X12626074Y-520797D01*
X12605250Y-515581D01*
X12585038Y-508349D01*
X12565632Y-499170D01*
X12547219Y-488134D01*
X12529976Y-475346D01*
X12514070Y-460930D01*
X12499654Y-445024D01*
X12486866Y-427781D01*
X12475830Y-409368D01*
X12466651Y-389962D01*
X12459419Y-369750D01*
X12454203Y-348926D01*
X12451053Y-327691D01*
X12450000Y-306250D01*
X12450000Y206250D01*
X12451053Y227691D01*
X12454203Y248926D01*
X12459419Y269750D01*
X12466651Y289962D01*
X12475830Y309368D01*
X12486866Y327781D01*
X12499654Y345024D01*
X12514070Y360930D01*
X12529976Y375346D01*
X12547219Y388134D01*
X12565632Y399170D01*
X12585038Y408349D01*
X12605250Y415581D01*
X12626074Y420797D01*
X12647309Y423947D01*
X12668750Y425000D01*
X13106250Y425000D01*
X13127691Y423947D01*
X13127691Y423947D01*
G37*
D13*
G04 #@! TD*
G04 #@! TO.P,R1,1*
G04 #@! TO.N,GND*
X12887500Y-50000D03*
D14*
G04 #@! TO.N,/slot_l*
X9250000Y2540000D03*
X7250000Y2540000D03*
X5000000Y2540000D03*
X3000000Y2540000D03*
X1000010Y2540000D03*
G04 #@! TO.N,/slot_r*
X3000000Y-2460000D03*
X7250000Y-2460000D03*
X5000000Y-2460000D03*
X1000010Y-2460000D03*
X9250000Y-2460000D03*
G04 #@! TO.N,GND*
X14750000Y2750000D03*
X14750000Y1000000D03*
X14750000Y-750000D03*
X14750000Y-2500000D03*
X14750000Y-4500000D03*
X12500000Y-4500000D03*
X14750000Y4750000D03*
X12500000Y4750000D03*
X17000000Y4750000D03*
X17000000Y-4500000D03*
X23250000Y-3250000D03*
X21750000Y-5000000D03*
X19250000Y-4750000D03*
X10500000Y-4500000D03*
X10500000Y4750000D03*
X14750000Y6750000D03*
X12500000Y6750000D03*
X17000000Y6750000D03*
X10500000Y6750000D03*
X12500000Y-6500000D03*
X14750000Y-6500000D03*
X17000000Y-6500000D03*
X10500000Y-6500000D03*
X18700000Y5700000D03*
X23250000Y-1500000D03*
G04 #@! TO.N,Net-(R1-Pad2)*
X10000000Y0D03*
G04 #@! TD*
D15*
G04 #@! TO.N,/slot_r*
X9250000Y-2460000D02*
X1000010Y-2460000D01*
D16*
X9250000Y-2460000D02*
X1035010Y-2460000D01*
D17*
X9250000Y-2460000D02*
X1110010Y-2460000D01*
D18*
X9250000Y-2460000D02*
X1160010Y-2460000D01*
D15*
G04 #@! TO.N,/slot_l*
X9250000Y2540000D02*
X1000010Y2540000D01*
D16*
X9250000Y2540000D02*
X1035010Y2540000D01*
D18*
X9250000Y2540000D02*
X1400010Y2540000D01*
X1400010Y2540000D02*
X1160010Y2540000D01*
D17*
X1160010Y2540000D02*
X1110010Y2540000D01*
D19*
G04 #@! TO.N,Net-(R1-Pad2)*
X10050000Y-50000D02*
X10000000Y0D01*
X11312500Y-50000D02*
X10050000Y-50000D01*
G04 #@! TD*
D20*
G04 #@! TO.N,GND*
G36*
X29563001Y-7563000D02*
X10127000Y-7563000D01*
X10127000Y-4127000D01*
X11000000Y-4127000D01*
X11048601Y-4117333D01*
X11089803Y-4089803D01*
X11589803Y-3589803D01*
X11617333Y-3548601D01*
X11627000Y-3500000D01*
X11627000Y-1275764D01*
X19806763Y-1275764D01*
X19943703Y-1527942D01*
X20571340Y-1807405D01*
X21258148Y-1825409D01*
X21899565Y-1579212D01*
X21976297Y-1527942D01*
X22113237Y-1275764D01*
X24886763Y-1275764D01*
X25023703Y-1527942D01*
X25651340Y-1807405D01*
X26338148Y-1825409D01*
X26979565Y-1579212D01*
X27056297Y-1527942D01*
X27193237Y-1275764D01*
X26040000Y-122527D01*
X24886763Y-1275764D01*
X22113237Y-1275764D01*
X20960000Y-122527D01*
X19806763Y-1275764D01*
X11627000Y-1275764D01*
X11627000Y-941319D01*
X11781569Y-910573D01*
X11993779Y-768779D01*
X12052434Y-680996D01*
X12088007Y-766876D01*
X12208124Y-886993D01*
X12365065Y-952000D01*
X12757750Y-952000D01*
X12864500Y-845250D01*
X12864500Y-73000D01*
X12910500Y-73000D01*
X12910500Y-845250D01*
X13017250Y-952000D01*
X13409935Y-952000D01*
X13566876Y-886993D01*
X13686993Y-766876D01*
X13752000Y-609936D01*
X13752000Y-388148D01*
X19224591Y-388148D01*
X19470788Y-1029565D01*
X19522058Y-1106297D01*
X19774236Y-1243237D01*
X20927473Y-90000D01*
X20992527Y-90000D01*
X22145764Y-1243237D01*
X22397942Y-1106297D01*
X22677405Y-478660D01*
X22679777Y-388148D01*
X24304591Y-388148D01*
X24550788Y-1029565D01*
X24602058Y-1106297D01*
X24854236Y-1243237D01*
X26007473Y-90000D01*
X26072527Y-90000D01*
X27225764Y-1243237D01*
X27477942Y-1106297D01*
X27757405Y-478660D01*
X27775409Y208148D01*
X27529212Y849565D01*
X27477942Y926297D01*
X27225764Y1063237D01*
X26072527Y-90000D01*
X26007473Y-90000D01*
X24854236Y1063237D01*
X24602058Y926297D01*
X24322595Y298660D01*
X24304591Y-388148D01*
X22679777Y-388148D01*
X22695409Y208148D01*
X22449212Y849565D01*
X22397942Y926297D01*
X22145764Y1063237D01*
X20992527Y-90000D01*
X20927473Y-90000D01*
X19774236Y1063237D01*
X19522058Y926297D01*
X19242595Y298660D01*
X19224591Y-388148D01*
X13752000Y-388148D01*
X13752000Y-179750D01*
X13645250Y-73000D01*
X12910500Y-73000D01*
X12864500Y-73000D01*
X12844500Y-73000D01*
X12844500Y-27000D01*
X12864500Y-27000D01*
X12864500Y745250D01*
X12910500Y745250D01*
X12910500Y-27000D01*
X13645250Y-27000D01*
X13752000Y79750D01*
X13752000Y509936D01*
X13686993Y666876D01*
X13566876Y786993D01*
X13409935Y852000D01*
X13017250Y852000D01*
X12910500Y745250D01*
X12864500Y745250D01*
X12757750Y852000D01*
X12365065Y852000D01*
X12208124Y786993D01*
X12088007Y666876D01*
X12052434Y580996D01*
X11993779Y668779D01*
X11781569Y810573D01*
X11627000Y841319D01*
X11627000Y1095764D01*
X19806763Y1095764D01*
X20960000Y-57473D01*
X22113237Y1095764D01*
X21976297Y1347942D01*
X21348660Y1627405D01*
X20661852Y1645409D01*
X20020435Y1399212D01*
X19943703Y1347942D01*
X19806763Y1095764D01*
X11627000Y1095764D01*
X11627000Y2783576D01*
X21823000Y2783576D01*
X21823000Y2116424D01*
X22078308Y1500056D01*
X22550056Y1028308D01*
X23166424Y773000D01*
X23833576Y773000D01*
X24449944Y1028308D01*
X24517400Y1095764D01*
X24886763Y1095764D01*
X26040000Y-57473D01*
X27193237Y1095764D01*
X27056297Y1347942D01*
X26428660Y1627405D01*
X25741852Y1645409D01*
X25100435Y1399212D01*
X25023703Y1347942D01*
X24886763Y1095764D01*
X24517400Y1095764D01*
X24921692Y1500056D01*
X25177000Y2116424D01*
X25177000Y2783576D01*
X24921692Y3399944D01*
X24517400Y3804236D01*
X24886763Y3804236D01*
X25023703Y3552058D01*
X25651340Y3272595D01*
X26338148Y3254591D01*
X26979565Y3500788D01*
X27056297Y3552058D01*
X27193237Y3804236D01*
X26040000Y4957473D01*
X24886763Y3804236D01*
X24517400Y3804236D01*
X24449944Y3871692D01*
X23833576Y4127000D01*
X23166424Y4127000D01*
X22550056Y3871692D01*
X22078308Y3399944D01*
X21823000Y2783576D01*
X11627000Y2783576D01*
X11627000Y3500000D01*
X11617333Y3548601D01*
X11589803Y3589803D01*
X11375370Y3804236D01*
X19806763Y3804236D01*
X19943703Y3552058D01*
X20571340Y3272595D01*
X21258148Y3254591D01*
X21899565Y3500788D01*
X21976297Y3552058D01*
X22113237Y3804236D01*
X20960000Y4957473D01*
X19806763Y3804236D01*
X11375370Y3804236D01*
X11089803Y4089803D01*
X11048601Y4117333D01*
X11000000Y4127000D01*
X10127000Y4127000D01*
X10127000Y4691852D01*
X19224591Y4691852D01*
X19470788Y4050435D01*
X19522058Y3973703D01*
X19774236Y3836763D01*
X20927473Y4990000D01*
X20992527Y4990000D01*
X22145764Y3836763D01*
X22397942Y3973703D01*
X22677405Y4601340D01*
X22679777Y4691852D01*
X24304591Y4691852D01*
X24550788Y4050435D01*
X24602058Y3973703D01*
X24854236Y3836763D01*
X26007473Y4990000D01*
X26072527Y4990000D01*
X27225764Y3836763D01*
X27477942Y3973703D01*
X27757405Y4601340D01*
X27775409Y5288148D01*
X27529212Y5929565D01*
X27477942Y6006297D01*
X27225764Y6143237D01*
X26072527Y4990000D01*
X26007473Y4990000D01*
X24854236Y6143237D01*
X24602058Y6006297D01*
X24322595Y5378660D01*
X24304591Y4691852D01*
X22679777Y4691852D01*
X22695409Y5288148D01*
X22449212Y5929565D01*
X22397942Y6006297D01*
X22145764Y6143237D01*
X20992527Y4990000D01*
X20927473Y4990000D01*
X19774236Y6143237D01*
X19522058Y6006297D01*
X19242595Y5378660D01*
X19224591Y4691852D01*
X10127000Y4691852D01*
X10127000Y6175764D01*
X19806763Y6175764D01*
X20960000Y5022527D01*
X22113237Y6175764D01*
X24886763Y6175764D01*
X26040000Y5022527D01*
X27193237Y6175764D01*
X27056297Y6427942D01*
X26428660Y6707405D01*
X25741852Y6725409D01*
X25100435Y6479212D01*
X25023703Y6427942D01*
X24886763Y6175764D01*
X22113237Y6175764D01*
X21976297Y6427942D01*
X21348660Y6707405D01*
X20661852Y6725409D01*
X20020435Y6479212D01*
X19943703Y6427942D01*
X19806763Y6175764D01*
X10127000Y6175764D01*
X10127000Y7563000D01*
X29563000Y7563000D01*
X29563001Y-7563000D01*
X29563001Y-7563000D01*
G37*
X29563001Y-7563000D02*
X10127000Y-7563000D01*
X10127000Y-4127000D01*
X11000000Y-4127000D01*
X11048601Y-4117333D01*
X11089803Y-4089803D01*
X11589803Y-3589803D01*
X11617333Y-3548601D01*
X11627000Y-3500000D01*
X11627000Y-1275764D01*
X19806763Y-1275764D01*
X19943703Y-1527942D01*
X20571340Y-1807405D01*
X21258148Y-1825409D01*
X21899565Y-1579212D01*
X21976297Y-1527942D01*
X22113237Y-1275764D01*
X24886763Y-1275764D01*
X25023703Y-1527942D01*
X25651340Y-1807405D01*
X26338148Y-1825409D01*
X26979565Y-1579212D01*
X27056297Y-1527942D01*
X27193237Y-1275764D01*
X26040000Y-122527D01*
X24886763Y-1275764D01*
X22113237Y-1275764D01*
X20960000Y-122527D01*
X19806763Y-1275764D01*
X11627000Y-1275764D01*
X11627000Y-941319D01*
X11781569Y-910573D01*
X11993779Y-768779D01*
X12052434Y-680996D01*
X12088007Y-766876D01*
X12208124Y-886993D01*
X12365065Y-952000D01*
X12757750Y-952000D01*
X12864500Y-845250D01*
X12864500Y-73000D01*
X12910500Y-73000D01*
X12910500Y-845250D01*
X13017250Y-952000D01*
X13409935Y-952000D01*
X13566876Y-886993D01*
X13686993Y-766876D01*
X13752000Y-609936D01*
X13752000Y-388148D01*
X19224591Y-388148D01*
X19470788Y-1029565D01*
X19522058Y-1106297D01*
X19774236Y-1243237D01*
X20927473Y-90000D01*
X20992527Y-90000D01*
X22145764Y-1243237D01*
X22397942Y-1106297D01*
X22677405Y-478660D01*
X22679777Y-388148D01*
X24304591Y-388148D01*
X24550788Y-1029565D01*
X24602058Y-1106297D01*
X24854236Y-1243237D01*
X26007473Y-90000D01*
X26072527Y-90000D01*
X27225764Y-1243237D01*
X27477942Y-1106297D01*
X27757405Y-478660D01*
X27775409Y208148D01*
X27529212Y849565D01*
X27477942Y926297D01*
X27225764Y1063237D01*
X26072527Y-90000D01*
X26007473Y-90000D01*
X24854236Y1063237D01*
X24602058Y926297D01*
X24322595Y298660D01*
X24304591Y-388148D01*
X22679777Y-388148D01*
X22695409Y208148D01*
X22449212Y849565D01*
X22397942Y926297D01*
X22145764Y1063237D01*
X20992527Y-90000D01*
X20927473Y-90000D01*
X19774236Y1063237D01*
X19522058Y926297D01*
X19242595Y298660D01*
X19224591Y-388148D01*
X13752000Y-388148D01*
X13752000Y-179750D01*
X13645250Y-73000D01*
X12910500Y-73000D01*
X12864500Y-73000D01*
X12844500Y-73000D01*
X12844500Y-27000D01*
X12864500Y-27000D01*
X12864500Y745250D01*
X12910500Y745250D01*
X12910500Y-27000D01*
X13645250Y-27000D01*
X13752000Y79750D01*
X13752000Y509936D01*
X13686993Y666876D01*
X13566876Y786993D01*
X13409935Y852000D01*
X13017250Y852000D01*
X12910500Y745250D01*
X12864500Y745250D01*
X12757750Y852000D01*
X12365065Y852000D01*
X12208124Y786993D01*
X12088007Y666876D01*
X12052434Y580996D01*
X11993779Y668779D01*
X11781569Y810573D01*
X11627000Y841319D01*
X11627000Y1095764D01*
X19806763Y1095764D01*
X20960000Y-57473D01*
X22113237Y1095764D01*
X21976297Y1347942D01*
X21348660Y1627405D01*
X20661852Y1645409D01*
X20020435Y1399212D01*
X19943703Y1347942D01*
X19806763Y1095764D01*
X11627000Y1095764D01*
X11627000Y2783576D01*
X21823000Y2783576D01*
X21823000Y2116424D01*
X22078308Y1500056D01*
X22550056Y1028308D01*
X23166424Y773000D01*
X23833576Y773000D01*
X24449944Y1028308D01*
X24517400Y1095764D01*
X24886763Y1095764D01*
X26040000Y-57473D01*
X27193237Y1095764D01*
X27056297Y1347942D01*
X26428660Y1627405D01*
X25741852Y1645409D01*
X25100435Y1399212D01*
X25023703Y1347942D01*
X24886763Y1095764D01*
X24517400Y1095764D01*
X24921692Y1500056D01*
X25177000Y2116424D01*
X25177000Y2783576D01*
X24921692Y3399944D01*
X24517400Y3804236D01*
X24886763Y3804236D01*
X25023703Y3552058D01*
X25651340Y3272595D01*
X26338148Y3254591D01*
X26979565Y3500788D01*
X27056297Y3552058D01*
X27193237Y3804236D01*
X26040000Y4957473D01*
X24886763Y3804236D01*
X24517400Y3804236D01*
X24449944Y3871692D01*
X23833576Y4127000D01*
X23166424Y4127000D01*
X22550056Y3871692D01*
X22078308Y3399944D01*
X21823000Y2783576D01*
X11627000Y2783576D01*
X11627000Y3500000D01*
X11617333Y3548601D01*
X11589803Y3589803D01*
X11375370Y3804236D01*
X19806763Y3804236D01*
X19943703Y3552058D01*
X20571340Y3272595D01*
X21258148Y3254591D01*
X21899565Y3500788D01*
X21976297Y3552058D01*
X22113237Y3804236D01*
X20960000Y4957473D01*
X19806763Y3804236D01*
X11375370Y3804236D01*
X11089803Y4089803D01*
X11048601Y4117333D01*
X11000000Y4127000D01*
X10127000Y4127000D01*
X10127000Y4691852D01*
X19224591Y4691852D01*
X19470788Y4050435D01*
X19522058Y3973703D01*
X19774236Y3836763D01*
X20927473Y4990000D01*
X20992527Y4990000D01*
X22145764Y3836763D01*
X22397942Y3973703D01*
X22677405Y4601340D01*
X22679777Y4691852D01*
X24304591Y4691852D01*
X24550788Y4050435D01*
X24602058Y3973703D01*
X24854236Y3836763D01*
X26007473Y4990000D01*
X26072527Y4990000D01*
X27225764Y3836763D01*
X27477942Y3973703D01*
X27757405Y4601340D01*
X27775409Y5288148D01*
X27529212Y5929565D01*
X27477942Y6006297D01*
X27225764Y6143237D01*
X26072527Y4990000D01*
X26007473Y4990000D01*
X24854236Y6143237D01*
X24602058Y6006297D01*
X24322595Y5378660D01*
X24304591Y4691852D01*
X22679777Y4691852D01*
X22695409Y5288148D01*
X22449212Y5929565D01*
X22397942Y6006297D01*
X22145764Y6143237D01*
X20992527Y4990000D01*
X20927473Y4990000D01*
X19774236Y6143237D01*
X19522058Y6006297D01*
X19242595Y5378660D01*
X19224591Y4691852D01*
X10127000Y4691852D01*
X10127000Y6175764D01*
X19806763Y6175764D01*
X20960000Y5022527D01*
X22113237Y6175764D01*
X24886763Y6175764D01*
X26040000Y5022527D01*
X27193237Y6175764D01*
X27056297Y6427942D01*
X26428660Y6707405D01*
X25741852Y6725409D01*
X25100435Y6479212D01*
X25023703Y6427942D01*
X24886763Y6175764D01*
X22113237Y6175764D01*
X21976297Y6427942D01*
X21348660Y6707405D01*
X20661852Y6725409D01*
X20020435Y6479212D01*
X19943703Y6427942D01*
X19806763Y6175764D01*
X10127000Y6175764D01*
X10127000Y7563000D01*
X29563000Y7563000D01*
X29563001Y-7563000D01*
G04 #@! TO.N,/slot_l*
G36*
X8373000Y1652606D02*
X7697394Y977000D01*
X437000Y977000D01*
X437000Y3223000D01*
X8373000Y3223000D01*
X8373000Y1652606D01*
X8373000Y1652606D01*
G37*
X8373000Y1652606D02*
X7697394Y977000D01*
X437000Y977000D01*
X437000Y3223000D01*
X8373000Y3223000D01*
X8373000Y1652606D01*
G04 #@! TO.N,/slot_r*
G36*
X8320062Y-1652606D02*
X8320062Y-3223000D01*
X437000Y-3223000D01*
X437000Y-977000D01*
X7644456Y-977000D01*
X8320062Y-1652606D01*
X8320062Y-1652606D01*
G37*
X8320062Y-1652606D02*
X8320062Y-3223000D01*
X437000Y-3223000D01*
X437000Y-977000D01*
X7644456Y-977000D01*
X8320062Y-1652606D01*
G04 #@! TD*
M02*
