G04 #@! TF.GenerationSoftware,KiCad,Pcbnew,(5.0.2)-1*
G04 #@! TF.CreationDate,2020-08-06T16:14:57-05:00*
G04 #@! TF.ProjectId,xform-plug,78666f72-6d2d-4706-9c75-672e6b696361,rev?*
G04 #@! TF.SameCoordinates,Original*
G04 #@! TF.FileFunction,Copper,L1,Top*
G04 #@! TF.FilePolarity,Positive*
%FSLAX46Y46*%
G04 Gerber Fmt 4.6, Leading zero omitted, Abs format (unit mm)*
G04 Created by KiCad (PCBNEW (5.0.2)-1) date 8/6/2020 4:14:57 PM*
%MOMM*%
%LPD*%
G01*
G04 APERTURE LIST*
G04 #@! TA.AperFunction,ComponentPad*
%ADD10C,2.600000*%
G04 #@! TD*
G04 #@! TA.AperFunction,ComponentPad*
%ADD11C,2.500000*%
G04 #@! TD*
G04 #@! TA.AperFunction,Conductor*
%ADD12C,0.100000*%
G04 #@! TD*
G04 #@! TA.AperFunction,SMDPad,CuDef*
%ADD13C,0.875000*%
G04 #@! TD*
G04 #@! TA.AperFunction,SMDPad,CuDef*
%ADD14R,2.540000X1.650000*%
G04 #@! TD*
G04 #@! TA.AperFunction,ViaPad*
%ADD15C,0.800000*%
G04 #@! TD*
G04 #@! TA.AperFunction,Conductor*
%ADD16C,1.500000*%
G04 #@! TD*
G04 #@! TA.AperFunction,Conductor*
%ADD17C,1.650000*%
G04 #@! TD*
G04 #@! TA.AperFunction,Conductor*
%ADD18C,1.800000*%
G04 #@! TD*
G04 #@! TA.AperFunction,Conductor*
%ADD19C,1.900000*%
G04 #@! TD*
G04 #@! TA.AperFunction,Conductor*
%ADD20C,0.600000*%
G04 #@! TD*
G04 #@! TA.AperFunction,Conductor*
%ADD21C,0.254000*%
G04 #@! TD*
G04 APERTURE END LIST*
D10*
G04 #@! TO.P,J1,1*
G04 #@! TO.N,GND*
X20960000Y4990000D03*
X26040000Y4990000D03*
X20960000Y-90000D03*
X26040000Y-90000D03*
D11*
G04 #@! TO.P,J1,2*
G04 #@! TO.N,Net-(J1-Pad2)*
X23500000Y2450000D03*
G04 #@! TD*
D12*
G04 #@! TO.N,Net-(R2-Pad1)*
G04 #@! TO.C,R2*
G36*
X20352691Y-2826053D02*
X20373926Y-2829203D01*
X20394750Y-2834419D01*
X20414962Y-2841651D01*
X20434368Y-2850830D01*
X20452781Y-2861866D01*
X20470024Y-2874654D01*
X20485930Y-2889070D01*
X20500346Y-2904976D01*
X20513134Y-2922219D01*
X20524170Y-2940632D01*
X20533349Y-2960038D01*
X20540581Y-2980250D01*
X20545797Y-3001074D01*
X20548947Y-3022309D01*
X20550000Y-3043750D01*
X20550000Y-3556250D01*
X20548947Y-3577691D01*
X20545797Y-3598926D01*
X20540581Y-3619750D01*
X20533349Y-3639962D01*
X20524170Y-3659368D01*
X20513134Y-3677781D01*
X20500346Y-3695024D01*
X20485930Y-3710930D01*
X20470024Y-3725346D01*
X20452781Y-3738134D01*
X20434368Y-3749170D01*
X20414962Y-3758349D01*
X20394750Y-3765581D01*
X20373926Y-3770797D01*
X20352691Y-3773947D01*
X20331250Y-3775000D01*
X19893750Y-3775000D01*
X19872309Y-3773947D01*
X19851074Y-3770797D01*
X19830250Y-3765581D01*
X19810038Y-3758349D01*
X19790632Y-3749170D01*
X19772219Y-3738134D01*
X19754976Y-3725346D01*
X19739070Y-3710930D01*
X19724654Y-3695024D01*
X19711866Y-3677781D01*
X19700830Y-3659368D01*
X19691651Y-3639962D01*
X19684419Y-3619750D01*
X19679203Y-3598926D01*
X19676053Y-3577691D01*
X19675000Y-3556250D01*
X19675000Y-3043750D01*
X19676053Y-3022309D01*
X19679203Y-3001074D01*
X19684419Y-2980250D01*
X19691651Y-2960038D01*
X19700830Y-2940632D01*
X19711866Y-2922219D01*
X19724654Y-2904976D01*
X19739070Y-2889070D01*
X19754976Y-2874654D01*
X19772219Y-2861866D01*
X19790632Y-2850830D01*
X19810038Y-2841651D01*
X19830250Y-2834419D01*
X19851074Y-2829203D01*
X19872309Y-2826053D01*
X19893750Y-2825000D01*
X20331250Y-2825000D01*
X20352691Y-2826053D01*
X20352691Y-2826053D01*
G37*
D13*
G04 #@! TD*
G04 #@! TO.P,R2,1*
G04 #@! TO.N,Net-(R2-Pad1)*
X20112500Y-3300000D03*
D12*
G04 #@! TO.N,GND*
G04 #@! TO.C,R2*
G36*
X21927691Y-2826053D02*
X21948926Y-2829203D01*
X21969750Y-2834419D01*
X21989962Y-2841651D01*
X22009368Y-2850830D01*
X22027781Y-2861866D01*
X22045024Y-2874654D01*
X22060930Y-2889070D01*
X22075346Y-2904976D01*
X22088134Y-2922219D01*
X22099170Y-2940632D01*
X22108349Y-2960038D01*
X22115581Y-2980250D01*
X22120797Y-3001074D01*
X22123947Y-3022309D01*
X22125000Y-3043750D01*
X22125000Y-3556250D01*
X22123947Y-3577691D01*
X22120797Y-3598926D01*
X22115581Y-3619750D01*
X22108349Y-3639962D01*
X22099170Y-3659368D01*
X22088134Y-3677781D01*
X22075346Y-3695024D01*
X22060930Y-3710930D01*
X22045024Y-3725346D01*
X22027781Y-3738134D01*
X22009368Y-3749170D01*
X21989962Y-3758349D01*
X21969750Y-3765581D01*
X21948926Y-3770797D01*
X21927691Y-3773947D01*
X21906250Y-3775000D01*
X21468750Y-3775000D01*
X21447309Y-3773947D01*
X21426074Y-3770797D01*
X21405250Y-3765581D01*
X21385038Y-3758349D01*
X21365632Y-3749170D01*
X21347219Y-3738134D01*
X21329976Y-3725346D01*
X21314070Y-3710930D01*
X21299654Y-3695024D01*
X21286866Y-3677781D01*
X21275830Y-3659368D01*
X21266651Y-3639962D01*
X21259419Y-3619750D01*
X21254203Y-3598926D01*
X21251053Y-3577691D01*
X21250000Y-3556250D01*
X21250000Y-3043750D01*
X21251053Y-3022309D01*
X21254203Y-3001074D01*
X21259419Y-2980250D01*
X21266651Y-2960038D01*
X21275830Y-2940632D01*
X21286866Y-2922219D01*
X21299654Y-2904976D01*
X21314070Y-2889070D01*
X21329976Y-2874654D01*
X21347219Y-2861866D01*
X21365632Y-2850830D01*
X21385038Y-2841651D01*
X21405250Y-2834419D01*
X21426074Y-2829203D01*
X21447309Y-2826053D01*
X21468750Y-2825000D01*
X21906250Y-2825000D01*
X21927691Y-2826053D01*
X21927691Y-2826053D01*
G37*
D13*
G04 #@! TD*
G04 #@! TO.P,R2,2*
G04 #@! TO.N,GND*
X21687500Y-3300000D03*
D14*
G04 #@! TO.P,TR1,1*
G04 #@! TO.N,Net-(R2-Pad1)*
X17240000Y-2540000D03*
G04 #@! TO.P,TR1,2*
G04 #@! TO.N,N/C*
X17240000Y0D03*
G04 #@! TO.P,TR1,3*
G04 #@! TO.N,Net-(J1-Pad2)*
X17240000Y2540000D03*
G04 #@! TO.P,TR1,4*
G04 #@! TO.N,/slot_l*
X12160000Y2540000D03*
G04 #@! TO.P,TR1,5*
G04 #@! TO.N,Net-(R1-Pad2)*
X12160000Y0D03*
G04 #@! TO.P,TR1,6*
G04 #@! TO.N,/slot_r*
X12160000Y-2540000D03*
G04 #@! TD*
D15*
G04 #@! TO.N,/slot_l*
X9250000Y2540000D03*
X7250000Y2540000D03*
X5000000Y2540000D03*
X3000000Y2540000D03*
X1000010Y2540000D03*
G04 #@! TO.N,/slot_r*
X3000000Y-2460000D03*
X7250000Y-2460000D03*
X5000000Y-2460000D03*
X1000010Y-2460000D03*
X9250000Y-2460000D03*
G04 #@! TO.N,GND*
X14750000Y2750000D03*
X14750000Y1000000D03*
X14750000Y-750000D03*
X14750000Y-2500000D03*
X14750000Y-4500000D03*
X12500000Y-4500000D03*
X14750000Y4750000D03*
X12500000Y4750000D03*
X17000000Y4750000D03*
X17000000Y-4500000D03*
X23250000Y-3250000D03*
X21750000Y-5000000D03*
X19250000Y-4750000D03*
X10500000Y-4500000D03*
X10500000Y4750000D03*
X14750000Y6750000D03*
X12500000Y6750000D03*
X17000000Y6750000D03*
X10500000Y6750000D03*
X12500000Y-6500000D03*
X14750000Y-6500000D03*
X17000000Y-6500000D03*
X10500000Y-6500000D03*
X18700000Y5700000D03*
X23250000Y-1500000D03*
G04 #@! TO.N,Net-(R1-Pad2)*
X10000000Y0D03*
G04 #@! TD*
D16*
G04 #@! TO.N,/slot_l*
X12160000Y2540000D02*
X9250000Y2540000D01*
X9250000Y2540000D02*
X7250000Y2540000D01*
X7250000Y2540000D02*
X5000000Y2540000D01*
X5000000Y2540000D02*
X3000000Y2540000D01*
X3000000Y2540000D02*
X1000010Y2540000D01*
X1000010Y2540000D02*
X1000010Y2540000D01*
D17*
G04 #@! TO.N,/slot_r*
X12160000Y-2540000D02*
X1035010Y-2540000D01*
D16*
X1035010Y-2540000D02*
X1000010Y-2540000D01*
D18*
X9250000Y-2460000D02*
X1110010Y-2460000D01*
D19*
X9250000Y-2460000D02*
X1160010Y-2460000D01*
D17*
G04 #@! TO.N,/slot_l*
X12160000Y2540000D02*
X1035010Y2540000D01*
D18*
X9250000Y2540000D02*
X1110010Y2540000D01*
D19*
X9250000Y2540000D02*
X1160010Y2540000D01*
D20*
G04 #@! TO.N,Net-(J1-Pad2)*
X17240000Y2540000D02*
X23460000Y2540000D01*
X23460000Y2540000D02*
X23500000Y2500000D01*
G04 #@! TO.N,Net-(R1-Pad2)*
X12160000Y0D02*
X10000000Y0D01*
G04 #@! TO.N,Net-(R2-Pad1)*
X19110000Y-2540000D02*
X19820000Y-3250000D01*
X17240000Y-2540000D02*
X19110000Y-2540000D01*
X19820000Y-3250000D02*
X20100000Y-3250000D01*
G04 #@! TD*
D21*
G04 #@! TO.N,GND*
G36*
X29563001Y-7563000D02*
X10127000Y-7563000D01*
X10127000Y-4127000D01*
X11000000Y-4127000D01*
X11048601Y-4117333D01*
X11089803Y-4089803D01*
X11379241Y-3800365D01*
X13430000Y-3800365D01*
X13596607Y-3767225D01*
X13737850Y-3672850D01*
X13832225Y-3531607D01*
X13865365Y-3365000D01*
X13865365Y-1715000D01*
X15534635Y-1715000D01*
X15534635Y-3365000D01*
X15567775Y-3531607D01*
X15662150Y-3672850D01*
X15803393Y-3767225D01*
X15970000Y-3800365D01*
X18510000Y-3800365D01*
X18676607Y-3767225D01*
X18817850Y-3672850D01*
X18912225Y-3531607D01*
X18938978Y-3397111D01*
X19255307Y-3713441D01*
X19277513Y-3746674D01*
X19289427Y-3806569D01*
X19431221Y-4018779D01*
X19643431Y-4160573D01*
X19893750Y-4210365D01*
X20331250Y-4210365D01*
X20581569Y-4160573D01*
X20793779Y-4018779D01*
X20852434Y-3930996D01*
X20888007Y-4016876D01*
X21008124Y-4136993D01*
X21165065Y-4202000D01*
X21557750Y-4202000D01*
X21664500Y-4095250D01*
X21664500Y-3323000D01*
X21710500Y-3323000D01*
X21710500Y-4095250D01*
X21817250Y-4202000D01*
X22209935Y-4202000D01*
X22366876Y-4136993D01*
X22486993Y-4016876D01*
X22552000Y-3859936D01*
X22552000Y-3429750D01*
X22445250Y-3323000D01*
X21710500Y-3323000D01*
X21664500Y-3323000D01*
X21644500Y-3323000D01*
X21644500Y-3277000D01*
X21664500Y-3277000D01*
X21664500Y-2504750D01*
X21710500Y-2504750D01*
X21710500Y-3277000D01*
X22445250Y-3277000D01*
X22552000Y-3170250D01*
X22552000Y-2740064D01*
X22486993Y-2583124D01*
X22366876Y-2463007D01*
X22209935Y-2398000D01*
X21817250Y-2398000D01*
X21710500Y-2504750D01*
X21664500Y-2504750D01*
X21557750Y-2398000D01*
X21165065Y-2398000D01*
X21008124Y-2463007D01*
X20888007Y-2583124D01*
X20852434Y-2669004D01*
X20793779Y-2581221D01*
X20581569Y-2439427D01*
X20331250Y-2389635D01*
X19987768Y-2389635D01*
X19674696Y-2076564D01*
X19634137Y-2015863D01*
X19393661Y-1855182D01*
X19181599Y-1813000D01*
X19181595Y-1813000D01*
X19110000Y-1798759D01*
X19038405Y-1813000D01*
X18945365Y-1813000D01*
X18945365Y-1715000D01*
X18912225Y-1548393D01*
X18817850Y-1407150D01*
X18676607Y-1312775D01*
X18510000Y-1279635D01*
X15970000Y-1279635D01*
X15803393Y-1312775D01*
X15662150Y-1407150D01*
X15567775Y-1548393D01*
X15534635Y-1715000D01*
X13865365Y-1715000D01*
X13832225Y-1548393D01*
X13737850Y-1407150D01*
X13596607Y-1312775D01*
X13430000Y-1279635D01*
X11627000Y-1279635D01*
X11627000Y-1275764D01*
X19806763Y-1275764D01*
X19943703Y-1527942D01*
X20571340Y-1807405D01*
X21258148Y-1825409D01*
X21899565Y-1579212D01*
X21976297Y-1527942D01*
X22113237Y-1275764D01*
X24886763Y-1275764D01*
X25023703Y-1527942D01*
X25651340Y-1807405D01*
X26338148Y-1825409D01*
X26979565Y-1579212D01*
X27056297Y-1527942D01*
X27193237Y-1275764D01*
X26040000Y-122527D01*
X24886763Y-1275764D01*
X22113237Y-1275764D01*
X20960000Y-122527D01*
X19806763Y-1275764D01*
X11627000Y-1275764D01*
X11627000Y-1260365D01*
X13430000Y-1260365D01*
X13596607Y-1227225D01*
X13737850Y-1132850D01*
X13832225Y-991607D01*
X13865365Y-825000D01*
X13865365Y825000D01*
X15534635Y825000D01*
X15534635Y-825000D01*
X15567775Y-991607D01*
X15662150Y-1132850D01*
X15803393Y-1227225D01*
X15970000Y-1260365D01*
X18510000Y-1260365D01*
X18676607Y-1227225D01*
X18817850Y-1132850D01*
X18912225Y-991607D01*
X18945365Y-825000D01*
X18945365Y-388148D01*
X19224591Y-388148D01*
X19470788Y-1029565D01*
X19522058Y-1106297D01*
X19774236Y-1243237D01*
X20927473Y-90000D01*
X20992527Y-90000D01*
X22145764Y-1243237D01*
X22397942Y-1106297D01*
X22677405Y-478660D01*
X22679777Y-388148D01*
X24304591Y-388148D01*
X24550788Y-1029565D01*
X24602058Y-1106297D01*
X24854236Y-1243237D01*
X26007473Y-90000D01*
X26072527Y-90000D01*
X27225764Y-1243237D01*
X27477942Y-1106297D01*
X27757405Y-478660D01*
X27775409Y208148D01*
X27529212Y849565D01*
X27477942Y926297D01*
X27225764Y1063237D01*
X26072527Y-90000D01*
X26007473Y-90000D01*
X24854236Y1063237D01*
X24602058Y926297D01*
X24322595Y298660D01*
X24304591Y-388148D01*
X22679777Y-388148D01*
X22695409Y208148D01*
X22449212Y849565D01*
X22397942Y926297D01*
X22145764Y1063237D01*
X20992527Y-90000D01*
X20927473Y-90000D01*
X19774236Y1063237D01*
X19522058Y926297D01*
X19242595Y298660D01*
X19224591Y-388148D01*
X18945365Y-388148D01*
X18945365Y825000D01*
X18912225Y991607D01*
X18817850Y1132850D01*
X18676607Y1227225D01*
X18510000Y1260365D01*
X15970000Y1260365D01*
X15803393Y1227225D01*
X15662150Y1132850D01*
X15567775Y991607D01*
X15534635Y825000D01*
X13865365Y825000D01*
X13832225Y991607D01*
X13737850Y1132850D01*
X13596607Y1227225D01*
X13430000Y1260365D01*
X11627000Y1260365D01*
X11627000Y1279635D01*
X13430000Y1279635D01*
X13596607Y1312775D01*
X13737850Y1407150D01*
X13832225Y1548393D01*
X13865365Y1715000D01*
X13865365Y3365000D01*
X15534635Y3365000D01*
X15534635Y1715000D01*
X15567775Y1548393D01*
X15662150Y1407150D01*
X15803393Y1312775D01*
X15970000Y1279635D01*
X18510000Y1279635D01*
X18676607Y1312775D01*
X18766741Y1373000D01*
X19981205Y1373000D01*
X19943703Y1347942D01*
X19806763Y1095764D01*
X20960000Y-57473D01*
X22113237Y1095764D01*
X21976297Y1347942D01*
X21920020Y1373000D01*
X22205364Y1373000D01*
X22550056Y1028308D01*
X23166424Y773000D01*
X23833576Y773000D01*
X24449944Y1028308D01*
X24517400Y1095764D01*
X24886763Y1095764D01*
X26040000Y-57473D01*
X27193237Y1095764D01*
X27056297Y1347942D01*
X26428660Y1627405D01*
X25741852Y1645409D01*
X25100435Y1399212D01*
X25023703Y1347942D01*
X24886763Y1095764D01*
X24517400Y1095764D01*
X24921692Y1500056D01*
X25177000Y2116424D01*
X25177000Y2783576D01*
X24921692Y3399944D01*
X24517400Y3804236D01*
X24886763Y3804236D01*
X25023703Y3552058D01*
X25651340Y3272595D01*
X26338148Y3254591D01*
X26979565Y3500788D01*
X27056297Y3552058D01*
X27193237Y3804236D01*
X26040000Y4957473D01*
X24886763Y3804236D01*
X24517400Y3804236D01*
X24449944Y3871692D01*
X23833576Y4127000D01*
X23166424Y4127000D01*
X22550056Y3871692D01*
X22305364Y3627000D01*
X22016993Y3627000D01*
X22113237Y3804236D01*
X20960000Y4957473D01*
X19806763Y3804236D01*
X19903007Y3627000D01*
X18848486Y3627000D01*
X18817850Y3672850D01*
X18676607Y3767225D01*
X18510000Y3800365D01*
X15970000Y3800365D01*
X15803393Y3767225D01*
X15662150Y3672850D01*
X15567775Y3531607D01*
X15534635Y3365000D01*
X13865365Y3365000D01*
X13832225Y3531607D01*
X13737850Y3672850D01*
X13596607Y3767225D01*
X13430000Y3800365D01*
X11379241Y3800365D01*
X11089803Y4089803D01*
X11048601Y4117333D01*
X11000000Y4127000D01*
X10127000Y4127000D01*
X10127000Y4691852D01*
X19224591Y4691852D01*
X19470788Y4050435D01*
X19522058Y3973703D01*
X19774236Y3836763D01*
X20927473Y4990000D01*
X20992527Y4990000D01*
X22145764Y3836763D01*
X22397942Y3973703D01*
X22677405Y4601340D01*
X22679777Y4691852D01*
X24304591Y4691852D01*
X24550788Y4050435D01*
X24602058Y3973703D01*
X24854236Y3836763D01*
X26007473Y4990000D01*
X26072527Y4990000D01*
X27225764Y3836763D01*
X27477942Y3973703D01*
X27757405Y4601340D01*
X27775409Y5288148D01*
X27529212Y5929565D01*
X27477942Y6006297D01*
X27225764Y6143237D01*
X26072527Y4990000D01*
X26007473Y4990000D01*
X24854236Y6143237D01*
X24602058Y6006297D01*
X24322595Y5378660D01*
X24304591Y4691852D01*
X22679777Y4691852D01*
X22695409Y5288148D01*
X22449212Y5929565D01*
X22397942Y6006297D01*
X22145764Y6143237D01*
X20992527Y4990000D01*
X20927473Y4990000D01*
X19774236Y6143237D01*
X19522058Y6006297D01*
X19242595Y5378660D01*
X19224591Y4691852D01*
X10127000Y4691852D01*
X10127000Y6175764D01*
X19806763Y6175764D01*
X20960000Y5022527D01*
X22113237Y6175764D01*
X24886763Y6175764D01*
X26040000Y5022527D01*
X27193237Y6175764D01*
X27056297Y6427942D01*
X26428660Y6707405D01*
X25741852Y6725409D01*
X25100435Y6479212D01*
X25023703Y6427942D01*
X24886763Y6175764D01*
X22113237Y6175764D01*
X21976297Y6427942D01*
X21348660Y6707405D01*
X20661852Y6725409D01*
X20020435Y6479212D01*
X19943703Y6427942D01*
X19806763Y6175764D01*
X10127000Y6175764D01*
X10127000Y7563000D01*
X29563000Y7563000D01*
X29563001Y-7563000D01*
X29563001Y-7563000D01*
G37*
X29563001Y-7563000D02*
X10127000Y-7563000D01*
X10127000Y-4127000D01*
X11000000Y-4127000D01*
X11048601Y-4117333D01*
X11089803Y-4089803D01*
X11379241Y-3800365D01*
X13430000Y-3800365D01*
X13596607Y-3767225D01*
X13737850Y-3672850D01*
X13832225Y-3531607D01*
X13865365Y-3365000D01*
X13865365Y-1715000D01*
X15534635Y-1715000D01*
X15534635Y-3365000D01*
X15567775Y-3531607D01*
X15662150Y-3672850D01*
X15803393Y-3767225D01*
X15970000Y-3800365D01*
X18510000Y-3800365D01*
X18676607Y-3767225D01*
X18817850Y-3672850D01*
X18912225Y-3531607D01*
X18938978Y-3397111D01*
X19255307Y-3713441D01*
X19277513Y-3746674D01*
X19289427Y-3806569D01*
X19431221Y-4018779D01*
X19643431Y-4160573D01*
X19893750Y-4210365D01*
X20331250Y-4210365D01*
X20581569Y-4160573D01*
X20793779Y-4018779D01*
X20852434Y-3930996D01*
X20888007Y-4016876D01*
X21008124Y-4136993D01*
X21165065Y-4202000D01*
X21557750Y-4202000D01*
X21664500Y-4095250D01*
X21664500Y-3323000D01*
X21710500Y-3323000D01*
X21710500Y-4095250D01*
X21817250Y-4202000D01*
X22209935Y-4202000D01*
X22366876Y-4136993D01*
X22486993Y-4016876D01*
X22552000Y-3859936D01*
X22552000Y-3429750D01*
X22445250Y-3323000D01*
X21710500Y-3323000D01*
X21664500Y-3323000D01*
X21644500Y-3323000D01*
X21644500Y-3277000D01*
X21664500Y-3277000D01*
X21664500Y-2504750D01*
X21710500Y-2504750D01*
X21710500Y-3277000D01*
X22445250Y-3277000D01*
X22552000Y-3170250D01*
X22552000Y-2740064D01*
X22486993Y-2583124D01*
X22366876Y-2463007D01*
X22209935Y-2398000D01*
X21817250Y-2398000D01*
X21710500Y-2504750D01*
X21664500Y-2504750D01*
X21557750Y-2398000D01*
X21165065Y-2398000D01*
X21008124Y-2463007D01*
X20888007Y-2583124D01*
X20852434Y-2669004D01*
X20793779Y-2581221D01*
X20581569Y-2439427D01*
X20331250Y-2389635D01*
X19987768Y-2389635D01*
X19674696Y-2076564D01*
X19634137Y-2015863D01*
X19393661Y-1855182D01*
X19181599Y-1813000D01*
X19181595Y-1813000D01*
X19110000Y-1798759D01*
X19038405Y-1813000D01*
X18945365Y-1813000D01*
X18945365Y-1715000D01*
X18912225Y-1548393D01*
X18817850Y-1407150D01*
X18676607Y-1312775D01*
X18510000Y-1279635D01*
X15970000Y-1279635D01*
X15803393Y-1312775D01*
X15662150Y-1407150D01*
X15567775Y-1548393D01*
X15534635Y-1715000D01*
X13865365Y-1715000D01*
X13832225Y-1548393D01*
X13737850Y-1407150D01*
X13596607Y-1312775D01*
X13430000Y-1279635D01*
X11627000Y-1279635D01*
X11627000Y-1275764D01*
X19806763Y-1275764D01*
X19943703Y-1527942D01*
X20571340Y-1807405D01*
X21258148Y-1825409D01*
X21899565Y-1579212D01*
X21976297Y-1527942D01*
X22113237Y-1275764D01*
X24886763Y-1275764D01*
X25023703Y-1527942D01*
X25651340Y-1807405D01*
X26338148Y-1825409D01*
X26979565Y-1579212D01*
X27056297Y-1527942D01*
X27193237Y-1275764D01*
X26040000Y-122527D01*
X24886763Y-1275764D01*
X22113237Y-1275764D01*
X20960000Y-122527D01*
X19806763Y-1275764D01*
X11627000Y-1275764D01*
X11627000Y-1260365D01*
X13430000Y-1260365D01*
X13596607Y-1227225D01*
X13737850Y-1132850D01*
X13832225Y-991607D01*
X13865365Y-825000D01*
X13865365Y825000D01*
X15534635Y825000D01*
X15534635Y-825000D01*
X15567775Y-991607D01*
X15662150Y-1132850D01*
X15803393Y-1227225D01*
X15970000Y-1260365D01*
X18510000Y-1260365D01*
X18676607Y-1227225D01*
X18817850Y-1132850D01*
X18912225Y-991607D01*
X18945365Y-825000D01*
X18945365Y-388148D01*
X19224591Y-388148D01*
X19470788Y-1029565D01*
X19522058Y-1106297D01*
X19774236Y-1243237D01*
X20927473Y-90000D01*
X20992527Y-90000D01*
X22145764Y-1243237D01*
X22397942Y-1106297D01*
X22677405Y-478660D01*
X22679777Y-388148D01*
X24304591Y-388148D01*
X24550788Y-1029565D01*
X24602058Y-1106297D01*
X24854236Y-1243237D01*
X26007473Y-90000D01*
X26072527Y-90000D01*
X27225764Y-1243237D01*
X27477942Y-1106297D01*
X27757405Y-478660D01*
X27775409Y208148D01*
X27529212Y849565D01*
X27477942Y926297D01*
X27225764Y1063237D01*
X26072527Y-90000D01*
X26007473Y-90000D01*
X24854236Y1063237D01*
X24602058Y926297D01*
X24322595Y298660D01*
X24304591Y-388148D01*
X22679777Y-388148D01*
X22695409Y208148D01*
X22449212Y849565D01*
X22397942Y926297D01*
X22145764Y1063237D01*
X20992527Y-90000D01*
X20927473Y-90000D01*
X19774236Y1063237D01*
X19522058Y926297D01*
X19242595Y298660D01*
X19224591Y-388148D01*
X18945365Y-388148D01*
X18945365Y825000D01*
X18912225Y991607D01*
X18817850Y1132850D01*
X18676607Y1227225D01*
X18510000Y1260365D01*
X15970000Y1260365D01*
X15803393Y1227225D01*
X15662150Y1132850D01*
X15567775Y991607D01*
X15534635Y825000D01*
X13865365Y825000D01*
X13832225Y991607D01*
X13737850Y1132850D01*
X13596607Y1227225D01*
X13430000Y1260365D01*
X11627000Y1260365D01*
X11627000Y1279635D01*
X13430000Y1279635D01*
X13596607Y1312775D01*
X13737850Y1407150D01*
X13832225Y1548393D01*
X13865365Y1715000D01*
X13865365Y3365000D01*
X15534635Y3365000D01*
X15534635Y1715000D01*
X15567775Y1548393D01*
X15662150Y1407150D01*
X15803393Y1312775D01*
X15970000Y1279635D01*
X18510000Y1279635D01*
X18676607Y1312775D01*
X18766741Y1373000D01*
X19981205Y1373000D01*
X19943703Y1347942D01*
X19806763Y1095764D01*
X20960000Y-57473D01*
X22113237Y1095764D01*
X21976297Y1347942D01*
X21920020Y1373000D01*
X22205364Y1373000D01*
X22550056Y1028308D01*
X23166424Y773000D01*
X23833576Y773000D01*
X24449944Y1028308D01*
X24517400Y1095764D01*
X24886763Y1095764D01*
X26040000Y-57473D01*
X27193237Y1095764D01*
X27056297Y1347942D01*
X26428660Y1627405D01*
X25741852Y1645409D01*
X25100435Y1399212D01*
X25023703Y1347942D01*
X24886763Y1095764D01*
X24517400Y1095764D01*
X24921692Y1500056D01*
X25177000Y2116424D01*
X25177000Y2783576D01*
X24921692Y3399944D01*
X24517400Y3804236D01*
X24886763Y3804236D01*
X25023703Y3552058D01*
X25651340Y3272595D01*
X26338148Y3254591D01*
X26979565Y3500788D01*
X27056297Y3552058D01*
X27193237Y3804236D01*
X26040000Y4957473D01*
X24886763Y3804236D01*
X24517400Y3804236D01*
X24449944Y3871692D01*
X23833576Y4127000D01*
X23166424Y4127000D01*
X22550056Y3871692D01*
X22305364Y3627000D01*
X22016993Y3627000D01*
X22113237Y3804236D01*
X20960000Y4957473D01*
X19806763Y3804236D01*
X19903007Y3627000D01*
X18848486Y3627000D01*
X18817850Y3672850D01*
X18676607Y3767225D01*
X18510000Y3800365D01*
X15970000Y3800365D01*
X15803393Y3767225D01*
X15662150Y3672850D01*
X15567775Y3531607D01*
X15534635Y3365000D01*
X13865365Y3365000D01*
X13832225Y3531607D01*
X13737850Y3672850D01*
X13596607Y3767225D01*
X13430000Y3800365D01*
X11379241Y3800365D01*
X11089803Y4089803D01*
X11048601Y4117333D01*
X11000000Y4127000D01*
X10127000Y4127000D01*
X10127000Y4691852D01*
X19224591Y4691852D01*
X19470788Y4050435D01*
X19522058Y3973703D01*
X19774236Y3836763D01*
X20927473Y4990000D01*
X20992527Y4990000D01*
X22145764Y3836763D01*
X22397942Y3973703D01*
X22677405Y4601340D01*
X22679777Y4691852D01*
X24304591Y4691852D01*
X24550788Y4050435D01*
X24602058Y3973703D01*
X24854236Y3836763D01*
X26007473Y4990000D01*
X26072527Y4990000D01*
X27225764Y3836763D01*
X27477942Y3973703D01*
X27757405Y4601340D01*
X27775409Y5288148D01*
X27529212Y5929565D01*
X27477942Y6006297D01*
X27225764Y6143237D01*
X26072527Y4990000D01*
X26007473Y4990000D01*
X24854236Y6143237D01*
X24602058Y6006297D01*
X24322595Y5378660D01*
X24304591Y4691852D01*
X22679777Y4691852D01*
X22695409Y5288148D01*
X22449212Y5929565D01*
X22397942Y6006297D01*
X22145764Y6143237D01*
X20992527Y4990000D01*
X20927473Y4990000D01*
X19774236Y6143237D01*
X19522058Y6006297D01*
X19242595Y5378660D01*
X19224591Y4691852D01*
X10127000Y4691852D01*
X10127000Y6175764D01*
X19806763Y6175764D01*
X20960000Y5022527D01*
X22113237Y6175764D01*
X24886763Y6175764D01*
X26040000Y5022527D01*
X27193237Y6175764D01*
X27056297Y6427942D01*
X26428660Y6707405D01*
X25741852Y6725409D01*
X25100435Y6479212D01*
X25023703Y6427942D01*
X24886763Y6175764D01*
X22113237Y6175764D01*
X21976297Y6427942D01*
X21348660Y6707405D01*
X20661852Y6725409D01*
X20020435Y6479212D01*
X19943703Y6427942D01*
X19806763Y6175764D01*
X10127000Y6175764D01*
X10127000Y7563000D01*
X29563000Y7563000D01*
X29563001Y-7563000D01*
G04 #@! TO.N,/slot_l*
G36*
X8370023Y1652606D02*
X7694417Y977000D01*
X437000Y977000D01*
X437000Y3223000D01*
X8370023Y3223000D01*
X8370023Y1652606D01*
X8370023Y1652606D01*
G37*
X8370023Y1652606D02*
X7694417Y977000D01*
X437000Y977000D01*
X437000Y3223000D01*
X8370023Y3223000D01*
X8370023Y1652606D01*
G04 #@! TO.N,/slot_r*
G36*
X8320062Y-1652606D02*
X8320062Y-3223000D01*
X437000Y-3223000D01*
X437000Y-977000D01*
X7644456Y-977000D01*
X8320062Y-1652606D01*
X8320062Y-1652606D01*
G37*
X8320062Y-1652606D02*
X8320062Y-3223000D01*
X437000Y-3223000D01*
X437000Y-977000D01*
X7644456Y-977000D01*
X8320062Y-1652606D01*
G04 #@! TD*
M02*
