G04 #@! TF.GenerationSoftware,KiCad,Pcbnew,(5.0.2)-1*
G04 #@! TF.CreationDate,2020-08-06T16:14:57-05:00*
G04 #@! TF.ProjectId,xform-plug,78666f72-6d2d-4706-9c75-672e6b696361,rev?*
G04 #@! TF.SameCoordinates,Original*
G04 #@! TF.FileFunction,Soldermask,Top*
G04 #@! TF.FilePolarity,Negative*
%FSLAX46Y46*%
G04 Gerber Fmt 4.6, Leading zero omitted, Abs format (unit mm)*
G04 Created by KiCad (PCBNEW (5.0.2)-1) date 8/6/2020 4:14:57 PM*
%MOMM*%
%LPD*%
G01*
G04 APERTURE LIST*
%ADD10C,0.150000*%
%ADD11C,0.100000*%
G04 APERTURE END LIST*
D10*
G36*
X0Y5000000D02*
X9500000Y5000000D01*
X9500000Y-5500000D01*
X0Y-5500000D01*
X0Y5000000D01*
G37*
X0Y5000000D02*
X9500000Y5000000D01*
X9500000Y-5500000D01*
X0Y-5500000D01*
X0Y5000000D01*
D11*
G36*
X20454591Y-2778085D02*
X20488569Y-2788393D01*
X20519887Y-2805133D01*
X20547339Y-2827661D01*
X20569867Y-2855113D01*
X20586607Y-2886431D01*
X20596915Y-2920409D01*
X20601000Y-2961890D01*
X20601000Y-3638110D01*
X20596915Y-3679591D01*
X20586607Y-3713569D01*
X20569867Y-3744887D01*
X20547339Y-3772339D01*
X20519887Y-3794867D01*
X20488569Y-3811607D01*
X20454591Y-3821915D01*
X20413110Y-3826000D01*
X19811890Y-3826000D01*
X19770409Y-3821915D01*
X19736431Y-3811607D01*
X19705113Y-3794867D01*
X19677661Y-3772339D01*
X19655133Y-3744887D01*
X19638393Y-3713569D01*
X19628085Y-3679591D01*
X19624000Y-3638110D01*
X19624000Y-2961890D01*
X19628085Y-2920409D01*
X19638393Y-2886431D01*
X19655133Y-2855113D01*
X19677661Y-2827661D01*
X19705113Y-2805133D01*
X19736431Y-2788393D01*
X19770409Y-2778085D01*
X19811890Y-2774000D01*
X20413110Y-2774000D01*
X20454591Y-2778085D01*
X20454591Y-2778085D01*
G37*
G36*
X22029591Y-2778085D02*
X22063569Y-2788393D01*
X22094887Y-2805133D01*
X22122339Y-2827661D01*
X22144867Y-2855113D01*
X22161607Y-2886431D01*
X22171915Y-2920409D01*
X22176000Y-2961890D01*
X22176000Y-3638110D01*
X22171915Y-3679591D01*
X22161607Y-3713569D01*
X22144867Y-3744887D01*
X22122339Y-3772339D01*
X22094887Y-3794867D01*
X22063569Y-3811607D01*
X22029591Y-3821915D01*
X21988110Y-3826000D01*
X21386890Y-3826000D01*
X21345409Y-3821915D01*
X21311431Y-3811607D01*
X21280113Y-3794867D01*
X21252661Y-3772339D01*
X21230133Y-3744887D01*
X21213393Y-3713569D01*
X21203085Y-3679591D01*
X21199000Y-3638110D01*
X21199000Y-2961890D01*
X21203085Y-2920409D01*
X21213393Y-2886431D01*
X21230133Y-2855113D01*
X21252661Y-2827661D01*
X21280113Y-2805133D01*
X21311431Y-2788393D01*
X21345409Y-2778085D01*
X21386890Y-2774000D01*
X21988110Y-2774000D01*
X22029591Y-2778085D01*
X22029591Y-2778085D01*
G37*
G36*
X13481000Y-3416000D02*
X10839000Y-3416000D01*
X10839000Y-1664000D01*
X13481000Y-1664000D01*
X13481000Y-3416000D01*
X13481000Y-3416000D01*
G37*
G36*
X18561000Y-3416000D02*
X15919000Y-3416000D01*
X15919000Y-1664000D01*
X18561000Y-1664000D01*
X18561000Y-3416000D01*
X18561000Y-3416000D01*
G37*
G36*
X26303567Y1235041D02*
X26434072Y1209082D01*
X26679939Y1107241D01*
X26900464Y959890D01*
X26901215Y959388D01*
X27089388Y771215D01*
X27089390Y771212D01*
X27237241Y549939D01*
X27339082Y304072D01*
X27391000Y43062D01*
X27391000Y-223062D01*
X27339082Y-484072D01*
X27237241Y-729939D01*
X27139645Y-876000D01*
X27089388Y-951215D01*
X26901215Y-1139388D01*
X26901212Y-1139390D01*
X26679939Y-1287241D01*
X26434072Y-1389082D01*
X26303567Y-1415041D01*
X26173063Y-1441000D01*
X25906937Y-1441000D01*
X25776433Y-1415041D01*
X25645928Y-1389082D01*
X25400061Y-1287241D01*
X25178788Y-1139390D01*
X25178785Y-1139388D01*
X24990612Y-951215D01*
X24940355Y-876000D01*
X24842759Y-729939D01*
X24740918Y-484072D01*
X24689000Y-223062D01*
X24689000Y43062D01*
X24740918Y304072D01*
X24842759Y549939D01*
X24990610Y771212D01*
X24990612Y771215D01*
X25178785Y959388D01*
X25179536Y959890D01*
X25400061Y1107241D01*
X25645928Y1209082D01*
X25776433Y1235041D01*
X25906937Y1261000D01*
X26173063Y1261000D01*
X26303567Y1235041D01*
X26303567Y1235041D01*
G37*
G36*
X21223567Y1235041D02*
X21354072Y1209082D01*
X21599939Y1107241D01*
X21820464Y959890D01*
X21821215Y959388D01*
X22009388Y771215D01*
X22009390Y771212D01*
X22157241Y549939D01*
X22259082Y304072D01*
X22311000Y43062D01*
X22311000Y-223062D01*
X22259082Y-484072D01*
X22157241Y-729939D01*
X22059645Y-876000D01*
X22009388Y-951215D01*
X21821215Y-1139388D01*
X21821212Y-1139390D01*
X21599939Y-1287241D01*
X21354072Y-1389082D01*
X21223567Y-1415041D01*
X21093063Y-1441000D01*
X20826937Y-1441000D01*
X20696433Y-1415041D01*
X20565928Y-1389082D01*
X20320061Y-1287241D01*
X20098788Y-1139390D01*
X20098785Y-1139388D01*
X19910612Y-951215D01*
X19860355Y-876000D01*
X19762759Y-729939D01*
X19660918Y-484072D01*
X19609000Y-223062D01*
X19609000Y43062D01*
X19660918Y304072D01*
X19762759Y549939D01*
X19910610Y771212D01*
X19910612Y771215D01*
X20098785Y959388D01*
X20099536Y959890D01*
X20320061Y1107241D01*
X20565928Y1209082D01*
X20696433Y1235041D01*
X20826937Y1261000D01*
X21093063Y1261000D01*
X21223567Y1235041D01*
X21223567Y1235041D01*
G37*
G36*
X18561000Y-876000D02*
X15919000Y-876000D01*
X15919000Y876000D01*
X18561000Y876000D01*
X18561000Y-876000D01*
X18561000Y-876000D01*
G37*
G36*
X13481000Y-876000D02*
X10839000Y-876000D01*
X10839000Y876000D01*
X13481000Y876000D01*
X13481000Y-876000D01*
X13481000Y-876000D01*
G37*
G36*
X23879485Y3701004D02*
X23879487Y3701003D01*
X23879488Y3701003D01*
X24116255Y3602931D01*
X24329342Y3460551D01*
X24510551Y3279342D01*
X24652931Y3066255D01*
X24751004Y2829485D01*
X24801000Y2578139D01*
X24801000Y2321861D01*
X24751004Y2070515D01*
X24652931Y1833745D01*
X24510551Y1620658D01*
X24329342Y1439449D01*
X24329339Y1439447D01*
X24116255Y1297069D01*
X23879488Y1198997D01*
X23879487Y1198997D01*
X23879485Y1198996D01*
X23628139Y1149000D01*
X23371861Y1149000D01*
X23120515Y1198996D01*
X23120513Y1198997D01*
X23120512Y1198997D01*
X22883745Y1297069D01*
X22670661Y1439447D01*
X22670658Y1439449D01*
X22489449Y1620658D01*
X22347069Y1833745D01*
X22248996Y2070515D01*
X22199000Y2321861D01*
X22199000Y2578139D01*
X22248996Y2829485D01*
X22347069Y3066255D01*
X22489449Y3279342D01*
X22670658Y3460551D01*
X22883745Y3602931D01*
X23120512Y3701003D01*
X23120513Y3701003D01*
X23120515Y3701004D01*
X23371861Y3751000D01*
X23628139Y3751000D01*
X23879485Y3701004D01*
X23879485Y3701004D01*
G37*
G36*
X13481000Y1664000D02*
X10839000Y1664000D01*
X10839000Y3416000D01*
X13481000Y3416000D01*
X13481000Y1664000D01*
X13481000Y1664000D01*
G37*
G36*
X18561000Y1664000D02*
X15919000Y1664000D01*
X15919000Y3416000D01*
X18561000Y3416000D01*
X18561000Y1664000D01*
X18561000Y1664000D01*
G37*
G36*
X21223567Y6315041D02*
X21354072Y6289082D01*
X21599939Y6187241D01*
X21820464Y6039890D01*
X21821215Y6039388D01*
X22009388Y5851215D01*
X22009390Y5851212D01*
X22157241Y5629939D01*
X22259082Y5384072D01*
X22311000Y5123062D01*
X22311000Y4856938D01*
X22259082Y4595928D01*
X22157241Y4350061D01*
X22009890Y4129536D01*
X22009388Y4128785D01*
X21821215Y3940612D01*
X21821212Y3940610D01*
X21599939Y3792759D01*
X21354072Y3690918D01*
X21223567Y3664959D01*
X21093063Y3639000D01*
X20826937Y3639000D01*
X20696433Y3664959D01*
X20565928Y3690918D01*
X20320061Y3792759D01*
X20098788Y3940610D01*
X20098785Y3940612D01*
X19910612Y4128785D01*
X19910110Y4129536D01*
X19762759Y4350061D01*
X19660918Y4595928D01*
X19609000Y4856938D01*
X19609000Y5123062D01*
X19660918Y5384072D01*
X19762759Y5629939D01*
X19910610Y5851212D01*
X19910612Y5851215D01*
X20098785Y6039388D01*
X20099536Y6039890D01*
X20320061Y6187241D01*
X20565928Y6289082D01*
X20696433Y6315041D01*
X20826937Y6341000D01*
X21093063Y6341000D01*
X21223567Y6315041D01*
X21223567Y6315041D01*
G37*
G36*
X26303567Y6315041D02*
X26434072Y6289082D01*
X26679939Y6187241D01*
X26900464Y6039890D01*
X26901215Y6039388D01*
X27089388Y5851215D01*
X27089390Y5851212D01*
X27237241Y5629939D01*
X27339082Y5384072D01*
X27391000Y5123062D01*
X27391000Y4856938D01*
X27339082Y4595928D01*
X27237241Y4350061D01*
X27089890Y4129536D01*
X27089388Y4128785D01*
X26901215Y3940612D01*
X26901212Y3940610D01*
X26679939Y3792759D01*
X26434072Y3690918D01*
X26303567Y3664959D01*
X26173063Y3639000D01*
X25906937Y3639000D01*
X25776433Y3664959D01*
X25645928Y3690918D01*
X25400061Y3792759D01*
X25178788Y3940610D01*
X25178785Y3940612D01*
X24990612Y4128785D01*
X24990110Y4129536D01*
X24842759Y4350061D01*
X24740918Y4595928D01*
X24689000Y4856938D01*
X24689000Y5123062D01*
X24740918Y5384072D01*
X24842759Y5629939D01*
X24990610Y5851212D01*
X24990612Y5851215D01*
X25178785Y6039388D01*
X25179536Y6039890D01*
X25400061Y6187241D01*
X25645928Y6289082D01*
X25776433Y6315041D01*
X25906937Y6341000D01*
X26173063Y6341000D01*
X26303567Y6315041D01*
X26303567Y6315041D01*
G37*
M02*
