G04 #@! TF.GenerationSoftware,KiCad,Pcbnew,(5.0.2)-1*
G04 #@! TF.CreationDate,2020-08-06T16:14:57-05:00*
G04 #@! TF.ProjectId,xform-plug,78666f72-6d2d-4706-9c75-672e6b696361,rev?*
G04 #@! TF.SameCoordinates,Original*
G04 #@! TF.FileFunction,Legend,Top*
G04 #@! TF.FilePolarity,Positive*
%FSLAX46Y46*%
G04 Gerber Fmt 4.6, Leading zero omitted, Abs format (unit mm)*
G04 Created by KiCad (PCBNEW (5.0.2)-1) date 8/6/2020 4:14:57 PM*
%MOMM*%
%LPD*%
G01*
G04 APERTURE LIST*
%ADD10C,0.100000*%
%ADD11C,0.090000*%
%ADD12C,0.120000*%
%ADD13C,0.150000*%
G04 APERTURE END LIST*
D10*
G04 #@! TO.C,J1*
X23200000Y-850000D02*
X23800000Y-850000D01*
X23200000Y5750000D02*
X23800000Y5750000D01*
X20000000Y2450000D02*
X20000000Y2850000D01*
X20000000Y2450000D02*
X20000000Y2050000D01*
D11*
G04 #@! TO.C,R2*
X19566500Y-2665000D02*
X19566500Y-3935000D01*
X19566500Y-3935000D02*
X22233500Y-3935000D01*
X22233500Y-3935000D02*
X22233500Y-2665000D01*
X22233500Y-2665000D02*
X19566500Y-2665000D01*
D12*
G04 #@! TO.C,TR1*
X11779000Y-3556000D02*
X11779000Y-4064000D01*
X11779000Y-4064000D02*
X17621000Y-4064000D01*
X17621000Y-4064000D02*
X17621000Y-3556000D01*
X17621000Y-3556000D02*
X18510000Y-3556000D01*
X17621000Y3556000D02*
X17621000Y4064000D01*
X17621000Y4064000D02*
X11779000Y4064000D01*
X11779000Y4064000D02*
X11779000Y3556000D01*
G04 #@! TO.C,J1*
D13*
X22802380Y-2683333D02*
X23516666Y-2683333D01*
X23659523Y-2730952D01*
X23754761Y-2826190D01*
X23802380Y-2969047D01*
X23802380Y-3064285D01*
X23802380Y-1683333D02*
X23802380Y-2254761D01*
X23802380Y-1969047D02*
X22802380Y-1969047D01*
X22945238Y-2064285D01*
X23040476Y-2159523D01*
X23088095Y-2254761D01*
G04 #@! TO.C,R2*
X19833333Y-5252380D02*
X19500000Y-4776190D01*
X19261904Y-5252380D02*
X19261904Y-4252380D01*
X19642857Y-4252380D01*
X19738095Y-4300000D01*
X19785714Y-4347619D01*
X19833333Y-4442857D01*
X19833333Y-4585714D01*
X19785714Y-4680952D01*
X19738095Y-4728571D01*
X19642857Y-4776190D01*
X19261904Y-4776190D01*
X20214285Y-4347619D02*
X20261904Y-4300000D01*
X20357142Y-4252380D01*
X20595238Y-4252380D01*
X20690476Y-4300000D01*
X20738095Y-4347619D01*
X20785714Y-4442857D01*
X20785714Y-4538095D01*
X20738095Y-4680952D01*
X20166666Y-5252380D01*
X20785714Y-5252380D01*
G04 #@! TO.C,TR1*
X13438095Y-4278380D02*
X14009523Y-4278380D01*
X13723809Y-5278380D02*
X13723809Y-4278380D01*
X14914285Y-5278380D02*
X14580952Y-4802190D01*
X14342857Y-5278380D02*
X14342857Y-4278380D01*
X14723809Y-4278380D01*
X14819047Y-4326000D01*
X14866666Y-4373619D01*
X14914285Y-4468857D01*
X14914285Y-4611714D01*
X14866666Y-4706952D01*
X14819047Y-4754571D01*
X14723809Y-4802190D01*
X14342857Y-4802190D01*
X15866666Y-5278380D02*
X15295238Y-5278380D01*
X15580952Y-5278380D02*
X15580952Y-4278380D01*
X15485714Y-4421238D01*
X15390476Y-4516476D01*
X15295238Y-4564095D01*
G04 #@! TD*
M02*
