M48
;DRILL file {KiCad (5.0.2)-1} date 8/6/2020 4:13:04 PM
;FORMAT={-:-/ absolute / inch / decimal}
FMAT,2
INCH,TZ
T1C0.0157
T2C0.0591
T3C0.0630
%
G90
G05
T1
X0.0394Y0.1
X0.0394Y-0.0969
X0.1181Y0.1
X0.1181Y-0.0969
X0.1969Y0.1
X0.1969Y-0.0969
X0.2854Y0.1
X0.2854Y-0.0969
X0.3642Y0.1
X0.3642Y-0.0969
X0.3937Y0.
X0.4134Y0.2657
X0.4134Y0.187
X0.4134Y-0.1772
X0.4134Y-0.2559
X0.4921Y0.2657
X0.4921Y0.187
X0.4921Y-0.1772
X0.4921Y-0.2559
X0.5807Y0.2657
X0.5807Y0.187
X0.5807Y0.1083
X0.5807Y0.0394
X0.5807Y-0.0295
X0.5807Y-0.0984
X0.5807Y-0.1772
X0.5807Y-0.2559
X0.6693Y0.2657
X0.6693Y0.187
X0.6693Y-0.1772
X0.6693Y-0.2559
X0.7362Y0.2244
X0.7579Y-0.187
X0.8563Y-0.1969
X0.9154Y-0.0591
X0.9154Y-0.128
T2
X0.9252Y0.0965
T3
X0.8252Y0.1965
X0.8252Y-0.0035
X1.0252Y0.1965
X1.0252Y-0.0035
T0
M30
